%TF.GenerationSoftware,Altium Limited,Altium Designer,24.7.2 (38)*%
G04 Layer_Color=65535*
%FSLAX45Y45*%
%MOMM*%
%TF.SameCoordinates,B30809B7-3911-4904-9B3F-344CE752C631*%
%TF.FilePolarity,Positive*%
%TF.FileFunction,Legend,Top*%
%TF.Part,Single*%
G01*
G75*
%TA.AperFunction,NonConductor*%
%ADD37C,0.25000*%
%ADD38C,0.12700*%
%ADD39C,0.20000*%
%ADD40C,0.25400*%
%ADD41C,0.15000*%
G36*
X12000000Y13747551D02*
Y13232449D01*
X11600000D01*
Y13747551D01*
X12000000D01*
D02*
G37*
G36*
X12027551Y7504781D02*
X11512450D01*
Y7915219D01*
X12027551D01*
Y7504781D01*
D02*
G37*
G36*
X14450000Y13146793D02*
X14050000D01*
Y13793208D01*
X14450000D01*
Y13146793D01*
D02*
G37*
G36*
X17647551Y10510000D02*
X17132449D01*
Y10910000D01*
X17647551D01*
Y10510000D01*
D02*
G37*
G36*
X16489999Y13071684D02*
X16089999D01*
Y13828316D01*
X16489999D01*
Y13071684D01*
D02*
G37*
G36*
X17693082Y8510000D02*
X17086920D01*
Y8910000D01*
X17693082D01*
Y8510000D01*
D02*
G37*
G36*
X14020000Y13156364D02*
X13620000D01*
Y13763635D01*
X14020000D01*
Y13156364D01*
D02*
G37*
G36*
X17703908Y6510000D02*
X17076093D01*
Y6910000D01*
X17703908D01*
Y6510000D01*
D02*
G37*
G36*
X17647551Y12510000D02*
X17132449D01*
Y12910001D01*
X17647551D01*
Y12510000D01*
D02*
G37*
G36*
X12047551Y11510000D02*
X11532450D01*
Y11910000D01*
X12047551D01*
Y11510000D01*
D02*
G37*
%LPC*%
G36*
X11894392Y13647551D02*
X11702277D01*
Y13471538D01*
D01*
X11894392Y13545941D01*
Y13499300D01*
Y13572594D01*
X11702277Y13647551D01*
X11894392D01*
D01*
D02*
G37*
G36*
X11897723Y13459879D02*
X11704776D01*
Y13355215D01*
X11803609Y13336613D01*
X11806663Y13358824D01*
X11803609Y13360767D01*
X11801111Y13363266D01*
X11798612Y13365488D01*
X11796669Y13367708D01*
X11795280Y13369930D01*
X11793892Y13371594D01*
X11793337Y13372705D01*
X11793059Y13372981D01*
X11791394Y13376591D01*
X11790006Y13380202D01*
X11789173Y13383533D01*
X11788340Y13386864D01*
X11788062Y13389639D01*
X11787785Y13391861D01*
Y13397136D01*
X11788340Y13400467D01*
X11789728Y13406297D01*
X11791671Y13411295D01*
X11793615Y13415736D01*
X11795836Y13419067D01*
X11797779Y13421565D01*
X11799167Y13422954D01*
X11799445Y13423511D01*
X11799722D01*
X11804442Y13427396D01*
X11809439Y13430173D01*
X11814714Y13432117D01*
X11819989Y13433504D01*
X11824431Y13434337D01*
X11826374Y13434615D01*
X11828040D01*
X11829428Y13434892D01*
X11830538D01*
X11831094D01*
X11831371D01*
X11835258D01*
X11838867Y13434337D01*
X11845808Y13432948D01*
X11851638Y13431004D01*
X11856357Y13429062D01*
X11860244Y13426842D01*
X11863298Y13424898D01*
X11864131Y13424065D01*
X11864964Y13423511D01*
X11865241Y13423232D01*
X11865519Y13422954D01*
X11867740Y13420734D01*
X11869683Y13418512D01*
X11873015Y13413515D01*
X11875236Y13408797D01*
X11876624Y13404076D01*
X11877734Y13400189D01*
X11878012Y13396858D01*
X11878289Y13395747D01*
Y13394083D01*
X11878012Y13388808D01*
X11876901Y13384087D01*
X11875513Y13379922D01*
X11873847Y13376591D01*
X11872182Y13373538D01*
X11870794Y13371317D01*
X11869683Y13370206D01*
X11869406Y13369650D01*
X11865519Y13366319D01*
X11861354Y13363544D01*
X11856635Y13361322D01*
X11852471Y13359657D01*
X11848306Y13358546D01*
X11845252Y13357713D01*
X11843864Y13357436D01*
X11843031Y13357158D01*
X11842476D01*
X11842199D01*
X11844142Y13332449D01*
D01*
X11848584Y13333005D01*
X11852748Y13333838D01*
X11860522Y13336336D01*
X11867185Y13339391D01*
X11870238Y13341055D01*
X11872737Y13342722D01*
X11875236Y13344110D01*
X11877457Y13345775D01*
X11879122Y13347163D01*
X11880510Y13348552D01*
X11881621Y13349661D01*
X11882731Y13350217D01*
X11883009Y13350774D01*
X11883287Y13351050D01*
X11885785Y13354382D01*
X11888006Y13357713D01*
X11889950Y13361322D01*
X11891615Y13364931D01*
X11894114Y13371872D01*
X11895780Y13378812D01*
X11896612Y13381866D01*
X11896890Y13384920D01*
X11897168Y13387419D01*
X11897445Y13389639D01*
X11897723Y13391583D01*
Y13348552D01*
Y13394083D01*
X11897445Y13399911D01*
X11896612Y13405464D01*
X11895502Y13410739D01*
X11894114Y13415459D01*
X11892171Y13419901D01*
X11890227Y13424065D01*
X11888284Y13427953D01*
X11886063Y13431284D01*
X11883842Y13434337D01*
X11881899Y13437112D01*
X11879678Y13439334D01*
X11878012Y13441277D01*
X11876624Y13442667D01*
X11875513Y13443776D01*
X11874680Y13444331D01*
X11874403Y13444609D01*
X11870794Y13447385D01*
X11866907Y13449606D01*
X11863298Y13451826D01*
X11859411Y13453493D01*
X11851915Y13456268D01*
X11844697Y13457935D01*
X11841643Y13458490D01*
X11838589Y13459045D01*
X11836091Y13459323D01*
X11833870Y13459599D01*
X11831927Y13459879D01*
X11897723D01*
D02*
G37*
%LPD*%
G36*
X11841921Y13569539D02*
X11847751Y13567319D01*
X11853303Y13565375D01*
X11858578Y13563708D01*
X11863298Y13562321D01*
X11867462Y13560931D01*
X11870516Y13560100D01*
X11871626Y13559822D01*
X11872459Y13559544D01*
X11873015Y13559267D01*
X11873292D01*
X11862187Y13555936D01*
X11856913Y13554269D01*
X11852193Y13552605D01*
X11848029Y13551216D01*
X11846363Y13550661D01*
X11844697Y13550383D01*
X11843587Y13549828D01*
X11842754Y13549550D01*
X11842199Y13549272D01*
X11841921D01*
X11702277Y13499300D01*
Y13621732D01*
X11841921Y13569539D01*
D02*
G37*
G36*
X11824431Y13459599D02*
X11819711Y13459045D01*
X11814992Y13458212D01*
X11810827Y13457101D01*
X11806941Y13455714D01*
X11803054Y13454326D01*
X11799722Y13452660D01*
X11796669Y13451273D01*
X11793892Y13449606D01*
X11791394Y13447940D01*
X11789450Y13446552D01*
X11787507Y13445164D01*
X11786119Y13444054D01*
X11785286Y13443221D01*
X11784731Y13442667D01*
X11784453Y13442387D01*
X11781399Y13439056D01*
X11778623Y13435725D01*
X11776402Y13432117D01*
X11774459Y13428506D01*
X11772515Y13424898D01*
X11771127Y13421289D01*
X11769184Y13414626D01*
X11768351Y13411572D01*
X11767796Y13408797D01*
X11767518Y13406297D01*
X11767241Y13404076D01*
X11766963Y13402409D01*
Y13396303D01*
X11767518Y13392970D01*
X11768906Y13386308D01*
X11770850Y13380202D01*
X11773071Y13374648D01*
X11775292Y13370206D01*
X11776402Y13368263D01*
X11777235Y13366597D01*
X11778068Y13365208D01*
X11778623Y13364375D01*
X11778901Y13363821D01*
X11779178Y13363544D01*
X11727263Y13373814D01*
Y13450717D01*
X11704776D01*
Y13459879D01*
X11829428D01*
X11824431Y13459599D01*
D02*
G37*
%LPC*%
G36*
X11770695Y7815219D02*
X11763199D01*
X11758479Y7814663D01*
X11749595Y7813275D01*
X11741544Y7811332D01*
X11737935Y7810221D01*
X11734326Y7809111D01*
X11731272Y7808000D01*
X11728496Y7806890D01*
X11726275Y7805779D01*
X11724332Y7804947D01*
X11722666Y7804114D01*
X11721555Y7803558D01*
X11720723Y7803281D01*
X11720445Y7803003D01*
X11712949Y7798006D01*
X11706564Y7792176D01*
X11700734Y7786346D01*
X11696292Y7780793D01*
X11692405Y7775519D01*
X11691017Y7773298D01*
X11689907Y7771354D01*
X11688796Y7769689D01*
X11688241Y7768578D01*
X11687963Y7767745D01*
X11687686Y7767468D01*
X11683799Y7758584D01*
X11681023Y7749422D01*
X11679079Y7740816D01*
X11677691Y7732765D01*
X11677136Y7729156D01*
X11676858Y7725824D01*
X11676581Y7722770D01*
Y7720272D01*
X11676303Y7718328D01*
Y7715552D01*
X11676858Y7705280D01*
X11677969Y7695563D01*
X11679079Y7690844D01*
X11679912Y7686680D01*
X11681023Y7682793D01*
X11682133Y7679184D01*
X11682966Y7675852D01*
X11684076Y7672798D01*
X11685187Y7670300D01*
X11686020Y7668079D01*
X11686575Y7666413D01*
X11687130Y7665303D01*
X11687686Y7664470D01*
Y7664192D01*
X11692405Y7656141D01*
X11697680Y7649201D01*
X11702955Y7643093D01*
X11708230Y7638096D01*
X11712949Y7634209D01*
X11714892Y7632543D01*
X11716836Y7631155D01*
X11718224Y7630322D01*
X11719334Y7629489D01*
X11719890Y7629212D01*
X11720167Y7628934D01*
X11724332Y7626713D01*
X11728218Y7624770D01*
X11736547Y7621716D01*
X11744598Y7619495D01*
X11751816Y7618107D01*
X11755148Y7617552D01*
X11758202Y7616996D01*
X11760978Y7616719D01*
X11763199D01*
X11765142Y7616441D01*
X11767641D01*
X11772360Y7616719D01*
X11777080Y7616996D01*
X11785964Y7618385D01*
X11794015Y7620328D01*
X11797624Y7621438D01*
X11800955Y7622549D01*
X11804009Y7623659D01*
X11806785Y7624492D01*
X11809006Y7625603D01*
X11811227Y7626436D01*
X11812615Y7627268D01*
X11814004Y7627824D01*
X11814559Y7628379D01*
X11814836D01*
X11822610Y7622827D01*
X11830106Y7617829D01*
X11837046Y7613943D01*
X11843154Y7610611D01*
X11845930Y7609223D01*
X11848429Y7608113D01*
X11850650Y7607002D01*
X11852593Y7606169D01*
X11854259Y7605614D01*
X11855369Y7605059D01*
X11855924Y7604781D01*
X11856202D01*
X11863698Y7622271D01*
X11858145Y7624770D01*
X11852315Y7627268D01*
X11846763Y7630322D01*
X11841766Y7633376D01*
X11837601Y7635875D01*
X11835658Y7636985D01*
X11834270Y7638096D01*
X11832882Y7638929D01*
X11832049Y7639484D01*
X11831494Y7640039D01*
X11831216D01*
X11836213Y7645592D01*
X11840655Y7651144D01*
X11844542Y7656696D01*
X11847596Y7661971D01*
X11849817Y7666413D01*
X11850650Y7668357D01*
X11851483Y7670022D01*
X11852038Y7671133D01*
X11852593Y7672243D01*
X11852871Y7672798D01*
Y7673076D01*
X11855369Y7680294D01*
X11857035Y7687790D01*
X11858423Y7695008D01*
X11859256Y7701671D01*
X11859534Y7704447D01*
X11859811Y7707224D01*
Y7709722D01*
X11860089Y7711943D01*
Y7713609D01*
Y7714719D01*
Y7715552D01*
Y7715830D01*
X11859534Y7726102D01*
X11858423Y7735819D01*
X11857590Y7740261D01*
X11856480Y7744425D01*
X11855369Y7748312D01*
X11854536Y7751921D01*
X11853426Y7755252D01*
X11852315Y7758306D01*
X11851483Y7760805D01*
X11850372Y7763026D01*
X11849817Y7764691D01*
X11849262Y7765802D01*
X11848706Y7766635D01*
Y7766912D01*
X11844264Y7774963D01*
X11838990Y7782182D01*
X11833437Y7788289D01*
X11828440Y7793286D01*
X11823720Y7797173D01*
X11821499Y7798839D01*
X11819834Y7800227D01*
X11818168Y7801060D01*
X11817057Y7801893D01*
X11816502Y7802170D01*
X11816225Y7802448D01*
X11812060Y7804669D01*
X11807896Y7806612D01*
X11799845Y7809944D01*
X11791516Y7812165D01*
X11784298Y7813553D01*
X11780967Y7814108D01*
X11777635Y7814663D01*
X11775136Y7814941D01*
X11772638D01*
X11770695Y7815219D01*
D02*
G37*
%LPD*%
G36*
X11775136Y7793009D02*
X11781799Y7791898D01*
X11787629Y7790233D01*
X11792627Y7788567D01*
X11796791Y7786623D01*
X11798457Y7785791D01*
X11799845Y7785235D01*
X11801233Y7784403D01*
X11802066Y7784125D01*
X11802343Y7783570D01*
X11802621D01*
X11807896Y7779683D01*
X11812615Y7775241D01*
X11816780Y7770799D01*
X11820111Y7766357D01*
X11822610Y7762470D01*
X11824553Y7759139D01*
X11825108Y7758028D01*
X11825664Y7757196D01*
X11825941Y7756640D01*
Y7756363D01*
X11828718Y7749700D01*
X11830661Y7742759D01*
X11832049Y7735819D01*
X11832882Y7729433D01*
X11833437Y7726657D01*
X11833715Y7723881D01*
Y7721660D01*
X11833992Y7719439D01*
Y7717773D01*
Y7716663D01*
Y7715830D01*
Y7715552D01*
X11833715Y7708056D01*
X11833159Y7701116D01*
X11832049Y7694731D01*
X11830383Y7688623D01*
X11828718Y7683348D01*
X11826774Y7678351D01*
X11824831Y7673631D01*
X11822887Y7669467D01*
X11820666Y7665858D01*
X11818723Y7662804D01*
X11816780Y7660305D01*
X11815114Y7658085D01*
X11813726Y7656419D01*
X11812615Y7655031D01*
X11811783Y7654475D01*
X11811505Y7654198D01*
X11805675Y7658640D01*
X11799845Y7662249D01*
X11793737Y7665303D01*
X11787907Y7668079D01*
X11782910Y7670022D01*
X11780689Y7670855D01*
X11778746Y7671410D01*
X11777357Y7671966D01*
X11776247Y7672243D01*
X11775414Y7672521D01*
X11775136D01*
X11768751Y7654198D01*
X11773748Y7652810D01*
X11778468Y7651144D01*
X11782632Y7649201D01*
X11786519Y7647535D01*
X11789573Y7645869D01*
X11792071Y7644481D01*
X11793460Y7643371D01*
X11794015Y7643093D01*
X11789573Y7641427D01*
X11784853Y7640317D01*
X11780689Y7639206D01*
X11776525Y7638651D01*
X11773193Y7638373D01*
X11770695Y7638096D01*
X11768196D01*
X11762921Y7638373D01*
X11757924Y7638929D01*
X11753204Y7640039D01*
X11748485Y7641150D01*
X11744320Y7642815D01*
X11740434Y7644481D01*
X11736825Y7646147D01*
X11733771Y7648090D01*
X11730717Y7650033D01*
X11728218Y7651699D01*
X11725997Y7653365D01*
X11724054Y7655031D01*
X11722666Y7656141D01*
X11721555Y7657252D01*
X11721000Y7657807D01*
X11720723Y7658085D01*
X11717391Y7661971D01*
X11714615Y7666413D01*
X11712116Y7670855D01*
X11710173Y7675575D01*
X11708230Y7680294D01*
X11706841Y7685014D01*
X11704620Y7694453D01*
X11704065Y7698617D01*
X11703510Y7702782D01*
X11702955Y7706391D01*
X11702677Y7709445D01*
X11702400Y7711943D01*
Y7713887D01*
Y7714997D01*
Y7715552D01*
X11702677Y7722493D01*
X11703232Y7729156D01*
X11704065Y7735263D01*
X11705453Y7740816D01*
X11706841Y7746091D01*
X11708230Y7750810D01*
X11709895Y7755252D01*
X11711839Y7759139D01*
X11713504Y7762470D01*
X11715170Y7765524D01*
X11716558Y7768023D01*
X11718224Y7769966D01*
X11719334Y7771632D01*
X11720167Y7772742D01*
X11720723Y7773298D01*
X11721000Y7773575D01*
X11724609Y7777184D01*
X11728496Y7779961D01*
X11732383Y7782737D01*
X11736269Y7784958D01*
X11740434Y7786901D01*
X11744320Y7788567D01*
X11747930Y7789677D01*
X11751816Y7790788D01*
X11755148Y7791621D01*
X11758202Y7792176D01*
X11760978Y7792731D01*
X11763476Y7793009D01*
X11765420Y7793286D01*
X11768196D01*
X11775136Y7793009D01*
D02*
G37*
G36*
X14346474Y13618250D02*
X14154359Y13693208D01*
X14346474D01*
Y13618250D01*
D02*
G37*
%LPC*%
G36*
Y13693208D02*
X14154359D01*
Y13517197D01*
D01*
X14346474Y13591599D01*
Y13693208D01*
D02*
G37*
G36*
Y13502203D02*
X14153526D01*
X14323708D01*
Y13407535D01*
X14318990Y13410867D01*
X14317046Y13412532D01*
X14315102Y13413921D01*
X14313435Y13415309D01*
X14312326Y13416418D01*
X14311493Y13417252D01*
X14311215Y13417529D01*
X14309827Y13418918D01*
X14308440Y13420584D01*
X14304829Y13424471D01*
X14300665Y13428912D01*
X14296501Y13433632D01*
X14292892Y13438074D01*
X14291226Y13440018D01*
X14289561Y13441682D01*
X14288451Y13443071D01*
X14287617Y13444180D01*
X14287062Y13444737D01*
X14286784Y13445013D01*
X14282898Y13449455D01*
X14279289Y13453899D01*
X14275681Y13457785D01*
X14272626Y13461394D01*
X14269572Y13464725D01*
X14266795Y13467502D01*
X14264297Y13470277D01*
X14262076Y13472499D01*
X14259856Y13474719D01*
X14258189Y13476385D01*
X14256801Y13477774D01*
X14255412Y13479163D01*
X14253748Y13480550D01*
X14253192Y13481105D01*
X14248473Y13484991D01*
X14244308Y13488322D01*
X14240144Y13491100D01*
X14236813Y13493320D01*
X14233759Y13494986D01*
X14231538Y13496097D01*
X14230150Y13496652D01*
X14229594Y13496930D01*
X14225430Y13498595D01*
X14221266Y13499706D01*
X14217380Y13500816D01*
X14214047Y13501372D01*
X14210994Y13501649D01*
X14208772Y13501927D01*
X14207385D01*
X14206828D01*
X14202666Y13501649D01*
X14198778Y13501094D01*
X14194891Y13500539D01*
X14191560Y13499428D01*
X14184897Y13496652D01*
X14179622Y13493877D01*
X14177124Y13492210D01*
X14175180Y13490822D01*
X14173238Y13489433D01*
X14171849Y13488046D01*
X14170738Y13486935D01*
X14169627Y13486380D01*
X14169350Y13485825D01*
X14169073Y13485547D01*
X14166296Y13482494D01*
X14163799Y13479163D01*
X14161855Y13475552D01*
X14160188Y13471944D01*
X14157413Y13464725D01*
X14155469Y13457507D01*
X14154913Y13454453D01*
X14154359Y13451401D01*
X14154082Y13448624D01*
X14153804Y13446402D01*
X14153526Y13444460D01*
Y13441682D01*
X14153804Y13436687D01*
X14154082Y13431966D01*
X14154913Y13427524D01*
X14155746Y13423360D01*
X14156857Y13419473D01*
X14157968Y13415865D01*
X14159357Y13412532D01*
X14160744Y13409479D01*
X14162132Y13406702D01*
X14163519Y13404482D01*
X14164632Y13402538D01*
X14165741Y13400871D01*
X14166574Y13399484D01*
X14167407Y13398651D01*
X14167685Y13398096D01*
X14167963Y13397820D01*
X14170738Y13395042D01*
X14173792Y13392545D01*
X14177124Y13390045D01*
X14180455Y13388103D01*
X14187119Y13384770D01*
X14193781Y13382549D01*
X14196835Y13381715D01*
X14199889Y13380884D01*
X14202386Y13380328D01*
X14204608Y13379773D01*
X14206552Y13379495D01*
X14207941D01*
X14208772Y13379218D01*
X14209050D01*
X14211549Y13403371D01*
X14205164Y13403926D01*
X14199611Y13405037D01*
X14194614Y13406702D01*
X14190727Y13408646D01*
X14187396Y13410312D01*
X14185175Y13411977D01*
X14183788Y13413087D01*
X14183231Y13413643D01*
X14179900Y13417807D01*
X14177402Y13422249D01*
X14175458Y13426968D01*
X14174348Y13431133D01*
X14173515Y13435020D01*
X14173238Y13438351D01*
X14172958Y13439462D01*
Y13441129D01*
X14173238Y13446957D01*
X14174348Y13452232D01*
X14176013Y13456674D01*
X14177679Y13460561D01*
X14179622Y13463615D01*
X14181010Y13465558D01*
X14182121Y13466946D01*
X14182677Y13467502D01*
X14186563Y13470833D01*
X14190450Y13473332D01*
X14194336Y13475275D01*
X14198222Y13476385D01*
X14201277Y13477219D01*
X14204053Y13477496D01*
X14205719Y13477774D01*
X14205997D01*
X14206274D01*
X14211272Y13477219D01*
X14216547Y13476108D01*
X14221266Y13474165D01*
X14225708Y13472221D01*
X14229317Y13470000D01*
X14232372Y13468057D01*
X14233481Y13467502D01*
X14234314Y13466946D01*
X14234592Y13466391D01*
X14234869D01*
X14237923Y13464169D01*
X14240977Y13461394D01*
X14244308Y13458340D01*
X14247639Y13455009D01*
X14254303Y13448068D01*
X14260966Y13441129D01*
X14264018Y13437518D01*
X14266795Y13434465D01*
X14269295Y13431412D01*
X14271515Y13428912D01*
X14273181Y13426968D01*
X14274570Y13425304D01*
X14275401Y13424193D01*
X14275681Y13423915D01*
X14281509Y13416974D01*
X14287062Y13410590D01*
X14292059Y13405315D01*
X14296223Y13401151D01*
X14299834Y13397540D01*
X14302332Y13395042D01*
X14303996Y13393654D01*
X14304276Y13393098D01*
X14304552D01*
X14309271Y13389212D01*
X14313715Y13386159D01*
X14318156Y13383382D01*
X14322041Y13381161D01*
X14325374Y13379495D01*
X14327873Y13378384D01*
X14329538Y13377831D01*
X14329816Y13377551D01*
X14330093D01*
X14333147Y13376442D01*
X14335924Y13375887D01*
X14338699Y13375331D01*
X14341199Y13375053D01*
X14343419Y13374776D01*
X14346474D01*
Y13502203D01*
D02*
G37*
G36*
Y13317586D02*
X14153526D01*
Y13246793D01*
D01*
Y13302316D01*
X14158244Y13299541D01*
X14162688Y13296486D01*
X14167130Y13292877D01*
X14171016Y13289546D01*
X14174348Y13286214D01*
X14177124Y13283716D01*
X14177957Y13282605D01*
X14178790Y13281773D01*
X14179066Y13281496D01*
X14179346Y13281216D01*
X14184064Y13275388D01*
X14188506Y13269557D01*
X14192393Y13264005D01*
X14195447Y13258452D01*
X14198222Y13253732D01*
X14199335Y13251788D01*
X14200166Y13250124D01*
X14200999Y13248737D01*
X14201277Y13247626D01*
X14201833Y13247070D01*
Y13246793D01*
X14224597D01*
X14222931Y13250957D01*
X14220988Y13255121D01*
X14219044Y13259285D01*
X14217101Y13263171D01*
X14215436Y13266502D01*
X14214047Y13269279D01*
X14212936Y13270946D01*
X14212659Y13271223D01*
Y13271501D01*
X14209605Y13276498D01*
X14206552Y13280940D01*
X14203777Y13284827D01*
X14201277Y13287880D01*
X14199335Y13290656D01*
X14197668Y13292322D01*
X14196558Y13293710D01*
X14196280Y13293988D01*
X14346474D01*
Y13317586D01*
D02*
G37*
%LPD*%
G36*
X14294003Y13615198D02*
X14299834Y13612976D01*
X14305385Y13611032D01*
X14310660Y13609366D01*
X14315379Y13607977D01*
X14319543Y13606590D01*
X14322598Y13605757D01*
X14323708Y13605479D01*
X14324541Y13605202D01*
X14325096Y13604926D01*
X14325374D01*
X14314268Y13601593D01*
X14308994Y13599927D01*
X14304276Y13598262D01*
X14300110Y13596873D01*
X14298445Y13596318D01*
X14296779Y13596040D01*
X14295668Y13595485D01*
X14294836Y13595209D01*
X14294279Y13594930D01*
X14294003D01*
X14154359Y13544958D01*
Y13667389D01*
X14294003Y13615198D01*
D02*
G37*
%LPC*%
G36*
X17314764Y10808139D02*
X17312822D01*
X17308102Y10807862D01*
X17303661Y10807306D01*
X17299219Y10806473D01*
X17295331Y10805363D01*
X17287836Y10802309D01*
X17284505Y10800921D01*
X17281728Y10799255D01*
X17278952Y10797312D01*
X17276730Y10795924D01*
X17274510Y10794258D01*
X17272844Y10792870D01*
X17271455Y10791759D01*
X17270622Y10790927D01*
X17270068Y10790371D01*
X17269791Y10790094D01*
X17266736Y10786762D01*
X17264238Y10782876D01*
X17261739Y10779266D01*
X17259796Y10775380D01*
X17258130Y10771215D01*
X17256741Y10767329D01*
X17254799Y10760111D01*
X17253966Y10756501D01*
X17253410Y10753448D01*
X17253133Y10750394D01*
X17252855Y10747895D01*
X17252579Y10745952D01*
Y10743176D01*
X17252855Y10737901D01*
X17253410Y10733181D01*
X17253966Y10728462D01*
X17255077Y10724020D01*
X17256464Y10720133D01*
X17257852Y10716246D01*
X17259241Y10712915D01*
X17260905Y10709861D01*
X17262294Y10707085D01*
X17263683Y10704586D01*
X17265071Y10702643D01*
X17266460Y10700699D01*
X17267569Y10699311D01*
X17268124Y10698478D01*
X17268680Y10697923D01*
X17268958Y10697646D01*
X17272011Y10694592D01*
X17275343Y10692093D01*
X17278674Y10689595D01*
X17282283Y10687651D01*
X17285616Y10685985D01*
X17288947Y10684597D01*
X17295331Y10682654D01*
X17298108Y10681821D01*
X17300883Y10681266D01*
X17303105Y10680988D01*
X17305325Y10680711D01*
X17306992Y10680433D01*
X17309213D01*
X17314487Y10680711D01*
X17319485Y10681544D01*
X17323926Y10682654D01*
X17328091Y10684042D01*
X17331145Y10685153D01*
X17333643Y10686263D01*
X17335309Y10687096D01*
X17335864Y10687374D01*
X17340306Y10690150D01*
X17344193Y10693204D01*
X17347523Y10696258D01*
X17350301Y10699034D01*
X17352245Y10701810D01*
X17353909Y10703753D01*
X17355020Y10705141D01*
X17355298Y10705697D01*
Y10703476D01*
Y10702088D01*
Y10701255D01*
Y10700977D01*
X17355020Y10695425D01*
X17354742Y10690150D01*
X17354187Y10685430D01*
X17353632Y10680988D01*
X17352798Y10677379D01*
X17352245Y10674603D01*
X17351965Y10673492D01*
Y10672660D01*
X17351689Y10672382D01*
Y10672104D01*
X17350301Y10667107D01*
X17348912Y10662665D01*
X17347523Y10658779D01*
X17346136Y10655447D01*
X17345026Y10652948D01*
X17343915Y10651005D01*
X17343359Y10649617D01*
X17343082Y10649339D01*
X17340862Y10646286D01*
X17338640Y10643787D01*
X17336420Y10641566D01*
X17334200Y10639623D01*
X17332533Y10637957D01*
X17330867Y10636846D01*
X17329758Y10636291D01*
X17329478Y10636014D01*
X17326425Y10634348D01*
X17323094Y10633237D01*
X17320039Y10632404D01*
X17316986Y10631849D01*
X17314487Y10631572D01*
X17312544Y10631294D01*
X17310600D01*
X17306158Y10631572D01*
X17301994Y10632404D01*
X17298386Y10633515D01*
X17295331Y10634903D01*
X17293111Y10636014D01*
X17291167Y10637124D01*
X17290057Y10637957D01*
X17289780Y10638235D01*
X17287003Y10641288D01*
X17284782Y10644897D01*
X17282838Y10648784D01*
X17281450Y10652671D01*
X17280341Y10656002D01*
X17279507Y10659056D01*
X17279230Y10660167D01*
Y10660722D01*
X17278952Y10661277D01*
Y10661555D01*
X17256187Y10659611D01*
X17257852Y10651560D01*
X17260072Y10644620D01*
X17262849Y10638512D01*
X17265627Y10633515D01*
X17268402Y10629628D01*
X17269791Y10627962D01*
X17270901Y10626574D01*
X17271735Y10625742D01*
X17272566Y10624909D01*
X17272844Y10624631D01*
X17273122Y10624353D01*
X17275899Y10622132D01*
X17278952Y10620189D01*
X17285059Y10617135D01*
X17291167Y10614914D01*
X17296997Y10613526D01*
X17302272Y10612416D01*
X17304494Y10612138D01*
X17306436D01*
X17307825Y10611860D01*
X17310045D01*
X17317819Y10612416D01*
X17324759Y10613526D01*
X17331145Y10615469D01*
X17336420Y10617690D01*
X17338640Y10618523D01*
X17340862Y10619634D01*
X17342526Y10620744D01*
X17344193Y10621577D01*
X17345303Y10622132D01*
X17346136Y10622688D01*
X17346690Y10623243D01*
X17346970D01*
X17352522Y10627962D01*
X17357520Y10633237D01*
X17361404Y10638790D01*
X17364737Y10644065D01*
X17367513Y10648784D01*
X17368623Y10651005D01*
X17369456Y10652671D01*
X17370012Y10654337D01*
X17370567Y10655447D01*
X17370845Y10656002D01*
Y10656280D01*
X17372234Y10660444D01*
X17373621Y10665164D01*
X17375565Y10674603D01*
X17376952Y10684597D01*
X17377785Y10694037D01*
X17378340Y10698201D01*
X17378618Y10702365D01*
Y10705974D01*
X17378896Y10709028D01*
Y10721521D01*
X17378618Y10727629D01*
X17378062Y10733181D01*
X17377509Y10738456D01*
X17376952Y10743176D01*
X17376398Y10747618D01*
X17375565Y10751782D01*
X17374731Y10755391D01*
X17373898Y10758445D01*
X17373343Y10761221D01*
X17372510Y10763720D01*
X17371954Y10765663D01*
X17371400Y10767051D01*
X17370845Y10768162D01*
X17370567Y10768717D01*
Y10768994D01*
X17367236Y10775657D01*
X17363626Y10781487D01*
X17359462Y10786485D01*
X17355853Y10790649D01*
X17352245Y10793703D01*
X17349467Y10795924D01*
X17348357Y10796757D01*
X17347523Y10797312D01*
X17347247Y10797867D01*
X17346970D01*
X17341139Y10801199D01*
X17335309Y10803697D01*
X17329478Y10805641D01*
X17324203Y10806751D01*
X17319485Y10807584D01*
X17317542Y10807862D01*
X17316153D01*
X17314764Y10808139D01*
D02*
G37*
G36*
X17467178D02*
X17464680D01*
X17457185Y10807584D01*
X17450244Y10806473D01*
X17444414Y10804530D01*
X17439417Y10802587D01*
X17435252Y10800366D01*
X17433588Y10799533D01*
X17432199Y10798422D01*
X17431088Y10797867D01*
X17430257Y10797312D01*
X17429977Y10796757D01*
X17429700D01*
X17424702Y10792315D01*
X17420538Y10787040D01*
X17416930Y10781765D01*
X17414154Y10776768D01*
X17411932Y10772048D01*
X17410822Y10770105D01*
X17410268Y10768162D01*
X17409712Y10766773D01*
X17409155Y10765663D01*
X17408879Y10765108D01*
Y10764830D01*
X17407768Y10760666D01*
X17406657Y10756501D01*
X17404993Y10747340D01*
X17403604Y10738178D01*
X17402771Y10729572D01*
X17402493Y10725408D01*
X17402216Y10721799D01*
Y10718467D01*
X17401938Y10715413D01*
Y10709861D01*
X17402216Y10700144D01*
X17402771Y10690983D01*
X17403604Y10682654D01*
X17404993Y10674881D01*
X17406380Y10667662D01*
X17408046Y10661277D01*
X17409712Y10655447D01*
X17411377Y10650450D01*
X17413043Y10646008D01*
X17414987Y10642121D01*
X17416376Y10638790D01*
X17417763Y10636291D01*
X17419151Y10634070D01*
X17419984Y10632682D01*
X17420538Y10631849D01*
X17420818Y10631572D01*
X17423869Y10628240D01*
X17427202Y10625186D01*
X17430811Y10622410D01*
X17434419Y10620189D01*
X17438029Y10618246D01*
X17441638Y10616580D01*
X17445247Y10615469D01*
X17448579Y10614359D01*
X17451910Y10613526D01*
X17454964Y10612971D01*
X17457739Y10612416D01*
X17459961Y10612138D01*
X17461905Y10611860D01*
X17464680D01*
X17472177Y10612416D01*
X17479117Y10613526D01*
X17484947Y10615469D01*
X17489944Y10617413D01*
X17494109Y10619356D01*
X17495497Y10620467D01*
X17496886Y10621300D01*
X17497995Y10621855D01*
X17498828Y10622410D01*
X17499106Y10622965D01*
X17499384D01*
X17504381Y10627685D01*
X17508545Y10632682D01*
X17512154Y10638235D01*
X17514931Y10643232D01*
X17517151Y10647951D01*
X17518262Y10649895D01*
X17518817Y10651838D01*
X17519373Y10653226D01*
X17519928Y10654337D01*
X17520206Y10654892D01*
Y10655169D01*
X17521593Y10659334D01*
X17522704Y10663498D01*
X17524370Y10672382D01*
X17525758Y10681544D01*
X17526591Y10690427D01*
X17526868Y10694314D01*
X17527145Y10697923D01*
Y10701255D01*
X17527423Y10704309D01*
Y10715136D01*
X17527145Y10720133D01*
Y10724575D01*
X17526868Y10729017D01*
X17526312Y10732904D01*
X17526035Y10736790D01*
X17525758Y10740122D01*
X17525201Y10743176D01*
X17524925Y10745952D01*
X17524370Y10748450D01*
X17524092Y10750394D01*
X17523814Y10752060D01*
X17523537Y10753448D01*
X17523259Y10754280D01*
X17522981Y10754836D01*
Y10755113D01*
X17521317Y10761221D01*
X17519373Y10766773D01*
X17517151Y10771493D01*
X17515486Y10775657D01*
X17513542Y10779266D01*
X17512431Y10781765D01*
X17511320Y10783153D01*
X17511044Y10783708D01*
X17507990Y10787873D01*
X17504936Y10791482D01*
X17501605Y10794536D01*
X17498550Y10797312D01*
X17495775Y10799255D01*
X17493555Y10800643D01*
X17492165Y10801476D01*
X17491888Y10801754D01*
X17491611D01*
X17487167Y10803975D01*
X17482449Y10805363D01*
X17478008Y10806473D01*
X17473842Y10807306D01*
X17470233Y10807862D01*
X17467178Y10808139D01*
D02*
G37*
%LPD*%
G36*
X17321428Y10788150D02*
X17326425Y10786762D01*
X17330867Y10784819D01*
X17334753Y10782876D01*
X17337808Y10780655D01*
X17340028Y10778711D01*
X17341417Y10777323D01*
X17341972Y10777046D01*
Y10776768D01*
X17345581Y10772048D01*
X17348357Y10766773D01*
X17350301Y10761221D01*
X17351411Y10755946D01*
X17352245Y10751504D01*
X17352522Y10749561D01*
Y10747618D01*
X17352798Y10746229D01*
Y10745119D01*
Y10744564D01*
Y10744286D01*
X17352245Y10737068D01*
X17351134Y10730683D01*
X17349467Y10725408D01*
X17347523Y10720966D01*
X17345303Y10717357D01*
X17343639Y10714858D01*
X17342526Y10713192D01*
X17341972Y10712637D01*
X17337808Y10708750D01*
X17333366Y10705974D01*
X17328925Y10704031D01*
X17324483Y10702643D01*
X17320872Y10701810D01*
X17317819Y10701532D01*
X17316708Y10701255D01*
X17315044D01*
X17309213Y10701810D01*
X17303938Y10702920D01*
X17299219Y10704864D01*
X17295055Y10707085D01*
X17292000Y10709028D01*
X17289500Y10710971D01*
X17288113Y10712082D01*
X17287558Y10712637D01*
X17283949Y10717079D01*
X17281174Y10722076D01*
X17279507Y10727074D01*
X17278119Y10731793D01*
X17277286Y10735957D01*
X17277008Y10737623D01*
Y10739289D01*
X17276730Y10740677D01*
Y10741510D01*
Y10742065D01*
Y10742343D01*
X17277286Y10749561D01*
X17278397Y10756224D01*
X17280341Y10762054D01*
X17282561Y10766773D01*
X17284505Y10770660D01*
X17286449Y10773436D01*
X17287003Y10774269D01*
X17287558Y10775102D01*
X17288113Y10775380D01*
Y10775657D01*
X17290334Y10777878D01*
X17292555Y10780099D01*
X17297275Y10783153D01*
X17301994Y10785652D01*
X17306436Y10787040D01*
X17310045Y10788150D01*
X17313100Y10788428D01*
X17314211Y10788706D01*
X17318652D01*
X17321428Y10788150D01*
D02*
G37*
G36*
X17467458Y10788428D02*
X17470511Y10788150D01*
X17473286Y10787318D01*
X17475786Y10786207D01*
X17480505Y10783708D01*
X17484669Y10780932D01*
X17487723Y10777878D01*
X17490222Y10775380D01*
X17491055Y10774269D01*
X17491611Y10773436D01*
X17492165Y10773159D01*
Y10772881D01*
X17494109Y10769550D01*
X17495775Y10765663D01*
X17497440Y10761221D01*
X17498550Y10756501D01*
X17499661Y10751504D01*
X17500494Y10746229D01*
X17501881Y10735680D01*
X17502437Y10730405D01*
X17502715Y10725685D01*
X17502992Y10721243D01*
Y10717634D01*
X17503270Y10714303D01*
Y10711804D01*
Y10710416D01*
Y10710139D01*
Y10709861D01*
Y10701255D01*
X17502715Y10693481D01*
X17502161Y10686541D01*
X17501605Y10679878D01*
X17500772Y10674325D01*
X17499661Y10669051D01*
X17498550Y10664609D01*
X17497717Y10660444D01*
X17496606Y10657113D01*
X17495497Y10654337D01*
X17494664Y10651838D01*
X17493555Y10649895D01*
X17492998Y10648507D01*
X17492442Y10647674D01*
X17491888Y10647118D01*
Y10646841D01*
X17489667Y10644065D01*
X17487447Y10641844D01*
X17485225Y10639623D01*
X17483005Y10637957D01*
X17478284Y10635181D01*
X17474120Y10633237D01*
X17470233Y10632127D01*
X17467458Y10631572D01*
X17466347Y10631294D01*
X17464680D01*
X17461627Y10631572D01*
X17458852Y10631849D01*
X17453577Y10633793D01*
X17448856Y10636291D01*
X17444691Y10639067D01*
X17441638Y10641844D01*
X17439140Y10644342D01*
X17437752Y10646286D01*
X17437196Y10646563D01*
Y10646841D01*
X17435252Y10650172D01*
X17433588Y10654059D01*
X17431921Y10658501D01*
X17430811Y10663220D01*
X17429700Y10668218D01*
X17428868Y10673492D01*
X17427480Y10684320D01*
X17426924Y10689317D01*
X17426646Y10694037D01*
X17426369Y10698478D01*
Y10702088D01*
X17426091Y10705419D01*
Y10707918D01*
Y10709306D01*
Y10709861D01*
X17426369Y10718467D01*
X17426646Y10726241D01*
X17427202Y10733459D01*
X17428035Y10740122D01*
X17428868Y10745952D01*
X17429977Y10751227D01*
X17431088Y10755946D01*
X17432199Y10760111D01*
X17433310Y10763720D01*
X17434142Y10766773D01*
X17435252Y10769272D01*
X17436086Y10771493D01*
X17436919Y10772881D01*
X17437474Y10773992D01*
X17438029Y10774547D01*
Y10774825D01*
X17439972Y10777323D01*
X17441916Y10779544D01*
X17444138Y10781210D01*
X17446358Y10782876D01*
X17450800Y10785374D01*
X17454964Y10787040D01*
X17458572Y10787873D01*
X17461627Y10788428D01*
X17462737Y10788706D01*
X17464403D01*
X17467458Y10788428D01*
D02*
G37*
%LPC*%
G36*
X16194359Y13728316D02*
D01*
Y13552304D01*
X16386473D01*
Y13653358D01*
X16194359Y13728316D01*
D02*
G37*
G36*
X16386473Y13537312D02*
X16330263D01*
X16363708D01*
Y13442644D01*
X16358989Y13445975D01*
X16357047Y13447639D01*
X16355103Y13449028D01*
X16353436Y13450417D01*
X16352325Y13451527D01*
X16351492Y13452361D01*
X16351215Y13452638D01*
X16349828Y13454025D01*
X16348439Y13455692D01*
X16344830Y13459578D01*
X16340666Y13464020D01*
X16336501Y13468739D01*
X16332892Y13473183D01*
X16331227Y13475125D01*
X16329561Y13476791D01*
X16328450Y13478178D01*
X16327618Y13479289D01*
X16327061Y13479845D01*
X16326785Y13480122D01*
X16322897Y13484564D01*
X16319289Y13489006D01*
X16315680Y13492892D01*
X16312627Y13496503D01*
X16309572Y13499834D01*
X16306796Y13502609D01*
X16304297Y13505386D01*
X16302077Y13507607D01*
X16299855Y13509828D01*
X16298190Y13511493D01*
X16296802Y13512881D01*
X16295413Y13514270D01*
X16293748Y13515659D01*
X16293192Y13516212D01*
X16288474Y13520100D01*
X16284309Y13523431D01*
X16280144Y13526207D01*
X16276813Y13528429D01*
X16273759Y13530093D01*
X16271538Y13531206D01*
X16270151Y13531760D01*
X16269595Y13532037D01*
X16265430Y13533704D01*
X16261266Y13534814D01*
X16257379Y13535924D01*
X16254048Y13536479D01*
X16250993Y13536757D01*
X16248773Y13537035D01*
X16247385D01*
X16246831D01*
X16242665Y13536757D01*
X16238779Y13536201D01*
X16234892Y13535648D01*
X16231560Y13534537D01*
X16224896Y13531760D01*
X16219623Y13528984D01*
X16217123Y13527318D01*
X16215181Y13525929D01*
X16213237Y13524542D01*
X16211848Y13523154D01*
X16210739Y13522043D01*
X16209628Y13521487D01*
X16209351Y13520934D01*
X16209073Y13520654D01*
X16206297Y13517601D01*
X16203798Y13514270D01*
X16201855Y13510661D01*
X16200189Y13507051D01*
X16197414Y13499834D01*
X16195470Y13492615D01*
X16194914Y13489561D01*
X16194359Y13486507D01*
X16194081Y13483731D01*
X16193803Y13481509D01*
X16193526Y13479567D01*
Y13476791D01*
X16193803Y13471793D01*
X16194081Y13467075D01*
X16194914Y13462633D01*
X16195747Y13458469D01*
X16196858Y13454581D01*
X16197968Y13450972D01*
X16199356Y13447639D01*
X16200745Y13444588D01*
X16202132Y13441811D01*
X16203522Y13439589D01*
X16204631Y13437646D01*
X16205742Y13435980D01*
X16206573Y13434592D01*
X16207407Y13433759D01*
X16207684Y13433205D01*
X16207964Y13432925D01*
X16210739Y13430150D01*
X16213792Y13427652D01*
X16217123Y13425153D01*
X16220454Y13423210D01*
X16227118Y13419878D01*
X16233781Y13417657D01*
X16236835Y13416824D01*
X16239890Y13415991D01*
X16242387Y13415436D01*
X16244609Y13414880D01*
X16246552Y13414603D01*
X16247940D01*
X16248773Y13414326D01*
X16249051D01*
X16251549Y13438480D01*
X16245164Y13439034D01*
X16239610Y13440144D01*
X16234615Y13441811D01*
X16230728Y13443755D01*
X16227396Y13445419D01*
X16225175Y13447086D01*
X16223787Y13448196D01*
X16223232Y13448750D01*
X16219901Y13452914D01*
X16217403Y13457356D01*
X16215459Y13462077D01*
X16214348Y13466241D01*
X16213515Y13470128D01*
X16213237Y13473459D01*
X16212959Y13474570D01*
Y13476234D01*
X16213237Y13482065D01*
X16214348Y13487340D01*
X16216014Y13491782D01*
X16217679Y13495670D01*
X16219623Y13498723D01*
X16221011Y13500665D01*
X16222121Y13502054D01*
X16222676Y13502609D01*
X16226562Y13505940D01*
X16230450Y13508440D01*
X16234337Y13510384D01*
X16238223Y13511493D01*
X16241277Y13512326D01*
X16244054Y13512604D01*
X16245718Y13512881D01*
X16245998D01*
X16246274D01*
X16251273Y13512326D01*
X16256546Y13511217D01*
X16261266Y13509271D01*
X16265707Y13507329D01*
X16269318Y13505109D01*
X16272371Y13503165D01*
X16273482Y13502609D01*
X16274313Y13502054D01*
X16274593Y13501498D01*
X16274869D01*
X16277924Y13499278D01*
X16280977Y13496503D01*
X16284309Y13493448D01*
X16287640Y13490117D01*
X16294302Y13483176D01*
X16300966Y13476234D01*
X16304021Y13472626D01*
X16306796Y13469572D01*
X16309296Y13466519D01*
X16311516Y13464020D01*
X16313181Y13462077D01*
X16314569Y13460411D01*
X16315402Y13459300D01*
X16315680Y13459023D01*
X16321510Y13452081D01*
X16327061Y13445697D01*
X16332060Y13440422D01*
X16336224Y13436258D01*
X16339833Y13432649D01*
X16342332Y13430150D01*
X16343997Y13428761D01*
X16344275Y13428207D01*
X16344553D01*
X16349272Y13424319D01*
X16353714Y13421266D01*
X16358156Y13418491D01*
X16362044Y13416269D01*
X16365375Y13414603D01*
X16367873Y13413493D01*
X16369539Y13412938D01*
X16369817Y13412660D01*
X16370094D01*
X16373148Y13411549D01*
X16375925Y13410994D01*
X16378700Y13410439D01*
X16381200Y13410161D01*
X16383420Y13409885D01*
X16193526D01*
D01*
X16386473D01*
Y13537312D01*
D02*
G37*
G36*
Y13352695D02*
X16193526D01*
Y13337424D01*
X16198245Y13334648D01*
X16202689Y13331593D01*
X16207130Y13327985D01*
X16211015Y13324654D01*
X16214348Y13321323D01*
X16217123Y13318823D01*
X16217957Y13317712D01*
X16218790Y13316879D01*
X16219067Y13316603D01*
X16219345Y13316325D01*
X16224065Y13310495D01*
X16228506Y13304665D01*
X16232393Y13299113D01*
X16235448Y13293559D01*
X16238223Y13288841D01*
X16239334Y13286897D01*
X16240167Y13285231D01*
X16241000Y13283842D01*
X16241277Y13282733D01*
X16241832Y13282178D01*
Y13281900D01*
X16193526D01*
D01*
X16386473D01*
X16264597D01*
X16262932Y13286064D01*
X16260988Y13290228D01*
X16259045Y13294392D01*
X16257101Y13298280D01*
X16255437Y13301611D01*
X16254048Y13304387D01*
X16252937Y13306053D01*
X16252660Y13306331D01*
Y13306609D01*
X16249606Y13311606D01*
X16246552Y13316048D01*
X16243776Y13319934D01*
X16241277Y13322987D01*
X16239334Y13325764D01*
X16237668Y13327431D01*
X16236559Y13328818D01*
X16236279Y13329095D01*
X16386473D01*
Y13352695D01*
D02*
G37*
G36*
X16328728Y13244699D02*
X16305130D01*
Y13171684D01*
X16328728D01*
Y13244699D01*
D02*
G37*
%LPD*%
G36*
X16334003Y13650304D02*
X16339833Y13648083D01*
X16345386Y13646140D01*
X16350661Y13644473D01*
X16355380Y13643086D01*
X16359544Y13641698D01*
X16362598Y13640865D01*
X16363708Y13640588D01*
X16364542Y13640311D01*
X16365097Y13640031D01*
X16365375D01*
X16354269Y13636700D01*
X16348994Y13635036D01*
X16344275Y13633369D01*
X16340111Y13631981D01*
X16338445Y13631425D01*
X16336778Y13631149D01*
X16335669Y13630592D01*
X16334836Y13630316D01*
X16334280Y13630038D01*
X16334003D01*
X16194359Y13580066D01*
Y13702496D01*
X16334003Y13650304D01*
D02*
G37*
G36*
X16386473Y13552304D02*
X16194359D01*
X16386473Y13626707D01*
Y13552304D01*
D02*
G37*
%LPC*%
G36*
X17257713Y8808139D02*
X17242445D01*
X17239668Y8803420D01*
X17236613Y8798978D01*
X17233005Y8794536D01*
X17229674Y8790649D01*
X17226341Y8787318D01*
X17223843Y8784541D01*
X17222733Y8783709D01*
X17221901Y8782876D01*
X17221623Y8782598D01*
X17221346Y8782321D01*
X17215515Y8777601D01*
X17209685Y8773159D01*
X17204134Y8769272D01*
X17198579Y8766218D01*
X17193861Y8763442D01*
X17191917Y8762332D01*
X17190253Y8761499D01*
X17188864Y8760666D01*
X17187753Y8760388D01*
X17187198Y8759833D01*
X17186920D01*
Y8737068D01*
X17191084Y8738734D01*
X17195248Y8740677D01*
X17199413Y8742621D01*
X17203300Y8744564D01*
X17206631Y8746230D01*
X17209409Y8747618D01*
X17211073Y8748728D01*
X17211351Y8749006D01*
X17211629D01*
X17216626Y8752060D01*
X17221068Y8755114D01*
X17224954Y8757890D01*
X17228008Y8760388D01*
X17230785Y8762332D01*
X17232449Y8763997D01*
X17233838Y8765108D01*
X17234116Y8765386D01*
Y8615192D01*
X17257713D01*
Y8808139D01*
D02*
G37*
G36*
X17532837D02*
X17530339D01*
X17522842Y8807584D01*
X17515903Y8806474D01*
X17510072Y8804530D01*
X17505075Y8802587D01*
X17500911Y8800366D01*
X17499245Y8799533D01*
X17497858Y8798423D01*
X17496745Y8797867D01*
X17495914Y8797312D01*
X17495636Y8796757D01*
X17495358D01*
X17490361Y8792315D01*
X17486197Y8787040D01*
X17482588Y8781765D01*
X17479811Y8776768D01*
X17477589Y8772048D01*
X17476480Y8770105D01*
X17475925Y8768162D01*
X17475369Y8766774D01*
X17474814Y8765663D01*
X17474538Y8765108D01*
Y8764830D01*
X17473425Y8760666D01*
X17472316Y8756502D01*
X17470650Y8747340D01*
X17469263Y8738179D01*
X17468430Y8729572D01*
X17468150Y8725408D01*
X17467874Y8721799D01*
Y8718467D01*
X17467596Y8715414D01*
Y8709861D01*
X17467874Y8700144D01*
X17468430Y8690983D01*
X17469263Y8682654D01*
X17470650Y8674881D01*
X17472038Y8667663D01*
X17473705Y8661277D01*
X17475369Y8655447D01*
X17477036Y8650450D01*
X17478700Y8646008D01*
X17480644Y8642121D01*
X17482031Y8638790D01*
X17483420Y8636291D01*
X17484808Y8634070D01*
X17485641Y8632682D01*
X17486197Y8631849D01*
X17486475Y8631572D01*
X17489528Y8628240D01*
X17492860Y8625186D01*
X17496469Y8622410D01*
X17500078Y8620189D01*
X17503687Y8618246D01*
X17507297Y8616580D01*
X17510905Y8615470D01*
X17514236Y8614359D01*
X17517567Y8613526D01*
X17520622Y8612971D01*
X17523398Y8612416D01*
X17525620Y8612138D01*
X17527562Y8611861D01*
X17530339D01*
X17537834Y8612416D01*
X17544775Y8613526D01*
X17550604Y8615470D01*
X17555602Y8617413D01*
X17559767Y8619356D01*
X17561156Y8620467D01*
X17562543Y8621300D01*
X17563654Y8621855D01*
X17564487Y8622410D01*
X17564764Y8622965D01*
X17565041D01*
X17570039Y8627685D01*
X17574203Y8632682D01*
X17577812Y8638235D01*
X17580588Y8643232D01*
X17582809Y8647951D01*
X17583920Y8649895D01*
X17584476Y8651838D01*
X17585030Y8653226D01*
X17585585Y8654337D01*
X17585863Y8654892D01*
Y8655170D01*
X17587251Y8659334D01*
X17588362Y8663498D01*
X17590027Y8672382D01*
X17591415Y8681544D01*
X17592249Y8690428D01*
X17592526Y8694314D01*
X17592804Y8697923D01*
Y8701255D01*
X17593082Y8704309D01*
Y8715136D01*
X17592804Y8720133D01*
Y8724575D01*
X17592526Y8729017D01*
X17591971Y8732904D01*
X17591693Y8736791D01*
X17591415Y8740122D01*
X17590860Y8743176D01*
X17590582Y8745952D01*
X17590027Y8748451D01*
X17589751Y8750394D01*
X17589471Y8752060D01*
X17589194Y8753448D01*
X17588918Y8754281D01*
X17588638Y8754836D01*
Y8755114D01*
X17586974Y8761221D01*
X17585030Y8766774D01*
X17582809Y8771493D01*
X17581143Y8775658D01*
X17579201Y8779267D01*
X17578090Y8781765D01*
X17576979Y8783153D01*
X17576701Y8783709D01*
X17573648Y8787873D01*
X17570593Y8791482D01*
X17567262Y8794536D01*
X17564207Y8797312D01*
X17561432Y8799255D01*
X17559212Y8800644D01*
X17557823Y8801476D01*
X17557545Y8801754D01*
X17557268D01*
X17552826Y8803975D01*
X17548106Y8805363D01*
X17543665Y8806474D01*
X17539500Y8807306D01*
X17535892Y8807862D01*
X17532837Y8808139D01*
D02*
G37*
G36*
X17383199D02*
X17380701D01*
X17376257Y8807862D01*
X17371815Y8807584D01*
X17364043Y8805918D01*
X17360434Y8804808D01*
X17357101Y8803697D01*
X17354050Y8802309D01*
X17351273Y8800921D01*
X17349051Y8799533D01*
X17346831Y8798145D01*
X17344887Y8797034D01*
X17343500Y8795924D01*
X17342387Y8795091D01*
X17341556Y8794258D01*
X17341000Y8793981D01*
X17340723Y8793703D01*
X17338223Y8790927D01*
X17335725Y8788151D01*
X17333781Y8785097D01*
X17332117Y8782043D01*
X17329340Y8776213D01*
X17327675Y8770660D01*
X17326564Y8765941D01*
X17326286Y8763720D01*
X17326009Y8762054D01*
X17325731Y8760388D01*
Y8759278D01*
Y8758723D01*
Y8758445D01*
X17326009Y8753448D01*
X17326842Y8748728D01*
X17327953Y8744564D01*
X17329340Y8740955D01*
X17330450Y8738179D01*
X17331561Y8735958D01*
X17332394Y8734847D01*
X17332672Y8734292D01*
X17335725Y8730960D01*
X17339056Y8727907D01*
X17342667Y8725130D01*
X17346275Y8722909D01*
X17349606Y8721244D01*
X17352106Y8720133D01*
X17353217Y8719578D01*
X17354050Y8719300D01*
X17354326Y8719023D01*
X17354604D01*
X17348219Y8717079D01*
X17342944Y8714581D01*
X17338223Y8711527D01*
X17334337Y8708751D01*
X17331284Y8705974D01*
X17329063Y8703753D01*
X17327953Y8702365D01*
X17327397Y8702088D01*
Y8701810D01*
X17324342Y8696813D01*
X17321844Y8691538D01*
X17320180Y8686541D01*
X17319067Y8681544D01*
X17318513Y8677102D01*
X17318234Y8675158D01*
Y8673493D01*
X17317958Y8672382D01*
Y8670439D01*
X17318234Y8665997D01*
X17318791Y8661555D01*
X17319623Y8657391D01*
X17320734Y8653226D01*
X17323511Y8646286D01*
X17324898Y8642954D01*
X17326564Y8640178D01*
X17328230Y8637402D01*
X17329617Y8635181D01*
X17331284Y8633237D01*
X17332394Y8631572D01*
X17333505Y8630184D01*
X17334337Y8629351D01*
X17334892Y8628796D01*
X17335170Y8628518D01*
X17338503Y8625464D01*
X17342111Y8622965D01*
X17345998Y8620745D01*
X17349884Y8618801D01*
X17353493Y8617413D01*
X17357381Y8616025D01*
X17364876Y8614082D01*
X17368207Y8613249D01*
X17371262Y8612693D01*
X17374037Y8612416D01*
X17376537Y8612138D01*
X17378479Y8611861D01*
X17381256D01*
X17386530Y8612138D01*
X17391251Y8612693D01*
X17395970Y8613526D01*
X17400410Y8614359D01*
X17404298Y8615747D01*
X17408185Y8617135D01*
X17411794Y8618524D01*
X17414848Y8620189D01*
X17417624Y8621855D01*
X17420123Y8623243D01*
X17422066Y8624631D01*
X17424010Y8626019D01*
X17425397Y8626852D01*
X17426230Y8627685D01*
X17426785Y8628240D01*
X17427063Y8628518D01*
X17430116Y8631849D01*
X17432893Y8635181D01*
X17435114Y8638512D01*
X17437057Y8642121D01*
X17439001Y8645453D01*
X17440388Y8649062D01*
X17442332Y8655447D01*
X17443166Y8658501D01*
X17443721Y8661277D01*
X17443999Y8663776D01*
X17444276Y8665719D01*
X17444553Y8667385D01*
Y8669884D01*
X17444276Y8676269D01*
X17443166Y8682099D01*
X17441499Y8687374D01*
X17439835Y8691816D01*
X17438168Y8695425D01*
X17436502Y8698201D01*
X17435393Y8699867D01*
X17435114Y8700144D01*
Y8700422D01*
X17431229Y8704864D01*
X17427063Y8708751D01*
X17422621Y8711805D01*
X17418457Y8714581D01*
X17414571Y8716524D01*
X17411240Y8717912D01*
X17410127Y8718467D01*
X17409296Y8718745D01*
X17408740Y8719023D01*
X17408463D01*
X17413460Y8721244D01*
X17417624Y8723742D01*
X17421233Y8726241D01*
X17424287Y8728739D01*
X17426508Y8730960D01*
X17428174Y8732626D01*
X17429285Y8733737D01*
X17429562Y8734292D01*
X17432060Y8738179D01*
X17433727Y8742065D01*
X17435114Y8745952D01*
X17435947Y8749839D01*
X17436502Y8752893D01*
X17436780Y8755391D01*
Y8757057D01*
Y8757335D01*
Y8757612D01*
X17436502Y8761499D01*
X17436224Y8765108D01*
X17434280Y8772048D01*
X17431783Y8778156D01*
X17429007Y8783431D01*
X17426230Y8787595D01*
X17424841Y8789261D01*
X17423732Y8790927D01*
X17422621Y8792037D01*
X17421788Y8792870D01*
X17421510Y8793148D01*
X17421233Y8793425D01*
X17418179Y8795924D01*
X17415125Y8798423D01*
X17411794Y8800366D01*
X17408463Y8802032D01*
X17401801Y8804530D01*
X17395137Y8806196D01*
X17392360Y8807029D01*
X17389584Y8807306D01*
X17387086Y8807584D01*
X17384865Y8807862D01*
X17383199Y8808139D01*
D02*
G37*
%LPD*%
G36*
X17533115Y8788428D02*
X17536169Y8788151D01*
X17538945Y8787318D01*
X17541443Y8786207D01*
X17546162Y8783709D01*
X17550327Y8780932D01*
X17553381Y8777879D01*
X17555881Y8775380D01*
X17556712Y8774269D01*
X17557268Y8773437D01*
X17557823Y8773159D01*
Y8772881D01*
X17559767Y8769550D01*
X17561432Y8765663D01*
X17563098Y8761221D01*
X17564207Y8756502D01*
X17565318Y8751504D01*
X17566151Y8746230D01*
X17567540Y8735680D01*
X17568095Y8730405D01*
X17568373Y8725686D01*
X17568649Y8721244D01*
Y8717635D01*
X17568929Y8714303D01*
Y8711805D01*
Y8710416D01*
Y8710139D01*
Y8709861D01*
Y8701255D01*
X17568373Y8693481D01*
X17567818Y8686541D01*
X17567262Y8679878D01*
X17566429Y8674326D01*
X17565318Y8669051D01*
X17564207Y8664609D01*
X17563376Y8660444D01*
X17562265Y8657113D01*
X17561156Y8654337D01*
X17560323Y8651838D01*
X17559212Y8649895D01*
X17558656Y8648507D01*
X17558101Y8647674D01*
X17557545Y8647119D01*
Y8646841D01*
X17555325Y8644065D01*
X17553104Y8641844D01*
X17550883Y8639623D01*
X17548662Y8637957D01*
X17543942Y8635181D01*
X17539778Y8633237D01*
X17535892Y8632127D01*
X17533115Y8631572D01*
X17532004Y8631294D01*
X17530339D01*
X17527284Y8631572D01*
X17524509Y8631849D01*
X17519234Y8633793D01*
X17514514Y8636291D01*
X17510350Y8639068D01*
X17507297Y8641844D01*
X17504797Y8644342D01*
X17503409Y8646286D01*
X17502853Y8646563D01*
Y8646841D01*
X17500911Y8650172D01*
X17499245Y8654059D01*
X17497578Y8658501D01*
X17496469Y8663221D01*
X17495358Y8668218D01*
X17494525Y8673493D01*
X17493137Y8684320D01*
X17492583Y8689317D01*
X17492303Y8694037D01*
X17492027Y8698479D01*
Y8702088D01*
X17491750Y8705419D01*
Y8707918D01*
Y8709306D01*
Y8709861D01*
X17492027Y8718467D01*
X17492303Y8726241D01*
X17492860Y8733459D01*
X17493692Y8740122D01*
X17494525Y8745952D01*
X17495636Y8751227D01*
X17496745Y8755946D01*
X17497858Y8760111D01*
X17498967Y8763720D01*
X17499800Y8766774D01*
X17500911Y8769272D01*
X17501744Y8771493D01*
X17502576Y8772881D01*
X17503133Y8773992D01*
X17503687Y8774547D01*
Y8774825D01*
X17505630Y8777323D01*
X17507574Y8779544D01*
X17509795Y8781210D01*
X17512016Y8782876D01*
X17516457Y8785374D01*
X17520622Y8787040D01*
X17524231Y8787873D01*
X17527284Y8788428D01*
X17528395Y8788706D01*
X17530061D01*
X17533115Y8788428D01*
D02*
G37*
G36*
X17385976D02*
X17390417Y8787318D01*
X17394026Y8785930D01*
X17397359Y8784264D01*
X17399857Y8782598D01*
X17401801Y8781210D01*
X17403188Y8780100D01*
X17403465Y8779822D01*
X17406519Y8776213D01*
X17408740Y8772604D01*
X17410406Y8768995D01*
X17411516Y8765663D01*
X17412073Y8762609D01*
X17412627Y8760111D01*
Y8758445D01*
Y8758167D01*
Y8757890D01*
X17412349Y8753448D01*
X17411240Y8749283D01*
X17409851Y8745674D01*
X17408185Y8742621D01*
X17406519Y8740122D01*
X17405132Y8738456D01*
X17404021Y8737068D01*
X17403743Y8736791D01*
X17400410Y8734014D01*
X17396526Y8731793D01*
X17392915Y8730405D01*
X17389307Y8729295D01*
X17385976Y8728739D01*
X17383476Y8728462D01*
X17381812Y8728184D01*
X17381256D01*
X17376257Y8728462D01*
X17371815Y8729572D01*
X17367931Y8730960D01*
X17364598Y8732626D01*
X17362100Y8734014D01*
X17360156Y8735402D01*
X17358768Y8736513D01*
X17358492Y8736791D01*
X17355714Y8740122D01*
X17353493Y8744009D01*
X17352106Y8747618D01*
X17350995Y8751227D01*
X17350439Y8754281D01*
X17350162Y8756779D01*
X17349884Y8758445D01*
Y8758723D01*
Y8759000D01*
X17350162Y8763442D01*
X17351273Y8767329D01*
X17352660Y8770938D01*
X17354326Y8773992D01*
X17355714Y8776490D01*
X17357101Y8778434D01*
X17358212Y8779544D01*
X17358492Y8779822D01*
X17362100Y8782876D01*
X17365709Y8785097D01*
X17369595Y8786485D01*
X17373206Y8787595D01*
X17376537Y8788151D01*
X17379034Y8788706D01*
X17381256D01*
X17385976Y8788428D01*
D02*
G37*
G36*
X17386530Y8708473D02*
X17392084Y8707363D01*
X17397079Y8705419D01*
X17401244Y8703476D01*
X17404576Y8701255D01*
X17407074Y8699312D01*
X17408463Y8698201D01*
X17409018Y8697646D01*
X17412904Y8693204D01*
X17415681Y8688484D01*
X17417624Y8683765D01*
X17419012Y8679600D01*
X17419846Y8675436D01*
X17420123Y8672382D01*
X17420399Y8671272D01*
Y8670439D01*
Y8669884D01*
Y8669606D01*
X17419846Y8663776D01*
X17418735Y8658223D01*
X17416791Y8653504D01*
X17414848Y8649617D01*
X17412904Y8646563D01*
X17410960Y8644065D01*
X17409851Y8642677D01*
X17409296Y8642121D01*
X17404852Y8638512D01*
X17400410Y8635736D01*
X17395692Y8634070D01*
X17391251Y8632682D01*
X17387363Y8631849D01*
X17384032Y8631572D01*
X17382921Y8631294D01*
X17381256D01*
X17377370Y8631572D01*
X17373482Y8632127D01*
X17369873Y8632960D01*
X17366818Y8633793D01*
X17364320Y8634626D01*
X17362376Y8635458D01*
X17361267Y8636014D01*
X17360712Y8636291D01*
X17357381Y8638512D01*
X17354604Y8640733D01*
X17352106Y8643232D01*
X17350162Y8645730D01*
X17348495Y8647674D01*
X17347386Y8649340D01*
X17346831Y8650728D01*
X17346553Y8651005D01*
X17345164Y8654614D01*
X17344054Y8657946D01*
X17343221Y8661277D01*
X17342667Y8664331D01*
X17342387Y8666830D01*
X17342111Y8668773D01*
Y8669884D01*
Y8670439D01*
X17342667Y8676269D01*
X17343777Y8681544D01*
X17345442Y8686263D01*
X17347662Y8690428D01*
X17349606Y8693481D01*
X17351273Y8695980D01*
X17352383Y8697368D01*
X17352937Y8697923D01*
X17357101Y8701533D01*
X17361823Y8704309D01*
X17366264Y8706252D01*
X17370706Y8707640D01*
X17374593Y8708473D01*
X17377646Y8708751D01*
X17378757Y8709028D01*
X17380423D01*
X17386530Y8708473D01*
D02*
G37*
%LPC*%
G36*
X13914392Y13663635D02*
Y13588678D01*
X13722276Y13663635D01*
Y13487624D01*
D01*
X13914392Y13562025D01*
Y13663635D01*
D02*
G37*
G36*
X13851927Y13475963D02*
X13849428D01*
D01*
X13724776D01*
X13849428D01*
X13844431Y13475687D01*
X13839711Y13475131D01*
X13834991Y13474298D01*
X13830827Y13473187D01*
X13826941Y13471799D01*
X13823055Y13470412D01*
X13819722Y13468745D01*
X13816669Y13467357D01*
X13813892Y13465691D01*
X13811394Y13464026D01*
X13809450Y13462637D01*
X13807507Y13461249D01*
X13806119Y13460139D01*
X13805286Y13459306D01*
X13804732Y13458751D01*
X13804453Y13458473D01*
X13801399Y13455142D01*
X13798624Y13451810D01*
X13796402Y13448201D01*
X13794460Y13444592D01*
X13792516Y13440984D01*
X13791127Y13437373D01*
X13789185Y13430711D01*
X13788351Y13427657D01*
X13787796Y13424881D01*
X13787518Y13422382D01*
X13787241Y13420161D01*
X13786963Y13418497D01*
Y13412389D01*
X13787518Y13409056D01*
X13788905Y13402394D01*
X13790849Y13396286D01*
X13793071Y13390733D01*
X13795293Y13386292D01*
X13796402Y13384348D01*
X13797235Y13382681D01*
X13798068Y13381294D01*
X13798624Y13380461D01*
X13798901Y13379906D01*
X13799178Y13379630D01*
X13747263Y13389902D01*
Y13466801D01*
X13724776D01*
Y13475963D01*
D01*
D01*
Y13348535D01*
D01*
Y13371300D01*
X13823608Y13352699D01*
X13826663Y13374908D01*
X13823608Y13376852D01*
X13821111Y13379350D01*
X13818613Y13381572D01*
X13816669Y13383794D01*
X13815280Y13386014D01*
X13813892Y13387680D01*
X13813338Y13388789D01*
X13813058Y13389069D01*
X13811394Y13392677D01*
X13810007Y13396286D01*
X13809174Y13399617D01*
X13808340Y13402950D01*
X13808063Y13405725D01*
X13807785Y13407945D01*
Y13413222D01*
X13808340Y13416553D01*
X13809727Y13422382D01*
X13811671Y13427380D01*
X13813615Y13431821D01*
X13815836Y13435153D01*
X13817780Y13437653D01*
X13819167Y13439040D01*
X13819444Y13439595D01*
X13819722D01*
X13824442Y13443481D01*
X13829439Y13446259D01*
X13834714Y13448201D01*
X13839989Y13449590D01*
X13844431Y13450423D01*
X13846375Y13450700D01*
X13848039D01*
X13849428Y13450977D01*
X13850539D01*
X13851094D01*
X13851370D01*
X13855258D01*
X13858867Y13450423D01*
X13865808Y13449034D01*
X13871638Y13447092D01*
X13876357Y13445148D01*
X13880244Y13442926D01*
X13883298Y13440984D01*
X13884131Y13440150D01*
X13884964Y13439595D01*
X13885242Y13439317D01*
X13885519Y13439040D01*
X13887740Y13436819D01*
X13889684Y13434598D01*
X13893015Y13429601D01*
X13895236Y13424881D01*
X13896625Y13420161D01*
X13897734Y13416275D01*
X13898012Y13412943D01*
X13898289Y13411833D01*
Y13410167D01*
X13898012Y13404892D01*
X13896901Y13400172D01*
X13895512Y13396008D01*
X13893848Y13392677D01*
X13892181Y13389622D01*
X13890794Y13387402D01*
X13889684Y13386292D01*
X13889406Y13385736D01*
X13885519Y13382405D01*
X13881355Y13379630D01*
X13876636Y13377408D01*
X13872472Y13375742D01*
X13868306Y13374631D01*
X13865253Y13373798D01*
X13863864Y13373521D01*
X13863031Y13373244D01*
X13862476D01*
X13862199D01*
X13864142Y13348535D01*
X13724776D01*
X13917723D01*
D01*
X13864142D01*
X13868584Y13349091D01*
X13872748Y13349924D01*
X13880522Y13352422D01*
X13887186Y13355475D01*
X13890237Y13357141D01*
X13892737Y13358807D01*
X13895236Y13360194D01*
X13897456Y13361861D01*
X13899123Y13363249D01*
X13900510Y13364638D01*
X13901620Y13365747D01*
X13902731Y13366302D01*
X13903009Y13366858D01*
X13903287Y13367136D01*
X13905785Y13370467D01*
X13908006Y13373798D01*
X13909950Y13377408D01*
X13911615Y13381017D01*
X13914114Y13387956D01*
X13915781Y13394897D01*
X13916612Y13397952D01*
X13916890Y13401006D01*
X13917168Y13403503D01*
X13917445Y13405725D01*
X13917723Y13407668D01*
Y13410167D01*
X13917445Y13415997D01*
X13916612Y13421548D01*
X13915501Y13426823D01*
X13914114Y13431544D01*
X13912170Y13435986D01*
X13910226Y13440150D01*
X13908284Y13444037D01*
X13906062Y13447368D01*
X13903842Y13450423D01*
X13901900Y13453198D01*
X13899678Y13455418D01*
X13898012Y13457362D01*
X13896625Y13458751D01*
X13895512Y13459862D01*
X13894679Y13460417D01*
X13894403Y13460693D01*
X13890794Y13463470D01*
X13886906Y13465691D01*
X13883298Y13467912D01*
X13879411Y13469579D01*
X13871915Y13472354D01*
X13864697Y13474020D01*
X13861642Y13474574D01*
X13858591Y13475131D01*
X13856091Y13475407D01*
X13853870Y13475687D01*
X13851927Y13475963D01*
D02*
G37*
G36*
X13856647Y13329379D02*
X13833047D01*
Y13256364D01*
X13856647D01*
Y13329379D01*
D02*
G37*
%LPD*%
G36*
X13861922Y13585625D02*
X13867751Y13583403D01*
X13873303Y13581461D01*
X13878578Y13579794D01*
X13883298Y13578406D01*
X13887462Y13577019D01*
X13890517Y13576186D01*
X13891628Y13575906D01*
X13892459Y13575630D01*
X13893015Y13575352D01*
X13893292D01*
X13882187Y13572021D01*
X13876913Y13570355D01*
X13872192Y13568689D01*
X13868028Y13567300D01*
X13866364Y13566747D01*
X13864697Y13566467D01*
X13863586Y13565913D01*
X13862753Y13565636D01*
X13862199Y13565358D01*
X13861922D01*
X13722276Y13515385D01*
Y13637817D01*
X13861922Y13585625D01*
D02*
G37*
%LPC*%
G36*
X17455241Y6804808D02*
X17330867D01*
Y6782043D01*
X17424982D01*
X17418318Y6773992D01*
X17411932Y6765385D01*
X17406380Y6757057D01*
X17401105Y6749006D01*
X17398885Y6745396D01*
X17396941Y6742065D01*
X17394998Y6739011D01*
X17393610Y6736513D01*
X17392499Y6734292D01*
X17391666Y6732903D01*
X17391112Y6731793D01*
X17390833Y6731515D01*
X17385281Y6720410D01*
X17380284Y6709306D01*
X17376118Y6698756D01*
X17374454Y6694036D01*
X17372787Y6689317D01*
X17371123Y6685152D01*
X17370012Y6681266D01*
X17368901Y6677934D01*
X17368068Y6675158D01*
X17367236Y6672660D01*
X17366679Y6670994D01*
X17366403Y6669883D01*
Y6669606D01*
X17363626Y6658223D01*
X17362515Y6652671D01*
X17361684Y6647674D01*
X17360851Y6642954D01*
X17360017Y6638234D01*
X17359462Y6634348D01*
X17358907Y6630461D01*
X17358629Y6627129D01*
X17358353Y6624076D01*
X17358073Y6621299D01*
Y6619078D01*
X17357796Y6617413D01*
Y6616302D01*
Y6615469D01*
Y6615192D01*
X17381949D01*
X17382782Y6625741D01*
X17384171Y6635458D01*
X17385559Y6644342D01*
X17386391Y6648506D01*
X17387224Y6652393D01*
X17387781Y6655725D01*
X17388612Y6658778D01*
X17389168Y6661555D01*
X17389723Y6663776D01*
X17390279Y6665441D01*
X17390556Y6666829D01*
X17390833Y6667662D01*
Y6667940D01*
X17394998Y6680711D01*
X17399440Y6692648D01*
X17401662Y6698478D01*
X17403882Y6704031D01*
X17406380Y6709028D01*
X17408601Y6714025D01*
X17410545Y6718467D01*
X17412488Y6722354D01*
X17414154Y6725685D01*
X17415543Y6728739D01*
X17416930Y6731238D01*
X17417763Y6732903D01*
X17418318Y6734014D01*
X17418596Y6734292D01*
X17421927Y6740122D01*
X17425259Y6745952D01*
X17428590Y6751227D01*
X17431921Y6756224D01*
X17434975Y6760666D01*
X17438029Y6765108D01*
X17441083Y6768994D01*
X17443582Y6772326D01*
X17446080Y6775657D01*
X17448302Y6778433D01*
X17450522Y6780654D01*
X17452188Y6782598D01*
X17453297Y6784264D01*
X17454408Y6785374D01*
X17454964Y6785929D01*
X17455241Y6786207D01*
Y6804808D01*
D02*
G37*
G36*
X17246191Y6808139D02*
X17243416D01*
X17238419Y6807861D01*
X17233699Y6807584D01*
X17229257Y6806751D01*
X17225093Y6805918D01*
X17221207Y6804808D01*
X17217596Y6803697D01*
X17214265Y6802309D01*
X17211212Y6800921D01*
X17208437Y6799533D01*
X17206215Y6798145D01*
X17204271Y6797034D01*
X17202606Y6795924D01*
X17201218Y6795091D01*
X17200385Y6794258D01*
X17199829Y6793980D01*
X17199551Y6793703D01*
X17196776Y6790926D01*
X17194276Y6787873D01*
X17191779Y6784541D01*
X17189835Y6781210D01*
X17186504Y6774547D01*
X17184283Y6767884D01*
X17183450Y6764830D01*
X17182617Y6761776D01*
X17182062Y6759278D01*
X17181506Y6757057D01*
X17181229Y6755113D01*
Y6753725D01*
X17180951Y6752892D01*
Y6752615D01*
X17205104Y6750116D01*
X17205659Y6756501D01*
X17206770Y6762054D01*
X17208437Y6767051D01*
X17210379Y6770938D01*
X17212045Y6774269D01*
X17213712Y6776490D01*
X17214821Y6777878D01*
X17215376Y6778433D01*
X17219540Y6781765D01*
X17223982Y6784264D01*
X17228702Y6786207D01*
X17232866Y6787317D01*
X17236752Y6788150D01*
X17240085Y6788428D01*
X17241196Y6788705D01*
X17242860D01*
X17248691Y6788428D01*
X17253966Y6787317D01*
X17258408Y6785652D01*
X17262294Y6783986D01*
X17265347Y6782043D01*
X17267291Y6780654D01*
X17268680Y6779544D01*
X17269235Y6778989D01*
X17272566Y6775102D01*
X17275066Y6771215D01*
X17277008Y6767329D01*
X17278119Y6763442D01*
X17278952Y6760388D01*
X17279230Y6757612D01*
X17279507Y6755946D01*
Y6755668D01*
Y6755391D01*
X17278952Y6750394D01*
X17277841Y6745119D01*
X17275899Y6740399D01*
X17273955Y6735957D01*
X17271735Y6732348D01*
X17269791Y6729294D01*
X17269235Y6728184D01*
X17268680Y6727351D01*
X17268124Y6727073D01*
Y6726796D01*
X17265903Y6723742D01*
X17263127Y6720688D01*
X17260072Y6717357D01*
X17256741Y6714025D01*
X17249802Y6707362D01*
X17242860Y6700699D01*
X17239252Y6697645D01*
X17236198Y6694869D01*
X17233144Y6692371D01*
X17230646Y6690150D01*
X17228702Y6688484D01*
X17227036Y6687096D01*
X17225926Y6686263D01*
X17225648Y6685985D01*
X17218707Y6680155D01*
X17212321Y6674603D01*
X17207048Y6669606D01*
X17202882Y6665441D01*
X17199274Y6661832D01*
X17196776Y6659334D01*
X17195387Y6657668D01*
X17194832Y6657390D01*
Y6657113D01*
X17190945Y6652393D01*
X17187892Y6647951D01*
X17185115Y6643509D01*
X17182895Y6639622D01*
X17181229Y6636291D01*
X17180118Y6633792D01*
X17179562Y6632127D01*
X17179285Y6631849D01*
Y6631571D01*
X17178175Y6628518D01*
X17177620Y6625741D01*
X17177065Y6622965D01*
X17176787Y6620467D01*
X17176509Y6618246D01*
Y6615192D01*
X17303938D01*
Y6637957D01*
X17209270D01*
X17212601Y6642676D01*
X17214265Y6644620D01*
X17215654Y6646563D01*
X17217043Y6648229D01*
X17218153Y6649339D01*
X17218985Y6650172D01*
X17219263Y6650450D01*
X17220651Y6651838D01*
X17222318Y6653226D01*
X17226204Y6656835D01*
X17230646Y6660999D01*
X17235365Y6665164D01*
X17239807Y6668773D01*
X17241750Y6670439D01*
X17243416Y6672104D01*
X17244804Y6673215D01*
X17245915Y6674048D01*
X17246471Y6674603D01*
X17246748Y6674880D01*
X17251190Y6678767D01*
X17255630Y6682376D01*
X17259518Y6685985D01*
X17263127Y6689039D01*
X17266460Y6692093D01*
X17269235Y6694869D01*
X17272011Y6697368D01*
X17274232Y6699589D01*
X17276453Y6701810D01*
X17278119Y6703476D01*
X17279507Y6704864D01*
X17280894Y6706252D01*
X17282283Y6707917D01*
X17282838Y6708473D01*
X17286725Y6713192D01*
X17290057Y6717357D01*
X17292833Y6721521D01*
X17295055Y6724852D01*
X17296719Y6727906D01*
X17297830Y6730127D01*
X17298386Y6731515D01*
X17298663Y6732071D01*
X17300330Y6736235D01*
X17301439Y6740399D01*
X17302550Y6744286D01*
X17303105Y6747617D01*
X17303381Y6750671D01*
X17303661Y6752892D01*
Y6754280D01*
Y6754836D01*
X17303381Y6759000D01*
X17302827Y6762887D01*
X17302272Y6766773D01*
X17301161Y6770105D01*
X17298386Y6776768D01*
X17295609Y6782043D01*
X17293942Y6784541D01*
X17292555Y6786485D01*
X17291167Y6788428D01*
X17289780Y6789816D01*
X17288667Y6790926D01*
X17288113Y6792037D01*
X17287558Y6792315D01*
X17287280Y6792592D01*
X17284227Y6795368D01*
X17280894Y6797867D01*
X17277286Y6799810D01*
X17273677Y6801476D01*
X17266460Y6804252D01*
X17259241Y6806196D01*
X17256187Y6806751D01*
X17253133Y6807306D01*
X17250357Y6807584D01*
X17248135Y6807861D01*
X17246191Y6808139D01*
D02*
G37*
G36*
X17543803D02*
X17541306D01*
X17533809Y6807584D01*
X17526868Y6806473D01*
X17521037Y6804530D01*
X17516042Y6802587D01*
X17511877Y6800366D01*
X17510211Y6799533D01*
X17508823Y6798422D01*
X17507712Y6797867D01*
X17506879Y6797312D01*
X17506602Y6796757D01*
X17506323D01*
X17501328Y6792315D01*
X17497163Y6787040D01*
X17493555Y6781765D01*
X17490778Y6776768D01*
X17488556Y6772048D01*
X17487447Y6770105D01*
X17486891Y6768161D01*
X17486336Y6766773D01*
X17485780Y6765663D01*
X17485503Y6765108D01*
Y6764830D01*
X17484392Y6760666D01*
X17483282Y6756501D01*
X17481616Y6747340D01*
X17480228Y6738178D01*
X17479395Y6729572D01*
X17479117Y6725408D01*
X17478841Y6721799D01*
Y6718467D01*
X17478561Y6715413D01*
Y6709861D01*
X17478841Y6700144D01*
X17479395Y6690983D01*
X17480228Y6682654D01*
X17481616Y6674880D01*
X17483005Y6667662D01*
X17484669Y6661277D01*
X17486336Y6655447D01*
X17488000Y6650450D01*
X17489667Y6646008D01*
X17491611Y6642121D01*
X17492998Y6638790D01*
X17494386Y6636291D01*
X17495775Y6634070D01*
X17496606Y6632682D01*
X17497163Y6631849D01*
X17497440Y6631571D01*
X17500494Y6628240D01*
X17503825Y6625186D01*
X17507436Y6622410D01*
X17511044Y6620189D01*
X17514653Y6618246D01*
X17518262Y6616580D01*
X17521870Y6615469D01*
X17525201Y6614359D01*
X17528534Y6613526D01*
X17531589Y6612971D01*
X17534364Y6612416D01*
X17536584Y6612138D01*
X17538528Y6611860D01*
X17541306D01*
X17548801Y6612416D01*
X17555740Y6613526D01*
X17561571Y6615469D01*
X17566568Y6617413D01*
X17570732Y6619356D01*
X17572121Y6620467D01*
X17573509Y6621299D01*
X17574619Y6621855D01*
X17575452Y6622410D01*
X17575729Y6622965D01*
X17576007D01*
X17581004Y6627685D01*
X17585168Y6632682D01*
X17588779Y6638234D01*
X17591554Y6643232D01*
X17593774Y6647951D01*
X17594885Y6649894D01*
X17595441Y6651838D01*
X17595996Y6653226D01*
X17596552Y6654336D01*
X17596829Y6654892D01*
Y6655169D01*
X17598216Y6659334D01*
X17599329Y6663498D01*
X17600993Y6672382D01*
X17602380Y6681543D01*
X17603214Y6690427D01*
X17603493Y6694314D01*
X17603769Y6697923D01*
Y6701255D01*
X17604047Y6704308D01*
Y6715136D01*
X17603769Y6720133D01*
Y6724575D01*
X17603493Y6729017D01*
X17602937Y6732903D01*
X17602660Y6736790D01*
X17602380Y6740122D01*
X17601826Y6743175D01*
X17601547Y6745952D01*
X17600993Y6748450D01*
X17600716Y6750394D01*
X17600438Y6752059D01*
X17600160Y6753448D01*
X17599883Y6754280D01*
X17599605Y6754836D01*
Y6755113D01*
X17597939Y6761221D01*
X17595996Y6766773D01*
X17593774Y6771493D01*
X17592110Y6775657D01*
X17590166Y6779266D01*
X17589055Y6781765D01*
X17587946Y6783153D01*
X17587666Y6783708D01*
X17584615Y6787873D01*
X17581560Y6791482D01*
X17578229Y6794536D01*
X17575174Y6797312D01*
X17572398Y6799255D01*
X17570177Y6800643D01*
X17568790Y6801476D01*
X17568510Y6801754D01*
X17568234D01*
X17563792Y6803975D01*
X17559071Y6805363D01*
X17554630Y6806473D01*
X17550465Y6807306D01*
X17546857Y6807861D01*
X17543803Y6808139D01*
D02*
G37*
%LPD*%
G36*
X17544081Y6788428D02*
X17547134Y6788150D01*
X17549911Y6787317D01*
X17552409Y6786207D01*
X17557129Y6783708D01*
X17561293Y6780932D01*
X17564346Y6777878D01*
X17566846Y6775380D01*
X17567679Y6774269D01*
X17568234Y6773436D01*
X17568790Y6773159D01*
Y6772881D01*
X17570732Y6769550D01*
X17572398Y6765663D01*
X17574065Y6761221D01*
X17575174Y6756501D01*
X17576285Y6751504D01*
X17577118Y6746229D01*
X17578506Y6735680D01*
X17579060Y6730405D01*
X17579340Y6725685D01*
X17579616Y6721243D01*
Y6717634D01*
X17579893Y6714303D01*
Y6711804D01*
Y6710416D01*
Y6710138D01*
Y6709861D01*
Y6701255D01*
X17579340Y6693481D01*
X17578783Y6686541D01*
X17578229Y6679878D01*
X17577396Y6674325D01*
X17576285Y6669050D01*
X17575174Y6664608D01*
X17574342Y6660444D01*
X17573232Y6657113D01*
X17572121Y6654336D01*
X17571288Y6651838D01*
X17570177Y6649894D01*
X17569621Y6648506D01*
X17569067Y6647674D01*
X17568510Y6647118D01*
Y6646841D01*
X17566290Y6644064D01*
X17564070Y6641843D01*
X17561848Y6639622D01*
X17559628Y6637957D01*
X17554909Y6635181D01*
X17550745Y6633237D01*
X17546857Y6632127D01*
X17544081Y6631571D01*
X17542970Y6631294D01*
X17541306D01*
X17538251Y6631571D01*
X17535474Y6631849D01*
X17530200Y6633792D01*
X17525481Y6636291D01*
X17521317Y6639067D01*
X17518262Y6641843D01*
X17515762Y6644342D01*
X17514375Y6646285D01*
X17513820Y6646563D01*
Y6646841D01*
X17511877Y6650172D01*
X17510211Y6654059D01*
X17508545Y6658501D01*
X17507436Y6663220D01*
X17506323Y6668218D01*
X17505492Y6673492D01*
X17504103Y6684320D01*
X17503548Y6689317D01*
X17503270Y6694036D01*
X17502992Y6698478D01*
Y6702087D01*
X17502715Y6705419D01*
Y6707917D01*
Y6709306D01*
Y6709861D01*
X17502992Y6718467D01*
X17503270Y6726241D01*
X17503825Y6733459D01*
X17504659Y6740122D01*
X17505492Y6745952D01*
X17506602Y6751227D01*
X17507712Y6755946D01*
X17508823Y6760110D01*
X17509933Y6763720D01*
X17510767Y6766773D01*
X17511877Y6769272D01*
X17512709Y6771493D01*
X17513542Y6772881D01*
X17514098Y6773992D01*
X17514653Y6774547D01*
Y6774824D01*
X17516595Y6777323D01*
X17518539Y6779544D01*
X17520760Y6781210D01*
X17522981Y6782875D01*
X17527423Y6785374D01*
X17531589Y6787040D01*
X17535197Y6787873D01*
X17538251Y6788428D01*
X17539362Y6788705D01*
X17541026D01*
X17544081Y6788428D01*
D02*
G37*
%LPC*%
G36*
X17392499Y12808139D02*
X17390001D01*
X17382504Y12807584D01*
X17375565Y12806474D01*
X17369734Y12804530D01*
X17364737Y12802586D01*
X17360573Y12800366D01*
X17358907Y12799533D01*
X17357520Y12798423D01*
X17356409Y12797867D01*
X17355576Y12797312D01*
X17355298Y12796757D01*
X17355020D01*
X17350023Y12792315D01*
X17345859Y12787040D01*
X17342250Y12781765D01*
X17339473Y12776768D01*
X17337251Y12772049D01*
X17336142Y12770105D01*
X17335587Y12768162D01*
X17335031Y12766774D01*
X17334476Y12765663D01*
X17334200Y12765108D01*
Y12764830D01*
X17333089Y12760666D01*
X17331978Y12756502D01*
X17330312Y12747340D01*
X17328925Y12738179D01*
X17328091Y12729572D01*
X17327814Y12725408D01*
X17327536Y12721799D01*
Y12718468D01*
X17327258Y12715414D01*
Y12709861D01*
X17327536Y12700145D01*
X17328091Y12690983D01*
X17328925Y12682654D01*
X17330312Y12674881D01*
X17331700Y12667663D01*
X17333366Y12661277D01*
X17335031Y12655447D01*
X17336697Y12650450D01*
X17338364Y12646008D01*
X17340306Y12642122D01*
X17341695Y12638790D01*
X17343082Y12636291D01*
X17344472Y12634070D01*
X17345303Y12632682D01*
X17345859Y12631850D01*
X17346136Y12631572D01*
X17349190Y12628240D01*
X17352522Y12625187D01*
X17356131Y12622410D01*
X17359740Y12620189D01*
X17363348Y12618246D01*
X17366959Y12616580D01*
X17370567Y12615470D01*
X17373898Y12614359D01*
X17377229Y12613526D01*
X17380284Y12612971D01*
X17383060Y12612416D01*
X17385281Y12612138D01*
X17387224Y12611861D01*
X17390001D01*
X17397496Y12612416D01*
X17404437Y12613526D01*
X17410268Y12615470D01*
X17415263Y12617413D01*
X17419427Y12619357D01*
X17420818Y12620467D01*
X17422205Y12621300D01*
X17423315Y12621855D01*
X17424149Y12622410D01*
X17424426Y12622966D01*
X17424702D01*
X17429700Y12627685D01*
X17433865Y12632682D01*
X17437474Y12638235D01*
X17440250Y12643232D01*
X17442471Y12647952D01*
X17443582Y12649895D01*
X17444138Y12651838D01*
X17444691Y12653226D01*
X17445247Y12654337D01*
X17445525Y12654892D01*
Y12655170D01*
X17446913Y12659334D01*
X17448024Y12663498D01*
X17449689Y12672382D01*
X17451077Y12681544D01*
X17451910Y12690428D01*
X17452188Y12694314D01*
X17452464Y12697924D01*
Y12701255D01*
X17452744Y12704309D01*
Y12715136D01*
X17452464Y12720133D01*
Y12724575D01*
X17452188Y12729017D01*
X17451633Y12732904D01*
X17451355Y12736791D01*
X17451077Y12740122D01*
X17450522Y12743176D01*
X17450244Y12745952D01*
X17449689Y12748451D01*
X17449413Y12750394D01*
X17449133Y12752060D01*
X17448856Y12753448D01*
X17448579Y12754281D01*
X17448302Y12754836D01*
Y12755114D01*
X17446635Y12761221D01*
X17444691Y12766774D01*
X17442471Y12771493D01*
X17440805Y12775658D01*
X17438863Y12779267D01*
X17437752Y12781765D01*
X17436641Y12783154D01*
X17436363Y12783709D01*
X17433310Y12787873D01*
X17430257Y12791482D01*
X17426924Y12794536D01*
X17423869Y12797312D01*
X17421094Y12799256D01*
X17418874Y12800644D01*
X17417485Y12801477D01*
X17417207Y12801755D01*
X17416930D01*
X17412488Y12803975D01*
X17407768Y12805363D01*
X17403326Y12806474D01*
X17399162Y12807307D01*
X17395554Y12807861D01*
X17392499Y12808139D01*
D02*
G37*
%LPD*%
G36*
X17392776Y12788428D02*
X17395831Y12788151D01*
X17398607Y12787318D01*
X17401105Y12786207D01*
X17405824Y12783709D01*
X17409988Y12780933D01*
X17413043Y12777879D01*
X17415543Y12775380D01*
X17416376Y12774270D01*
X17416930Y12773437D01*
X17417485Y12773159D01*
Y12772881D01*
X17419427Y12769550D01*
X17421094Y12765663D01*
X17422760Y12761221D01*
X17423869Y12756502D01*
X17424982Y12751505D01*
X17425813Y12746230D01*
X17427202Y12735680D01*
X17427757Y12730405D01*
X17428035Y12725686D01*
X17428313Y12721244D01*
Y12717635D01*
X17428590Y12714303D01*
Y12711805D01*
Y12710417D01*
Y12710139D01*
Y12709861D01*
Y12701255D01*
X17428035Y12693482D01*
X17427480Y12686541D01*
X17426924Y12679878D01*
X17426091Y12674326D01*
X17424982Y12669051D01*
X17423869Y12664609D01*
X17423038Y12660445D01*
X17421927Y12657113D01*
X17420818Y12654337D01*
X17419984Y12651838D01*
X17418874Y12649895D01*
X17418318Y12648507D01*
X17417763Y12647674D01*
X17417207Y12647119D01*
Y12646841D01*
X17414987Y12644065D01*
X17412766Y12641844D01*
X17410545Y12639623D01*
X17408324Y12637957D01*
X17403604Y12635181D01*
X17399440Y12633238D01*
X17395554Y12632127D01*
X17392776Y12631572D01*
X17391666Y12631294D01*
X17390001D01*
X17386948Y12631572D01*
X17384171Y12631850D01*
X17378896Y12633793D01*
X17374176Y12636291D01*
X17370012Y12639068D01*
X17366959Y12641844D01*
X17364459Y12644343D01*
X17363071Y12646286D01*
X17362515Y12646563D01*
Y12646841D01*
X17360573Y12650173D01*
X17358907Y12654059D01*
X17357240Y12658501D01*
X17356131Y12663221D01*
X17355020Y12668218D01*
X17354187Y12673493D01*
X17352798Y12684320D01*
X17352245Y12689317D01*
X17351965Y12694037D01*
X17351689Y12698479D01*
Y12702088D01*
X17351411Y12705419D01*
Y12707918D01*
Y12709306D01*
Y12709861D01*
X17351689Y12718468D01*
X17351965Y12726241D01*
X17352522Y12733459D01*
X17353354Y12740122D01*
X17354187Y12745952D01*
X17355298Y12751227D01*
X17356409Y12755947D01*
X17357520Y12760111D01*
X17358629Y12763720D01*
X17359462Y12766774D01*
X17360573Y12769272D01*
X17361404Y12771493D01*
X17362238Y12772881D01*
X17362794Y12773992D01*
X17363348Y12774547D01*
Y12774825D01*
X17365292Y12777323D01*
X17367236Y12779544D01*
X17369456Y12781210D01*
X17371677Y12782876D01*
X17376118Y12785374D01*
X17380284Y12787040D01*
X17383893Y12787873D01*
X17386948Y12788428D01*
X17388057Y12788706D01*
X17389723D01*
X17392776Y12788428D01*
D02*
G37*
%LPC*%
G36*
X11802771Y11806057D02*
X11777230D01*
Y11613943D01*
X11802771D01*
Y11806057D01*
D02*
G37*
%LPD*%
D37*
X15185001Y10200000D02*
G03*
X15185001Y10200000I-12500J0D01*
G01*
Y6200000D02*
G03*
X15185001Y6200000I-12500J0D01*
G01*
Y8200000D02*
G03*
X15185001Y8200000I-12500J0D01*
G01*
Y12200000D02*
G03*
X15185001Y12200000I-12500J0D01*
G01*
X13197501Y6825000D02*
G03*
X13197501Y6825000I-12500J0D01*
G01*
X13177501Y10815000D02*
G03*
X13177501Y10815000I-12500J0D01*
G01*
D38*
X14648560Y9481090D02*
X14831441D01*
X14648560D02*
Y9818910D01*
X14831441D01*
Y9481090D02*
Y9818910D01*
X14868559D02*
X15051440D01*
Y9481090D02*
Y9818910D01*
X14868559Y9481090D02*
X15051440D01*
X14868559D02*
Y9818910D01*
X16428909Y9758560D02*
Y9941440D01*
X16091090Y9758560D02*
X16428909D01*
X16091090D02*
Y9941440D01*
X16428909D01*
X15448911Y9158560D02*
Y9341440D01*
X15111090Y9158560D02*
X15448911D01*
X15111090D02*
Y9341440D01*
X15448911D01*
X15111090Y10358560D02*
Y10541440D01*
X15448911D01*
Y10358560D02*
Y10541440D01*
X15111090Y10358560D02*
X15448911D01*
X14831441Y11481090D02*
Y11818910D01*
X14648560D02*
X14831441D01*
X14648560Y11481090D02*
Y11818910D01*
Y11481090D02*
X14831441D01*
Y7481090D02*
Y7818910D01*
X14648560D02*
X14831441D01*
X14648560Y7481090D02*
Y7818910D01*
Y7481090D02*
X14831441D01*
Y5481090D02*
Y5818910D01*
X14648560D02*
X14831441D01*
X14648560Y5481090D02*
Y5818910D01*
Y5481090D02*
X14831441D01*
X14868559Y11481090D02*
Y11818910D01*
Y11481090D02*
X15051440D01*
Y11818910D01*
X14868559D02*
X15051440D01*
X14868559Y7481090D02*
Y7818910D01*
Y7481090D02*
X15051440D01*
Y7818910D01*
X14868559D02*
X15051440D01*
X14868559Y5481090D02*
Y5818910D01*
Y5481090D02*
X15051440D01*
Y5818910D01*
X14868559D02*
X15051440D01*
X12968561Y6391090D02*
X13151440D01*
X12968561D02*
Y6728910D01*
X13151440D01*
Y6391090D02*
Y6728910D01*
X12968561Y7108910D02*
X13151440D01*
Y6771090D02*
Y7108910D01*
X12968561Y6771090D02*
X13151440D01*
X12968561D02*
Y7108910D01*
X13208562Y6201090D02*
X13391441D01*
X13208562D02*
Y6538910D01*
X13391441D01*
Y6201090D02*
Y6538910D01*
X13428560Y6201090D02*
X13611440D01*
X13428560D02*
Y6538910D01*
X13611440D01*
Y6201090D02*
Y6538910D01*
X13208562Y7301460D02*
X13391441D01*
Y6963640D02*
Y7301460D01*
X13208562Y6963640D02*
X13391441D01*
X13208562D02*
Y7301460D01*
X13428560D02*
X13611440D01*
Y6963640D02*
Y7301460D01*
X13428560Y6963640D02*
X13611440D01*
X13428560D02*
Y7301460D01*
X13958910Y6758560D02*
Y6941440D01*
X13621091Y6758560D02*
X13958910D01*
X13621091D02*
Y6941440D01*
X13958910D01*
Y6558560D02*
Y6741440D01*
X13621091Y6558560D02*
X13958910D01*
X13621091D02*
Y6741440D01*
X13958910D01*
X12768560Y6391090D02*
X12951440D01*
X12768560D02*
Y6728910D01*
X12951440D01*
Y6391090D02*
Y6728910D01*
X14871091Y12878560D02*
X15208910D01*
Y13061440D01*
X14871091D02*
X15208910D01*
X14871091Y12878560D02*
Y13061440D01*
X15371091Y12878560D02*
X15708910D01*
Y13061440D01*
X15371091D02*
X15708910D01*
X15371091Y12878560D02*
Y13061440D01*
X16091090Y11941440D02*
X16428909D01*
X16091090Y11758560D02*
Y11941440D01*
Y11758560D02*
X16428909D01*
Y11941440D01*
X15111090Y11341440D02*
X15448911D01*
X15111090Y11158560D02*
Y11341440D01*
Y11158560D02*
X15448911D01*
Y11341440D01*
X15111090Y12358560D02*
X15448911D01*
Y12541440D01*
X15111090D02*
X15448911D01*
X15111090Y12358560D02*
Y12541440D01*
X13601091Y10931440D02*
X13938911D01*
X13601091Y10748560D02*
Y10931440D01*
Y10748560D02*
X13938911D01*
Y10931440D01*
X15111090Y6358560D02*
X15448911D01*
Y6541440D01*
X15111090D02*
X15448911D01*
X15111090Y6358560D02*
Y6541440D01*
Y5341440D02*
X15448911D01*
X15111090Y5158560D02*
Y5341440D01*
Y5158560D02*
X15448911D01*
Y5341440D01*
X16091090Y5941440D02*
X16428909D01*
X16091090Y5758560D02*
Y5941440D01*
Y5758560D02*
X16428909D01*
Y5941440D01*
X15111090Y8358560D02*
X15448911D01*
Y8541440D01*
X15111090D02*
X15448911D01*
X15111090Y8358560D02*
Y8541440D01*
Y7341440D02*
X15448911D01*
X15111090Y7158560D02*
Y7341440D01*
Y7158560D02*
X15448911D01*
Y7341440D01*
X16091090Y7941440D02*
X16428909D01*
X16091090Y7758560D02*
Y7941440D01*
Y7758560D02*
X16428909D01*
Y7941440D01*
X13371442Y10191090D02*
Y10528910D01*
X13188560D02*
X13371442D01*
X13188560Y10191090D02*
Y10528910D01*
Y10191090D02*
X13371442D01*
X13591441D02*
Y10528910D01*
X13408562D02*
X13591441D01*
X13408562Y10191090D02*
Y10528910D01*
Y10191090D02*
X13591441D01*
X13601091Y10731440D02*
X13938911D01*
X13601091Y10548560D02*
Y10731440D01*
Y10548560D02*
X13938911D01*
Y10731440D01*
X13188560Y10953640D02*
Y11291460D01*
Y10953640D02*
X13371442D01*
Y11291460D01*
X13188560D02*
X13371442D01*
X13408562Y10953640D02*
Y11291460D01*
Y10953640D02*
X13591441D01*
Y11291460D01*
X13408562D02*
X13591441D01*
X12931441Y10381090D02*
Y10718910D01*
X12748561D02*
X12931441D01*
X12748561Y10381090D02*
Y10718910D01*
Y10381090D02*
X12931441D01*
X12948561Y10761090D02*
Y11098910D01*
Y10761090D02*
X13131441D01*
Y11098910D01*
X12948561D02*
X13131441D01*
Y10381090D02*
Y10718910D01*
X12948561D02*
X13131441D01*
X12948561Y10381090D02*
Y10718910D01*
Y10381090D02*
X13131441D01*
D39*
X15817500Y9400000D02*
X15862500D01*
X15817500Y9100000D02*
X15862500D01*
X16105000Y9225000D02*
Y9275000D01*
X16080000Y9250000D02*
X16130000D01*
X15807500Y10300000D02*
X15852499D01*
X15807500Y10600000D02*
X15852499D01*
X15564999Y10425000D02*
Y10475000D01*
X15539999Y10450000D02*
X15589999D01*
X13535001Y6600000D02*
X13560001D01*
Y6625000D01*
X13535001Y6900000D02*
X13560001D01*
Y6875000D02*
Y6900000D01*
X13260001Y6600000D02*
X13285001D01*
X13260001D02*
Y6625000D01*
Y6900000D02*
X13285001D01*
X13260001Y6875000D02*
Y6900000D01*
X16080000Y11250000D02*
X16130000D01*
X16105000Y11225000D02*
Y11275000D01*
X15817500Y11100000D02*
X15862500D01*
X15817500Y11400000D02*
X15862500D01*
X15539999Y12450000D02*
X15589999D01*
X15564999Y12425000D02*
Y12475000D01*
X15807500Y12600000D02*
X15852499D01*
X15807500Y12300000D02*
X15852499D01*
X13240001Y10865000D02*
Y10890000D01*
X13265001D01*
X13240001Y10590000D02*
Y10615000D01*
Y10590000D02*
X13265001D01*
X13540001Y10865000D02*
Y10890000D01*
X13515001D02*
X13540001D01*
Y10590000D02*
Y10615000D01*
X13515001Y10590000D02*
X13540001D01*
X15539999Y6450000D02*
X15589999D01*
X15564999Y6425000D02*
Y6475000D01*
X15807500Y6600000D02*
X15852499D01*
X15807500Y6300000D02*
X15852499D01*
X16080000Y5250000D02*
X16130000D01*
X16105000Y5225000D02*
Y5275000D01*
X15817500Y5100000D02*
X15862500D01*
X15817500Y5400000D02*
X15862500D01*
X15539999Y8450000D02*
X15589999D01*
X15564999Y8425000D02*
Y8475000D01*
X15807500Y8600000D02*
X15852499D01*
X15807500Y8300000D02*
X15852499D01*
X16080000Y7250000D02*
X16130000D01*
X16105000Y7225000D02*
Y7275000D01*
X15817500Y7100000D02*
X15862500D01*
X15817500Y7400000D02*
X15862500D01*
X14520000Y13880000D02*
X15770000D01*
X14520000Y13120000D02*
Y13880000D01*
Y13120000D02*
X16020000D01*
Y13530000D01*
X12070000Y13880000D02*
X13320000D01*
X12070000Y13120000D02*
Y13880000D01*
Y13120000D02*
X13570000D01*
Y13530000D01*
X12290000Y12889999D02*
X12340000D01*
X12315000Y12864999D02*
Y12914999D01*
X12557500Y13039999D02*
X12602500D01*
X12557500Y12740000D02*
X12602500D01*
X12830000Y12889999D02*
X12880000D01*
X12855000Y12864999D02*
Y12914999D01*
X13097501Y13039999D02*
X13142500D01*
X13097501Y12740000D02*
X13142500D01*
D40*
X12190001Y10367500D02*
Y11332500D01*
X10010001Y10367500D02*
X11585000D01*
X10010001Y11332500D02*
X11585000D01*
X10010001Y10367500D02*
Y11332500D01*
X9990001Y6367500D02*
Y7332500D01*
X11565000D01*
X9990001Y6367500D02*
X11565000D01*
X12170001D02*
Y7332500D01*
X19130000Y11367500D02*
Y12332500D01*
X17555000Y11367500D02*
X19130000D01*
X17555000Y12332500D02*
X19130000D01*
X16950002Y11367500D02*
Y12332500D01*
X19130000Y5367500D02*
Y6332500D01*
X17555000Y5367500D02*
X19130000D01*
X17555000Y6332500D02*
X19130000D01*
X16950002Y5367500D02*
Y6332500D01*
X19130000Y7367500D02*
Y8332500D01*
X17555000Y7367500D02*
X19130000D01*
X17555000Y8332500D02*
X19130000D01*
X16950002Y7367500D02*
Y8332500D01*
X19130000Y9367500D02*
Y10332500D01*
X17555000Y9367500D02*
X19130000D01*
X17555000Y10332500D02*
X19130000D01*
X16950002Y9367500D02*
Y10332500D01*
D41*
X14777489Y11848792D02*
X14702512D01*
Y11886280D01*
X14715009Y11898776D01*
X14739999D01*
X14752496Y11886280D01*
Y11848792D01*
Y11873784D02*
X14777489Y11898776D01*
Y11923768D02*
Y11948760D01*
Y11936264D01*
X14702512D01*
X14715009Y11923768D01*
X14777489Y12036232D02*
Y11986248D01*
X14727504Y12036232D01*
X14715009D01*
X14702512Y12023736D01*
Y11998744D01*
X14715009Y11986248D01*
X14777489Y12061224D02*
X14727504D01*
X14702512Y12086216D01*
X14727504Y12111208D01*
X14777489D01*
X14739999D01*
Y12061224D01*
X14777489Y9848793D02*
X14702512D01*
Y9886280D01*
X14715009Y9898776D01*
X14739999D01*
X14752496Y9886280D01*
Y9848793D01*
Y9873785D02*
X14777489Y9898776D01*
Y9923769D02*
Y9948761D01*
Y9936265D01*
X14702512D01*
X14715009Y9923769D01*
X14777489Y10036232D02*
Y9986249D01*
X14727504Y10036232D01*
X14715009D01*
X14702512Y10023736D01*
Y9998745D01*
X14715009Y9986249D01*
X14702512Y10061224D02*
X14777489D01*
Y10098712D01*
X14764992Y10111208D01*
X14752496D01*
X14739999Y10098712D01*
Y10061224D01*
Y10098712D01*
X14727504Y10111208D01*
X14715009D01*
X14702512Y10098712D01*
Y10061224D01*
X14777489Y7848793D02*
X14702512D01*
Y7886280D01*
X14715009Y7898776D01*
X14739999D01*
X14752496Y7886280D01*
Y7848793D01*
Y7873785D02*
X14777489Y7898776D01*
Y7923769D02*
Y7948761D01*
Y7936265D01*
X14702512D01*
X14715009Y7923769D01*
X14777489Y8036232D02*
Y7986248D01*
X14727504Y8036232D01*
X14715009D01*
X14702512Y8023736D01*
Y7998744D01*
X14715009Y7986248D01*
Y8111208D02*
X14702512Y8098712D01*
Y8073720D01*
X14715009Y8061224D01*
X14764992D01*
X14777489Y8073720D01*
Y8098712D01*
X14764992Y8111208D01*
X14777489Y5848792D02*
X14702512D01*
Y5886280D01*
X14715009Y5898776D01*
X14739999D01*
X14752496Y5886280D01*
Y5848792D01*
Y5873785D02*
X14777489Y5898776D01*
Y5923768D02*
Y5948761D01*
Y5936264D01*
X14702512D01*
X14715009Y5923768D01*
X14777489Y6036232D02*
Y5986248D01*
X14727504Y6036232D01*
X14715009D01*
X14702512Y6023736D01*
Y5998744D01*
X14715009Y5986248D01*
X14702512Y6061224D02*
X14777489D01*
Y6098712D01*
X14764992Y6111208D01*
X14715009D01*
X14702512Y6098712D01*
Y6061224D01*
X14997488Y11848792D02*
X14922511D01*
Y11886280D01*
X14935008Y11898776D01*
X14960001D01*
X14972496Y11886280D01*
Y11848792D01*
Y11873784D02*
X14997488Y11898776D01*
Y11923768D02*
Y11948760D01*
Y11936264D01*
X14922511D01*
X14935008Y11923768D01*
Y11986248D02*
X14922511Y11998744D01*
Y12023736D01*
X14935008Y12036232D01*
X14947504D01*
X14960001Y12023736D01*
Y12011240D01*
Y12023736D01*
X14972496Y12036232D01*
X14984991D01*
X14997488Y12023736D01*
Y11998744D01*
X14984991Y11986248D01*
X14997488Y12061224D02*
X14947504D01*
X14922511Y12086216D01*
X14947504Y12111208D01*
X14997488D01*
X14960001D01*
Y12061224D01*
X14997488Y9848793D02*
X14922511D01*
Y9886280D01*
X14935008Y9898776D01*
X14960001D01*
X14972496Y9886280D01*
Y9848793D01*
Y9873785D02*
X14997488Y9898776D01*
Y9923769D02*
Y9948761D01*
Y9936265D01*
X14922511D01*
X14935008Y9923769D01*
Y9986249D02*
X14922511Y9998745D01*
Y10023736D01*
X14935008Y10036232D01*
X14947504D01*
X14960001Y10023736D01*
Y10011241D01*
Y10023736D01*
X14972496Y10036232D01*
X14984991D01*
X14997488Y10023736D01*
Y9998745D01*
X14984991Y9986249D01*
X14922511Y10061224D02*
X14997488D01*
Y10098712D01*
X14984991Y10111208D01*
X14972496D01*
X14960001Y10098712D01*
Y10061224D01*
Y10098712D01*
X14947504Y10111208D01*
X14935008D01*
X14922511Y10098712D01*
Y10061224D01*
X14997488Y7848793D02*
X14922511D01*
Y7886280D01*
X14935008Y7898776D01*
X14960001D01*
X14972496Y7886280D01*
Y7848793D01*
Y7873785D02*
X14997488Y7898776D01*
Y7923769D02*
Y7948761D01*
Y7936265D01*
X14922511D01*
X14935008Y7923769D01*
Y7986248D02*
X14922511Y7998744D01*
Y8023736D01*
X14935008Y8036232D01*
X14947504D01*
X14960001Y8023736D01*
Y8011241D01*
Y8023736D01*
X14972496Y8036232D01*
X14984991D01*
X14997488Y8023736D01*
Y7998744D01*
X14984991Y7986248D01*
X14935008Y8111208D02*
X14922511Y8098712D01*
Y8073720D01*
X14935008Y8061224D01*
X14984991D01*
X14997488Y8073720D01*
Y8098712D01*
X14984991Y8111208D01*
X14997488Y5848792D02*
X14922511D01*
Y5886280D01*
X14935008Y5898776D01*
X14960001D01*
X14972496Y5886280D01*
Y5848792D01*
Y5873785D02*
X14997488Y5898776D01*
Y5923768D02*
Y5948761D01*
Y5936264D01*
X14922511D01*
X14935008Y5923768D01*
Y5986248D02*
X14922511Y5998744D01*
Y6023736D01*
X14935008Y6036232D01*
X14947504D01*
X14960001Y6023736D01*
Y6011240D01*
Y6023736D01*
X14972496Y6036232D01*
X14984991D01*
X14997488Y6023736D01*
Y5998744D01*
X14984991Y5986248D01*
X14922511Y6061224D02*
X14997488D01*
Y6098712D01*
X14984991Y6111208D01*
X14935008D01*
X14922511Y6098712D01*
Y6061224D01*
X16010033Y11627488D02*
Y11565008D01*
X16022528Y11552512D01*
X16047520D01*
X16060016Y11565008D01*
Y11627488D01*
X16085008Y11614992D02*
X16097504Y11627488D01*
X16122496D01*
X16134991Y11614992D01*
Y11602496D01*
X16122496Y11590000D01*
X16110001D01*
X16122496D01*
X16134991Y11577504D01*
Y11565008D01*
X16122496Y11552512D01*
X16097504D01*
X16085008Y11565008D01*
X16159984Y11552512D02*
Y11602496D01*
X16184976Y11627488D01*
X16209969Y11602496D01*
Y11552512D01*
Y11590000D01*
X16159984D01*
X16010033Y9627488D02*
Y9565008D01*
X16022528Y9552512D01*
X16047520D01*
X16060016Y9565008D01*
Y9627488D01*
X16085008Y9614992D02*
X16097504Y9627488D01*
X16122496D01*
X16134991Y9614992D01*
Y9602496D01*
X16122496Y9590000D01*
X16110001D01*
X16122496D01*
X16134991Y9577504D01*
Y9565008D01*
X16122496Y9552512D01*
X16097504D01*
X16085008Y9565008D01*
X16159984Y9627488D02*
Y9552512D01*
X16197472D01*
X16209969Y9565008D01*
Y9577504D01*
X16197472Y9590000D01*
X16159984D01*
X16197472D01*
X16209969Y9602496D01*
Y9614992D01*
X16197472Y9627488D01*
X16159984D01*
X16010033Y7627488D02*
Y7565008D01*
X16022528Y7552512D01*
X16047520D01*
X16060016Y7565008D01*
Y7627488D01*
X16085008Y7614992D02*
X16097504Y7627488D01*
X16122496D01*
X16134991Y7614992D01*
Y7602496D01*
X16122496Y7590000D01*
X16110001D01*
X16122496D01*
X16134991Y7577504D01*
Y7565008D01*
X16122496Y7552512D01*
X16097504D01*
X16085008Y7565008D01*
X16209969Y7614992D02*
X16197472Y7627488D01*
X16172479D01*
X16159984Y7614992D01*
Y7565008D01*
X16172479Y7552512D01*
X16197472D01*
X16209969Y7565008D01*
X16010033Y5627488D02*
Y5565008D01*
X16022528Y5552512D01*
X16047520D01*
X16060016Y5565008D01*
Y5627488D01*
X16085008Y5614992D02*
X16097504Y5627488D01*
X16122496D01*
X16134991Y5614992D01*
Y5602496D01*
X16122496Y5590000D01*
X16110001D01*
X16122496D01*
X16134991Y5577504D01*
Y5565008D01*
X16122496Y5552512D01*
X16097504D01*
X16085008Y5565008D01*
X16159984Y5627488D02*
Y5552512D01*
X16197472D01*
X16209969Y5565008D01*
Y5614992D01*
X16197472Y5627488D01*
X16159984D01*
X15766280Y12942513D02*
Y13017488D01*
X15803767D01*
X15816264Y13004993D01*
Y12980000D01*
X15803767Y12967503D01*
X15766280D01*
X15791272D02*
X15816264Y12942513D01*
X15841257D02*
X15866248D01*
X15853752D01*
Y13017488D01*
X15841257Y13004993D01*
X15903735D02*
X15916232Y13017488D01*
X15941225D01*
X15953720Y13004993D01*
Y12955008D01*
X15941225Y12942513D01*
X15916232D01*
X15903735Y12955008D01*
Y13004993D01*
X14687520Y12932512D02*
Y13007487D01*
X14725008D01*
X14737505Y12994992D01*
Y12970000D01*
X14725008Y12957504D01*
X14687520D01*
X14712512D02*
X14737505Y12932512D01*
X14762495Y12945007D02*
X14774992Y12932512D01*
X14799985D01*
X14812480Y12945007D01*
Y12994992D01*
X14799985Y13007487D01*
X14774992D01*
X14762495Y12994992D01*
Y12982497D01*
X14774992Y12970000D01*
X14812480D01*
X13662521Y6382363D02*
Y6319883D01*
X13675017Y6307387D01*
X13700008D01*
X13712505Y6319883D01*
Y6382363D01*
X13787480Y6307387D02*
X13737497D01*
X13787480Y6357371D01*
Y6369867D01*
X13774985Y6382363D01*
X13749992D01*
X13737497Y6369867D01*
X13016264Y6337542D02*
X13003769Y6350038D01*
X12978777D01*
X12966281Y6337542D01*
Y6287558D01*
X12978777Y6275062D01*
X13003769D01*
X13016264Y6287558D01*
X13041257Y6275062D02*
X13066249D01*
X13053754D01*
Y6350038D01*
X13041257Y6337542D01*
X13103737D02*
X13116232Y6350038D01*
X13141225D01*
X13153720Y6337542D01*
Y6287558D01*
X13141225Y6275062D01*
X13116232D01*
X13103737Y6287558D01*
Y6337542D01*
X12997520Y7152512D02*
Y7227488D01*
X13035008D01*
X13047505Y7214992D01*
Y7190000D01*
X13035008Y7177504D01*
X12997520D01*
X13022513D02*
X13047505Y7152512D01*
X13122479Y7227488D02*
X13097488Y7214992D01*
X13072498Y7190000D01*
Y7165008D01*
X13084993Y7152512D01*
X13109984D01*
X13122479Y7165008D01*
Y7177504D01*
X13109984Y7190000D01*
X13072498D01*
X13287505Y6147542D02*
X13275009Y6160038D01*
X13250017D01*
X13237521Y6147542D01*
Y6097558D01*
X13250017Y6085062D01*
X13275009D01*
X13287505Y6097558D01*
X13362482Y6160038D02*
X13337489Y6147542D01*
X13312497Y6122550D01*
Y6097558D01*
X13324992Y6085062D01*
X13349985D01*
X13362482Y6097558D01*
Y6110054D01*
X13349985Y6122550D01*
X13312497D01*
X13507504Y6147542D02*
X13495007Y6160038D01*
X13470016D01*
X13457520Y6147542D01*
Y6097558D01*
X13470016Y6085062D01*
X13495007D01*
X13507504Y6097558D01*
X13532497Y6160038D02*
X13582480D01*
Y6147542D01*
X13532497Y6097558D01*
Y6085062D01*
X13287505Y7407542D02*
X13275009Y7420038D01*
X13250017D01*
X13237521Y7407542D01*
Y7357558D01*
X13250017Y7345062D01*
X13275009D01*
X13287505Y7357558D01*
X13312497Y7407542D02*
X13324992Y7420038D01*
X13349985D01*
X13362482Y7407542D01*
Y7395046D01*
X13349985Y7382550D01*
X13362482Y7370054D01*
Y7357558D01*
X13349985Y7345062D01*
X13324992D01*
X13312497Y7357558D01*
Y7370054D01*
X13324992Y7382550D01*
X13312497Y7395046D01*
Y7407542D01*
X13324992Y7382550D02*
X13349985D01*
X13507504Y7407542D02*
X13495007Y7420038D01*
X13470016D01*
X13457520Y7407542D01*
Y7357558D01*
X13470016Y7345062D01*
X13495007D01*
X13507504Y7357558D01*
X13532497D02*
X13544992Y7345062D01*
X13569984D01*
X13582480Y7357558D01*
Y7407542D01*
X13569984Y7420038D01*
X13544992D01*
X13532497Y7407542D01*
Y7395046D01*
X13544992Y7382550D01*
X13582480D01*
X13727521Y6982512D02*
Y7057488D01*
X13765009D01*
X13777504Y7044992D01*
Y7020000D01*
X13765009Y7007504D01*
X13727521D01*
X13752513D02*
X13777504Y6982512D01*
X13852480Y7057488D02*
X13802496D01*
Y7020000D01*
X13827489Y7032496D01*
X13839984D01*
X13852480Y7020000D01*
Y6995008D01*
X13839984Y6982512D01*
X13814992D01*
X13802496Y6995008D01*
X13732520Y6447387D02*
Y6522363D01*
X13770007D01*
X13782504Y6509867D01*
Y6484875D01*
X13770007Y6472379D01*
X13732520D01*
X13757512D02*
X13782504Y6447387D01*
X13807497Y6522363D02*
X13857480D01*
Y6509867D01*
X13807497Y6459883D01*
Y6447387D01*
X12797521Y6272512D02*
Y6347488D01*
X12835008D01*
X12847504Y6334992D01*
Y6310000D01*
X12835008Y6297504D01*
X12797521D01*
X12822513D02*
X12847504Y6272512D01*
X12872496Y6334992D02*
X12884993Y6347488D01*
X12909984D01*
X12922479Y6334992D01*
Y6322496D01*
X12909984Y6310000D01*
X12922479Y6297504D01*
Y6285008D01*
X12909984Y6272512D01*
X12884993D01*
X12872496Y6285008D01*
Y6297504D01*
X12884993Y6310000D01*
X12872496Y6322496D01*
Y6334992D01*
X12884993Y6310000D02*
X12909984D01*
X16135040Y5982512D02*
Y6057488D01*
X16172528D01*
X16185023Y6044992D01*
Y6020000D01*
X16172528Y6007504D01*
X16135040D01*
X16160033D02*
X16185023Y5982512D01*
X16210016D02*
X16235008D01*
X16222511D01*
Y6057488D01*
X16210016Y6044992D01*
X16272496Y5982512D02*
X16297488D01*
X16284991D01*
Y6057488D01*
X16272496Y6044992D01*
X16334976Y6057488D02*
Y5982512D01*
X16372464D01*
X16384959Y5995008D01*
Y6044992D01*
X16372464Y6057488D01*
X16334976D01*
X16135040Y7982512D02*
Y8057488D01*
X16172528D01*
X16185023Y8044992D01*
Y8020000D01*
X16172528Y8007504D01*
X16135040D01*
X16160033D02*
X16185023Y7982512D01*
X16210016D02*
X16235008D01*
X16222511D01*
Y8057488D01*
X16210016Y8044992D01*
X16272496Y7982512D02*
X16297488D01*
X16284991D01*
Y8057488D01*
X16272496Y8044992D01*
X16384959D02*
X16372464Y8057488D01*
X16347472D01*
X16334976Y8044992D01*
Y7995008D01*
X16347472Y7982512D01*
X16372464D01*
X16384959Y7995008D01*
X16135040Y9982512D02*
Y10057488D01*
X16172528D01*
X16185023Y10044992D01*
Y10020000D01*
X16172528Y10007504D01*
X16135040D01*
X16160033D02*
X16185023Y9982512D01*
X16210016D02*
X16235008D01*
X16222511D01*
Y10057488D01*
X16210016Y10044992D01*
X16272496Y9982512D02*
X16297488D01*
X16284991D01*
Y10057488D01*
X16272496Y10044992D01*
X16334976Y10057488D02*
Y9982512D01*
X16372464D01*
X16384959Y9995008D01*
Y10007504D01*
X16372464Y10020000D01*
X16334976D01*
X16372464D01*
X16384959Y10032496D01*
Y10044992D01*
X16372464Y10057488D01*
X16334976D01*
X16135040Y11982512D02*
Y12057488D01*
X16172528D01*
X16185023Y12044992D01*
Y12020000D01*
X16172528Y12007504D01*
X16135040D01*
X16160033D02*
X16185023Y11982512D01*
X16210016D02*
X16235008D01*
X16222511D01*
Y12057488D01*
X16210016Y12044992D01*
X16272496Y11982512D02*
X16297488D01*
X16284991D01*
Y12057488D01*
X16272496Y12044992D01*
X16334976Y11982512D02*
Y12032496D01*
X16359969Y12057488D01*
X16384959Y12032496D01*
Y11982512D01*
Y12020000D01*
X16334976D01*
X15198776Y5104992D02*
X15186279Y5117488D01*
X15161288D01*
X15148792Y5104992D01*
Y5055008D01*
X15161288Y5042512D01*
X15186279D01*
X15198776Y5055008D01*
X15223769Y5042512D02*
X15248759D01*
X15236264D01*
Y5117488D01*
X15223769Y5104992D01*
X15336232Y5117488D02*
X15311240Y5104992D01*
X15286247Y5080000D01*
Y5055008D01*
X15298744Y5042512D01*
X15323737D01*
X15336232Y5055008D01*
Y5067504D01*
X15323737Y5080000D01*
X15286247D01*
X15361224Y5117488D02*
Y5042512D01*
X15398712D01*
X15411208Y5055008D01*
Y5104992D01*
X15398712Y5117488D01*
X15361224D01*
X15198776Y7104992D02*
X15186279Y7117488D01*
X15161288D01*
X15148792Y7104992D01*
Y7055008D01*
X15161288Y7042512D01*
X15186279D01*
X15198776Y7055008D01*
X15223769Y7042512D02*
X15248759D01*
X15236264D01*
Y7117488D01*
X15223769Y7104992D01*
X15336232Y7117488D02*
X15311240Y7104992D01*
X15286247Y7080000D01*
Y7055008D01*
X15298744Y7042512D01*
X15323737D01*
X15336232Y7055008D01*
Y7067504D01*
X15323737Y7080000D01*
X15286247D01*
X15411208Y7104992D02*
X15398712Y7117488D01*
X15373720D01*
X15361224Y7104992D01*
Y7055008D01*
X15373720Y7042512D01*
X15398712D01*
X15411208Y7055008D01*
X15198776Y9104992D02*
X15186279Y9117488D01*
X15161288D01*
X15148792Y9104992D01*
Y9055008D01*
X15161288Y9042512D01*
X15186279D01*
X15198776Y9055008D01*
X15223769Y9042512D02*
X15248759D01*
X15236264D01*
Y9117488D01*
X15223769Y9104992D01*
X15336232Y9117488D02*
X15311240Y9104992D01*
X15286247Y9080000D01*
Y9055008D01*
X15298744Y9042512D01*
X15323737D01*
X15336232Y9055008D01*
Y9067504D01*
X15323737Y9080000D01*
X15286247D01*
X15361224Y9117488D02*
Y9042512D01*
X15398712D01*
X15411208Y9055008D01*
Y9067504D01*
X15398712Y9080000D01*
X15361224D01*
X15398712D01*
X15411208Y9092496D01*
Y9104992D01*
X15398712Y9117488D01*
X15361224D01*
X15198776Y11104992D02*
X15186279Y11117488D01*
X15161288D01*
X15148792Y11104992D01*
Y11055008D01*
X15161288Y11042512D01*
X15186279D01*
X15198776Y11055008D01*
X15223769Y11042512D02*
X15248759D01*
X15236264D01*
Y11117488D01*
X15223769Y11104992D01*
X15336232Y11117488D02*
X15311240Y11104992D01*
X15286247Y11080000D01*
Y11055008D01*
X15298744Y11042512D01*
X15323737D01*
X15336232Y11055008D01*
Y11067504D01*
X15323737Y11080000D01*
X15286247D01*
X15361224Y11042512D02*
Y11092496D01*
X15386217Y11117488D01*
X15411208Y11092496D01*
Y11042512D01*
Y11080000D01*
X15361224D01*
X15758775Y5034992D02*
X15746280Y5047488D01*
X15721288D01*
X15708792Y5034992D01*
Y4985008D01*
X15721288Y4972512D01*
X15746280D01*
X15758775Y4985008D01*
X15783768Y4972512D02*
X15808760D01*
X15796265D01*
Y5047488D01*
X15783768Y5034992D01*
X15896233Y5047488D02*
X15846248D01*
Y5010000D01*
X15871240Y5022496D01*
X15883736D01*
X15896233Y5010000D01*
Y4985008D01*
X15883736Y4972512D01*
X15858743D01*
X15846248Y4985008D01*
X15921223Y5047488D02*
Y4972512D01*
X15958711D01*
X15971208Y4985008D01*
Y5034992D01*
X15958711Y5047488D01*
X15921223D01*
X15758775Y7034992D02*
X15746280Y7047488D01*
X15721288D01*
X15708792Y7034992D01*
Y6985008D01*
X15721288Y6972512D01*
X15746280D01*
X15758775Y6985008D01*
X15783768Y6972512D02*
X15808760D01*
X15796265D01*
Y7047488D01*
X15783768Y7034992D01*
X15896233Y7047488D02*
X15846248D01*
Y7010000D01*
X15871240Y7022496D01*
X15883736D01*
X15896233Y7010000D01*
Y6985008D01*
X15883736Y6972512D01*
X15858743D01*
X15846248Y6985008D01*
X15971208Y7034992D02*
X15958711Y7047488D01*
X15933720D01*
X15921223Y7034992D01*
Y6985008D01*
X15933720Y6972512D01*
X15958711D01*
X15971208Y6985008D01*
X15758775Y9034992D02*
X15746280Y9047488D01*
X15721288D01*
X15708792Y9034992D01*
Y8985008D01*
X15721288Y8972512D01*
X15746280D01*
X15758775Y8985008D01*
X15783768Y8972512D02*
X15808760D01*
X15796265D01*
Y9047488D01*
X15783768Y9034992D01*
X15896233Y9047488D02*
X15846248D01*
Y9010000D01*
X15871240Y9022496D01*
X15883736D01*
X15896233Y9010000D01*
Y8985008D01*
X15883736Y8972512D01*
X15858743D01*
X15846248Y8985008D01*
X15921223Y9047488D02*
Y8972512D01*
X15958711D01*
X15971208Y8985008D01*
Y8997504D01*
X15958711Y9010000D01*
X15921223D01*
X15958711D01*
X15971208Y9022496D01*
Y9034992D01*
X15958711Y9047488D01*
X15921223D01*
X15758775Y11034992D02*
X15746280Y11047488D01*
X15721288D01*
X15708792Y11034992D01*
Y10985008D01*
X15721288Y10972512D01*
X15746280D01*
X15758775Y10985008D01*
X15783768Y10972512D02*
X15808760D01*
X15796265D01*
Y11047488D01*
X15783768Y11034992D01*
X15896233Y11047488D02*
X15846248D01*
Y11010000D01*
X15871240Y11022496D01*
X15883736D01*
X15896233Y11010000D01*
Y10985008D01*
X15883736Y10972512D01*
X15858743D01*
X15846248Y10985008D01*
X15921223Y10972512D02*
Y11022496D01*
X15946216Y11047488D01*
X15971208Y11022496D01*
Y10972512D01*
Y11010000D01*
X15921223D01*
X15748776Y6724992D02*
X15736279Y6737488D01*
X15711288D01*
X15698792Y6724992D01*
Y6675008D01*
X15711288Y6662512D01*
X15736279D01*
X15748776Y6675008D01*
X15773769Y6662512D02*
X15798759D01*
X15786264D01*
Y6737488D01*
X15773769Y6724992D01*
X15873737Y6662512D02*
Y6737488D01*
X15836247Y6700000D01*
X15886232D01*
X15911224Y6737488D02*
Y6662512D01*
X15948712D01*
X15961208Y6675008D01*
Y6724992D01*
X15948712Y6737488D01*
X15911224D01*
X15748776Y8724992D02*
X15736279Y8737488D01*
X15711288D01*
X15698792Y8724992D01*
Y8675008D01*
X15711288Y8662512D01*
X15736279D01*
X15748776Y8675008D01*
X15773769Y8662512D02*
X15798759D01*
X15786264D01*
Y8737488D01*
X15773769Y8724992D01*
X15873737Y8662512D02*
Y8737488D01*
X15836247Y8700000D01*
X15886232D01*
X15961208Y8724992D02*
X15948712Y8737488D01*
X15923720D01*
X15911224Y8724992D01*
Y8675008D01*
X15923720Y8662512D01*
X15948712D01*
X15961208Y8675008D01*
X15748776Y10724992D02*
X15736279Y10737488D01*
X15711288D01*
X15698792Y10724992D01*
Y10675008D01*
X15711288Y10662512D01*
X15736279D01*
X15748776Y10675008D01*
X15773769Y10662512D02*
X15798759D01*
X15786264D01*
Y10737488D01*
X15773769Y10724992D01*
X15873737Y10662512D02*
Y10737488D01*
X15836247Y10700000D01*
X15886232D01*
X15911224Y10737488D02*
Y10662512D01*
X15948712D01*
X15961208Y10675008D01*
Y10687504D01*
X15948712Y10700000D01*
X15911224D01*
X15948712D01*
X15961208Y10712496D01*
Y10724992D01*
X15948712Y10737488D01*
X15911224D01*
X15748776Y12724992D02*
X15736279Y12737488D01*
X15711288D01*
X15698792Y12724992D01*
Y12675008D01*
X15711288Y12662512D01*
X15736279D01*
X15748776Y12675008D01*
X15773769Y12662512D02*
X15798759D01*
X15786264D01*
Y12737488D01*
X15773769Y12724992D01*
X15873737Y12662512D02*
Y12737488D01*
X15836247Y12700000D01*
X15886232D01*
X15911224Y12662512D02*
Y12712496D01*
X15936217Y12737488D01*
X15961208Y12712496D01*
Y12662512D01*
Y12700000D01*
X15911224D01*
X15198776Y6634992D02*
X15186279Y6647488D01*
X15161288D01*
X15148792Y6634992D01*
Y6585008D01*
X15161288Y6572512D01*
X15186279D01*
X15198776Y6585008D01*
X15223769Y6572512D02*
X15248759D01*
X15236264D01*
Y6647488D01*
X15223769Y6634992D01*
X15286247D02*
X15298744Y6647488D01*
X15323737D01*
X15336232Y6634992D01*
Y6622496D01*
X15323737Y6610000D01*
X15311240D01*
X15323737D01*
X15336232Y6597504D01*
Y6585008D01*
X15323737Y6572512D01*
X15298744D01*
X15286247Y6585008D01*
X15361224Y6647488D02*
Y6572512D01*
X15398712D01*
X15411208Y6585008D01*
Y6634992D01*
X15398712Y6647488D01*
X15361224D01*
X15198776Y8634992D02*
X15186279Y8647488D01*
X15161288D01*
X15148792Y8634992D01*
Y8585008D01*
X15161288Y8572512D01*
X15186279D01*
X15198776Y8585008D01*
X15223769Y8572512D02*
X15248759D01*
X15236264D01*
Y8647488D01*
X15223769Y8634992D01*
X15286247D02*
X15298744Y8647488D01*
X15323737D01*
X15336232Y8634992D01*
Y8622496D01*
X15323737Y8610000D01*
X15311240D01*
X15323737D01*
X15336232Y8597504D01*
Y8585008D01*
X15323737Y8572512D01*
X15298744D01*
X15286247Y8585008D01*
X15411208Y8634992D02*
X15398712Y8647488D01*
X15373720D01*
X15361224Y8634992D01*
Y8585008D01*
X15373720Y8572512D01*
X15398712D01*
X15411208Y8585008D01*
X15198776Y10634992D02*
X15186279Y10647488D01*
X15161288D01*
X15148792Y10634992D01*
Y10585008D01*
X15161288Y10572512D01*
X15186279D01*
X15198776Y10585008D01*
X15223769Y10572512D02*
X15248759D01*
X15236264D01*
Y10647488D01*
X15223769Y10634992D01*
X15286247D02*
X15298744Y10647488D01*
X15323737D01*
X15336232Y10634992D01*
Y10622496D01*
X15323737Y10610000D01*
X15311240D01*
X15323737D01*
X15336232Y10597504D01*
Y10585008D01*
X15323737Y10572512D01*
X15298744D01*
X15286247Y10585008D01*
X15361224Y10647488D02*
Y10572512D01*
X15398712D01*
X15411208Y10585008D01*
Y10597504D01*
X15398712Y10610000D01*
X15361224D01*
X15398712D01*
X15411208Y10622496D01*
Y10634992D01*
X15398712Y10647488D01*
X15361224D01*
X15198776Y12634992D02*
X15186279Y12647488D01*
X15161288D01*
X15148792Y12634992D01*
Y12585008D01*
X15161288Y12572512D01*
X15186279D01*
X15198776Y12585008D01*
X15223769Y12572512D02*
X15248759D01*
X15236264D01*
Y12647488D01*
X15223769Y12634992D01*
X15286247D02*
X15298744Y12647488D01*
X15323737D01*
X15336232Y12634992D01*
Y12622496D01*
X15323737Y12610000D01*
X15311240D01*
X15323737D01*
X15336232Y12597504D01*
Y12585008D01*
X15323737Y12572512D01*
X15298744D01*
X15286247Y12585008D01*
X15361224Y12572512D02*
Y12622496D01*
X15386217Y12647488D01*
X15411208Y12622496D01*
Y12572512D01*
Y12610000D01*
X15361224D01*
X12777521Y10262512D02*
Y10337488D01*
X12815009D01*
X12827505Y10324992D01*
Y10300000D01*
X12815009Y10287504D01*
X12777521D01*
X12802513D02*
X12827505Y10262512D01*
X12889986D02*
Y10337488D01*
X12852496Y10300000D01*
X12902481D01*
X13707521Y10442512D02*
Y10517488D01*
X13745009D01*
X13757504Y10504992D01*
Y10480000D01*
X13745009Y10467504D01*
X13707521D01*
X13732513D02*
X13757504Y10442512D01*
X13782497Y10504992D02*
X13794994Y10517488D01*
X13819984D01*
X13832481Y10504992D01*
Y10492496D01*
X13819984Y10480000D01*
X13807489D01*
X13819984D01*
X13832481Y10467504D01*
Y10455008D01*
X13819984Y10442512D01*
X13794994D01*
X13782497Y10455008D01*
X13720016Y10972512D02*
Y11047488D01*
X13757504D01*
X13770001Y11034992D01*
Y11010000D01*
X13757504Y10997504D01*
X13720016D01*
X13745009D02*
X13770001Y10972512D01*
X13794994D02*
X13819984D01*
X13807489D01*
Y11047488D01*
X13794994Y11034992D01*
X14352634Y13157074D02*
Y13132082D01*
Y13144579D01*
X14415114D01*
X14427609Y13132082D01*
Y13119586D01*
X14415114Y13107091D01*
X14365131Y13182066D02*
X14352634Y13194562D01*
Y13219554D01*
X14365131Y13232050D01*
X14377626D01*
X14390121Y13219554D01*
X14402618Y13232050D01*
X14415114D01*
X14427609Y13219554D01*
Y13194562D01*
X14415114Y13182066D01*
X14402618D01*
X14390121Y13194562D01*
X14377626Y13182066D01*
X14365131D01*
X14390121Y13194562D02*
Y13219554D01*
X11902634Y13157074D02*
Y13132082D01*
Y13144579D01*
X11965114D01*
X11977610Y13132082D01*
Y13119586D01*
X11965114Y13107091D01*
X11902634Y13182066D02*
Y13232050D01*
X11915130D01*
X11965114Y13182066D01*
X11977610D01*
X13436264Y12914992D02*
X13423769Y12927489D01*
X13398776D01*
X13386279Y12914992D01*
Y12865009D01*
X13398776Y12852512D01*
X13423769D01*
X13436264Y12865009D01*
X13461256Y12852512D02*
X13486247D01*
X13473752D01*
Y12927489D01*
X13461256Y12914992D01*
X13573720Y12852512D02*
X13523737D01*
X13573720Y12902496D01*
Y12914992D01*
X13561224Y12927489D01*
X13536232D01*
X13523737Y12914992D01*
X12138760D02*
X12126264Y12927489D01*
X12101272D01*
X12088776Y12914992D01*
Y12865009D01*
X12101272Y12852512D01*
X12126264D01*
X12138760Y12865009D01*
X12163752Y12852512D02*
X12188744D01*
X12176248D01*
Y12927489D01*
X12163752Y12914992D01*
X12226232Y12852512D02*
X12251224D01*
X12238728D01*
Y12927489D01*
X12226232Y12914992D01*
X13487505Y11397542D02*
X13475009Y11410038D01*
X13450017D01*
X13437521Y11397542D01*
Y11347558D01*
X13450017Y11335062D01*
X13475009D01*
X13487505Y11347558D01*
X13549985Y11335062D02*
Y11410038D01*
X13512497Y11372550D01*
X13562482D01*
X13267505Y11397542D02*
X13255009Y11410038D01*
X13230017D01*
X13217522Y11397542D01*
Y11347558D01*
X13230017Y11335062D01*
X13255009D01*
X13267505Y11347558D01*
X13292497Y11397542D02*
X13304993Y11410038D01*
X13329985D01*
X13342480Y11397542D01*
Y11385046D01*
X13329985Y11372550D01*
X13317490D01*
X13329985D01*
X13342480Y11360054D01*
Y11347558D01*
X13329985Y11335062D01*
X13304993D01*
X13292497Y11347558D01*
X13487505Y10137542D02*
X13475009Y10150038D01*
X13450017D01*
X13437521Y10137542D01*
Y10087558D01*
X13450017Y10075062D01*
X13475009D01*
X13487505Y10087558D01*
X13562482Y10075062D02*
X13512497D01*
X13562482Y10125046D01*
Y10137542D01*
X13549985Y10150038D01*
X13524992D01*
X13512497Y10137542D01*
X13280000D02*
X13267505Y10150038D01*
X13242514D01*
X13230017Y10137542D01*
Y10087558D01*
X13242514Y10075062D01*
X13267505D01*
X13280000Y10087558D01*
X13304993Y10075062D02*
X13329987D01*
X13317490D01*
Y10150038D01*
X13304993Y10137542D01*
X12977521Y11142512D02*
Y11217488D01*
X13015009D01*
X13027505Y11204992D01*
Y11180000D01*
X13015009Y11167504D01*
X12977521D01*
X13002513D02*
X13027505Y11142512D01*
X13102481D02*
X13052496D01*
X13102481Y11192496D01*
Y11204992D01*
X13089986Y11217488D01*
X13064993D01*
X13052496Y11204992D01*
X13027505Y10327542D02*
X13015009Y10340039D01*
X12990018D01*
X12977521Y10327542D01*
Y10277559D01*
X12990018Y10265063D01*
X13015009D01*
X13027505Y10277559D01*
X13102481Y10340039D02*
X13052496D01*
Y10302550D01*
X13077489Y10315046D01*
X13089986D01*
X13102481Y10302550D01*
Y10277559D01*
X13089986Y10265063D01*
X13064993D01*
X13052496Y10277559D01*
X16727504Y11637488D02*
X16702512D01*
X16715009D01*
Y11575008D01*
X16702512Y11562512D01*
X16690016D01*
X16677521Y11575008D01*
X16802480Y11562512D02*
X16752496D01*
X16802480Y11612496D01*
Y11624992D01*
X16789984Y11637488D01*
X16764992D01*
X16752496Y11624992D01*
X12778647Y11301870D02*
Y11326862D01*
Y11314366D01*
X12716167D01*
X12703671Y11326862D01*
Y11339358D01*
X12716167Y11351854D01*
X12703671Y11276878D02*
Y11251886D01*
Y11264382D01*
X12778647D01*
X12766150Y11276878D01*
X12758646Y7314366D02*
Y7339358D01*
Y7326862D01*
X12696166D01*
X12683670Y7339358D01*
Y7351854D01*
X12696166Y7364350D01*
X12758646Y7239390D02*
Y7289374D01*
X12721158D01*
X12733654Y7264382D01*
Y7251886D01*
X12721158Y7239390D01*
X12696166D01*
X12683670Y7251886D01*
Y7276878D01*
X12696166Y7289374D01*
X16667503Y5657488D02*
X16642513D01*
X16655008D01*
Y5595008D01*
X16642513Y5582512D01*
X16630016D01*
X16617520Y5595008D01*
X16742480Y5657488D02*
X16717488Y5644992D01*
X16692496Y5620000D01*
Y5595008D01*
X16704993Y5582512D01*
X16729984D01*
X16742480Y5595008D01*
Y5607504D01*
X16729984Y5620000D01*
X16692496D01*
X16707504Y7647488D02*
X16682512D01*
X16695007D01*
Y7585008D01*
X16682512Y7572512D01*
X16670016D01*
X16657520Y7585008D01*
X16769984Y7572512D02*
Y7647488D01*
X16732497Y7610000D01*
X16782480D01*
X16717503Y9677488D02*
X16692513D01*
X16705008D01*
Y9615008D01*
X16692513Y9602512D01*
X16680016D01*
X16667520Y9615008D01*
X16742496Y9664992D02*
X16754993Y9677488D01*
X16779984D01*
X16792480Y9664992D01*
Y9652496D01*
X16779984Y9640000D01*
X16767488D01*
X16779984D01*
X16792480Y9627504D01*
Y9615008D01*
X16779984Y9602512D01*
X16754993D01*
X16742496Y9615008D01*
X13640018Y10397488D02*
Y10335008D01*
X13652513Y10322512D01*
X13677505D01*
X13690001Y10335008D01*
Y10397488D01*
X13714993Y10322512D02*
X13739986D01*
X13727489D01*
Y10397488D01*
X13714993Y10384992D01*
%TF.MD5,a1269df37f7ffc874f8ee7e6d36f703a*%
M02*
