%TF.GenerationSoftware,Altium Limited,Altium Designer,24.7.2 (38)*%
G04 Layer_Physical_Order=1*
G04 Layer_Color=255*
%FSLAX45Y45*%
%MOMM*%
%TF.SameCoordinates,B30809B7-3911-4904-9B3F-344CE752C631*%
%TF.FilePolarity,Positive*%
%TF.FileFunction,Copper,L1,Top,Signal*%
%TF.Part,Single*%
G01*
G75*
%TA.AperFunction,SMDPad,CuDef*%
%ADD10R,1.19380X1.09220*%
%ADD11R,4.30000X4.30000*%
%ADD12R,0.30000X0.85000*%
%ADD13R,0.85000X0.30000*%
%ADD14R,1.09220X1.19380*%
%ADD15R,1.40000X2.80000*%
%ADD16R,0.80964X0.23928*%
G04:AMPARAMS|DCode=17|XSize=0.80964mm|YSize=0.23928mm|CornerRadius=0.11964mm|HoleSize=0mm|Usage=FLASHONLY|Rotation=0.000|XOffset=0mm|YOffset=0mm|HoleType=Round|Shape=RoundedRectangle|*
%AMROUNDEDRECTD17*
21,1,0.80964,0.00000,0,0,0.0*
21,1,0.57035,0.23928,0,0,0.0*
1,1,0.23928,0.28518,0.00000*
1,1,0.23928,-0.28518,0.00000*
1,1,0.23928,-0.28518,0.00000*
1,1,0.23928,0.28518,0.00000*
%
%ADD17ROUNDEDRECTD17*%
G04:AMPARAMS|DCode=18|XSize=0.23928mm|YSize=0.80964mm|CornerRadius=0.11964mm|HoleSize=0mm|Usage=FLASHONLY|Rotation=0.000|XOffset=0mm|YOffset=0mm|HoleType=Round|Shape=RoundedRectangle|*
%AMROUNDEDRECTD18*
21,1,0.23928,0.57035,0,0,0.0*
21,1,0.00000,0.80964,0,0,0.0*
1,1,0.23928,0.00000,-0.28518*
1,1,0.23928,0.00000,-0.28518*
1,1,0.23928,0.00000,0.28518*
1,1,0.23928,0.00000,0.28518*
%
%ADD18ROUNDEDRECTD18*%
%ADD19R,1.45000X1.45000*%
%TA.AperFunction,Conductor*%
%ADD20C,0.30000*%
%ADD21C,0.50000*%
%ADD22C,0.20000*%
%ADD23C,0.15000*%
%ADD24R,1.35000X1.25000*%
%ADD25R,3.20000X1.20000*%
%ADD26R,1.49999X1.69999*%
%TA.AperFunction,ComponentPad*%
%ADD27C,1.55000*%
%ADD28C,2.80000*%
%ADD29R,1.80000X1.80000*%
%ADD30C,1.80000*%
%TA.AperFunction,ViaPad*%
%ADD31C,0.50000*%
G36*
X17754105Y4865896D02*
X11385896D01*
Y13884103D01*
X17754105D01*
Y4865896D01*
D02*
G37*
%LPC*%
G36*
X15285193Y13645399D02*
X15282701D01*
Y13542700D01*
X15385400D01*
Y13545193D01*
X15377536Y13574544D01*
X15362343Y13600858D01*
X15340857Y13622343D01*
X15314543Y13637535D01*
X15285193Y13645399D01*
D02*
G37*
G36*
X12835193D02*
X12832700D01*
Y13542700D01*
X12935400D01*
Y13545193D01*
X12927534Y13574544D01*
X12912343Y13600858D01*
X12890857Y13622343D01*
X12864543Y13637535D01*
X12835193Y13645399D01*
D02*
G37*
G36*
X12807300D02*
X12804807D01*
X12775457Y13637535D01*
X12749143Y13622343D01*
X12727657Y13600858D01*
X12712465Y13574544D01*
X12704600Y13545193D01*
Y13542700D01*
X12807300D01*
Y13645399D01*
D02*
G37*
G36*
X15257301D02*
X15254807D01*
X15225456Y13637535D01*
X15199142Y13622343D01*
X15177657Y13600858D01*
X15162465Y13574544D01*
X15154601Y13545193D01*
Y13542700D01*
X15257301D01*
Y13645399D01*
D02*
G37*
G36*
X15385400Y13517300D02*
X15282701D01*
Y13414600D01*
X15285193D01*
X15314543Y13422464D01*
X15340857Y13437657D01*
X15362343Y13459143D01*
X15377536Y13485457D01*
X15385400Y13514807D01*
Y13517300D01*
D02*
G37*
G36*
X15257301D02*
X15154601D01*
Y13514807D01*
X15162465Y13485457D01*
X15177657Y13459143D01*
X15199142Y13437657D01*
X15225456Y13422464D01*
X15254807Y13414600D01*
X15257301D01*
Y13517300D01*
D02*
G37*
G36*
X12935400D02*
X12832700D01*
Y13414600D01*
X12835193D01*
X12864543Y13422464D01*
X12890857Y13437657D01*
X12912343Y13459143D01*
X12927534Y13485457D01*
X12935400Y13514807D01*
Y13517300D01*
D02*
G37*
G36*
X12807300D02*
X12704600D01*
Y13514807D01*
X12712465Y13485457D01*
X12727657Y13459143D01*
X12749143Y13437657D01*
X12775457Y13422464D01*
X12804807Y13414600D01*
X12807300D01*
Y13517300D01*
D02*
G37*
G36*
X15527060Y13044690D02*
X15387840D01*
Y13010783D01*
X15192160D01*
Y13044690D01*
X15052940D01*
Y12895309D01*
X15192160D01*
Y12929216D01*
X15387840D01*
Y12895309D01*
X15527060D01*
Y13044690D01*
D02*
G37*
G36*
X13085400Y13055400D02*
X13002699D01*
Y12902699D01*
X13085400D01*
Y13055400D01*
D02*
G37*
G36*
X12805400D02*
X12722699D01*
Y12902699D01*
X12805400D01*
Y13055400D01*
D02*
G37*
G36*
X12697299D02*
X12614600D01*
Y12902699D01*
X12697299D01*
Y13055400D01*
D02*
G37*
G36*
X12977299D02*
X12894600D01*
Y12902699D01*
X12977299D01*
Y13055400D01*
D02*
G37*
G36*
X15875000Y13635001D02*
X15664999D01*
Y13425000D01*
X15729218D01*
Y13139423D01*
X15634483Y13044690D01*
X15552940D01*
Y12895309D01*
X15581767D01*
Y12859444D01*
X15561162Y12838838D01*
X15558929Y12835498D01*
X15556090Y12832658D01*
X15554553Y12828947D01*
X15552321Y12825607D01*
X15551538Y12821667D01*
X15550000Y12817957D01*
Y12813940D01*
X15549217Y12810001D01*
X15550000Y12806059D01*
Y12802043D01*
X15551538Y12798333D01*
X15552321Y12794393D01*
X15554553Y12791053D01*
X15556090Y12787342D01*
X15558929Y12784502D01*
X15561162Y12781162D01*
X15564502Y12778930D01*
X15567342Y12776090D01*
X15571053Y12774553D01*
X15574393Y12772321D01*
X15578333Y12771537D01*
X15582043Y12770000D01*
X15586060D01*
X15589999Y12769216D01*
X15593941Y12770000D01*
X15597957D01*
X15601668Y12771537D01*
X15605608Y12772321D01*
X15608948Y12774553D01*
X15612659Y12776090D01*
X15615498Y12778930D01*
X15618839Y12781162D01*
X15651389Y12813712D01*
X15660229Y12826942D01*
X15663335Y12842551D01*
X15663335Y12842551D01*
Y12895309D01*
X15692160D01*
Y12987013D01*
X15798839Y13093692D01*
X15807680Y13106923D01*
X15810783Y13122530D01*
X15810783Y13122531D01*
Y13425000D01*
X15875000D01*
Y13635001D01*
D02*
G37*
G36*
X12333823D02*
X12306177D01*
X12279472Y13627844D01*
X12255529Y13614021D01*
X12235979Y13594472D01*
X12222156Y13570528D01*
X12215000Y13543823D01*
Y13516176D01*
X12222156Y13489471D01*
X12235979Y13465529D01*
X12255529Y13445979D01*
X12279216Y13432303D01*
Y13090001D01*
X12279216Y13089999D01*
X12282321Y13074393D01*
X12291162Y13061160D01*
X12365000Y12987323D01*
Y12735000D01*
X12535000D01*
Y13045000D01*
X12422677D01*
X12360784Y13106892D01*
Y13432303D01*
X12384471Y13445979D01*
X12404021Y13465529D01*
X12417844Y13489471D01*
X12425000Y13516176D01*
Y13543823D01*
X12417844Y13570528D01*
X12404021Y13594472D01*
X12384471Y13614021D01*
X12360528Y13627844D01*
X12333823Y13635001D01*
D02*
G37*
G36*
X13085400Y12877299D02*
X13002699D01*
Y12724600D01*
X13085400D01*
Y12877299D01*
D02*
G37*
G36*
X12977299D02*
X12894600D01*
Y12724600D01*
X12977299D01*
Y12877299D01*
D02*
G37*
G36*
X12805400D02*
X12722699D01*
Y12724600D01*
X12805400D01*
Y12877299D01*
D02*
G37*
G36*
X12697299D02*
X12614600D01*
Y12724600D01*
X12697299D01*
Y12877299D01*
D02*
G37*
G36*
X15277460Y12535090D02*
X15210150D01*
Y12462700D01*
X15277460D01*
Y12535090D01*
D02*
G37*
G36*
X15184750D02*
X15117439D01*
Y12462700D01*
X15184750D01*
Y12535090D01*
D02*
G37*
G36*
X16055400Y12615400D02*
X15972701D01*
Y12462700D01*
X16055400D01*
Y12615400D01*
D02*
G37*
G36*
X15947301D02*
X15864600D01*
Y12462700D01*
X15947301D01*
Y12615400D01*
D02*
G37*
G36*
X15277460Y12437300D02*
X15210150D01*
Y12364910D01*
X15277460D01*
Y12437300D01*
D02*
G37*
G36*
X15184750D02*
X15117439D01*
Y12364910D01*
X15184750D01*
Y12437300D01*
D02*
G37*
G36*
X16055400Y12437300D02*
X15972701D01*
Y12284600D01*
X16055400D01*
Y12437300D01*
D02*
G37*
G36*
X15947301D02*
X15864600D01*
Y12284600D01*
X15947301D01*
Y12437300D01*
D02*
G37*
G36*
X17386292Y12395400D02*
X17382703D01*
Y12242700D01*
X17535400D01*
Y12246291D01*
X17529045Y12278246D01*
X17516576Y12308346D01*
X17498476Y12335437D01*
X17475436Y12358475D01*
X17448347Y12376576D01*
X17418246Y12389044D01*
X17386292Y12395400D01*
D02*
G37*
G36*
X17357301D02*
X17353709D01*
X17321754Y12389044D01*
X17291655Y12376576D01*
X17264565Y12358475D01*
X17241525Y12335437D01*
X17223425Y12308346D01*
X17210957Y12278246D01*
X17204601Y12246291D01*
Y12242700D01*
X17357301D01*
Y12395400D01*
D02*
G37*
G36*
X14783824Y13635001D02*
X14756177D01*
X14729472Y13627844D01*
X14705528Y13614021D01*
X14685980Y13594472D01*
X14672156Y13570528D01*
X14664999Y13543823D01*
Y13516176D01*
X14672156Y13489471D01*
X14685980Y13465529D01*
X14705528Y13445979D01*
X14729218Y13432303D01*
Y13162531D01*
X14729216Y13162531D01*
X14732321Y13146922D01*
X14741162Y13133691D01*
X14887840Y12987013D01*
Y12895309D01*
X14916667D01*
Y12842551D01*
X14916666Y12842551D01*
X14919771Y12826942D01*
X14928612Y12813712D01*
X15051161Y12691162D01*
X15051163Y12691162D01*
X15064394Y12682321D01*
X15080000Y12679216D01*
X15080000Y12679216D01*
X15273106D01*
X15321767Y12630557D01*
Y12524690D01*
X15292940D01*
Y12375310D01*
X15356268D01*
X15360001Y12373764D01*
X15614999D01*
Y12295000D01*
X15618764D01*
Y12252500D01*
X15255000D01*
Y12155000D01*
X15217955D01*
X15214999Y12155588D01*
X15200169D01*
X15097955Y12257802D01*
X15088033Y12264432D01*
X15076328Y12266761D01*
X15076324Y12266761D01*
X15049808D01*
X15042657Y12273910D01*
X15027957Y12280000D01*
X15012044D01*
X14997342Y12273910D01*
X14986090Y12262658D01*
X14980000Y12247956D01*
Y12232043D01*
X14986090Y12217342D01*
X14997342Y12206090D01*
X15012044Y12200000D01*
X15027957D01*
X15041441Y12205585D01*
X15063657D01*
X15157500Y12111742D01*
Y12055588D01*
X15120981D01*
X15117657Y12058910D01*
X15102957Y12065000D01*
X15087044D01*
X15072342Y12058910D01*
X15061090Y12047658D01*
X15055000Y12032956D01*
Y12017043D01*
X15061090Y12002342D01*
X15072342Y11991090D01*
X15087044Y11985000D01*
X15102957D01*
X15117657Y11991090D01*
X15120981Y11994412D01*
X15157500D01*
Y11905588D01*
X14545000D01*
X14533295Y11903259D01*
X14523370Y11896629D01*
X14523370Y11896628D01*
X13830922Y11204180D01*
X13824292Y11194256D01*
X13821964Y11182551D01*
X13821964Y11182550D01*
Y10914690D01*
X13782941D01*
Y10765310D01*
X13922160D01*
Y10914690D01*
X13883139D01*
Y11169881D01*
X14557671Y11844412D01*
X15157500D01*
Y11805588D01*
X15117320D01*
X15105614Y11803259D01*
X15095691Y11796629D01*
X15095691Y11796628D01*
X15062199Y11763138D01*
X15034689D01*
Y11802160D01*
X14885310D01*
Y11763138D01*
X14814690D01*
Y11802160D01*
X14665311D01*
Y11662940D01*
X14814690D01*
Y11701962D01*
X14885310D01*
Y11662940D01*
X15034689D01*
Y11701962D01*
X15074869D01*
X15074870Y11701962D01*
X15086575Y11704291D01*
X15096500Y11710921D01*
X15129990Y11744412D01*
X15157500D01*
Y11655588D01*
X15124870D01*
X15124870Y11655588D01*
X15113165Y11653259D01*
X15103241Y11646629D01*
X15054649Y11598038D01*
X15034689D01*
Y11637060D01*
X14885310D01*
Y11497840D01*
X15034689D01*
Y11536862D01*
X15067319D01*
X15067320Y11536862D01*
X15079025Y11539191D01*
X15088950Y11545821D01*
X15137540Y11594412D01*
X15157500D01*
Y11545000D01*
X15255000D01*
Y11447500D01*
X15628764D01*
Y11405000D01*
X15625000D01*
Y11362957D01*
X15624413Y11360000D01*
X15625000Y11357043D01*
Y11326236D01*
X15360001D01*
X15356268Y11324690D01*
X15292940D01*
Y11175310D01*
X15356268D01*
X15360001Y11173764D01*
X15625000D01*
Y11095000D01*
X15795000D01*
Y11377016D01*
X15796236Y11380000D01*
Y11447500D01*
X15864999D01*
Y11545000D01*
X15962500D01*
Y11645000D01*
Y11765051D01*
X16180649Y11773777D01*
X16183968Y11775310D01*
X16247060D01*
Y11924690D01*
X16183969D01*
X16180649Y11926223D01*
X15962500Y11934949D01*
Y12045000D01*
Y12155000D01*
X15864999D01*
Y12252500D01*
X15786237D01*
Y12320000D01*
X15785001Y12322984D01*
Y12605000D01*
X15614999D01*
Y12526236D01*
X15403334D01*
Y12647449D01*
X15403334Y12647450D01*
X15400229Y12663057D01*
X15391389Y12676288D01*
X15391388Y12676289D01*
X15318839Y12748838D01*
X15305608Y12757679D01*
X15289999Y12760784D01*
X15289999Y12760783D01*
X15096893D01*
X14998235Y12859444D01*
Y12895309D01*
X15027060D01*
Y13044690D01*
X14945517D01*
X14810783Y13179424D01*
Y13432303D01*
X14834471Y13445979D01*
X14854021Y13465529D01*
X14867844Y13489471D01*
X14875000Y13516176D01*
Y13543823D01*
X14867844Y13570528D01*
X14854021Y13594472D01*
X14834471Y13614021D01*
X14810529Y13627844D01*
X14783824Y13635001D01*
D02*
G37*
G36*
X17535400Y12217300D02*
X17382703D01*
Y12064600D01*
X17386292D01*
X17418246Y12070956D01*
X17448347Y12083425D01*
X17475436Y12101526D01*
X17498476Y12124564D01*
X17516576Y12151654D01*
X17529045Y12181755D01*
X17535400Y12213710D01*
Y12217300D01*
D02*
G37*
G36*
X17357301D02*
X17204601D01*
Y12213710D01*
X17210957Y12181755D01*
X17223425Y12151654D01*
X17241525Y12124564D01*
X17264565Y12101526D01*
X17291655Y12083425D01*
X17321754Y12070956D01*
X17353709Y12064600D01*
X17357301D01*
Y12217300D01*
D02*
G37*
G36*
X16602179Y11942500D02*
X16577823D01*
X16554297Y11936196D01*
X16533205Y11924019D01*
X16515982Y11906796D01*
X16503806Y11885704D01*
X16500385Y11872941D01*
X16412160D01*
Y11924690D01*
X16272940D01*
Y11775310D01*
X16412160D01*
Y11827060D01*
X16500385D01*
X16503806Y11814297D01*
X16515982Y11793204D01*
X16533205Y11775982D01*
X16554297Y11763804D01*
X16577823Y11757500D01*
X16602179D01*
X16625703Y11763804D01*
X16646797Y11775982D01*
X16664018Y11793204D01*
X16676196Y11814297D01*
X16682501Y11837822D01*
Y11862178D01*
X16676196Y11885704D01*
X16664018Y11906796D01*
X16646797Y11924019D01*
X16625703Y11936196D01*
X16602179Y11942500D01*
D02*
G37*
G36*
X14825090Y11647460D02*
X14752699D01*
Y11580151D01*
X14825090D01*
Y11647460D01*
D02*
G37*
G36*
X14727299D02*
X14654910D01*
Y11580151D01*
X14727299D01*
Y11647460D01*
D02*
G37*
G36*
X14825090Y11554751D02*
X14752699D01*
Y11487440D01*
X14825090D01*
Y11554751D01*
D02*
G37*
G36*
X14727299D02*
X14654910D01*
Y11487440D01*
X14727299D01*
Y11554751D01*
D02*
G37*
G36*
X17386292Y11635400D02*
X17382701D01*
Y11482699D01*
X17535400D01*
Y11486291D01*
X17529045Y11518246D01*
X17516576Y11548346D01*
X17498476Y11575437D01*
X17475436Y11598475D01*
X17448347Y11616576D01*
X17418246Y11629044D01*
X17386292Y11635400D01*
D02*
G37*
G36*
X17357301D02*
X17353709D01*
X17321754Y11629044D01*
X17291655Y11616576D01*
X17264565Y11598475D01*
X17241525Y11575437D01*
X17223425Y11548346D01*
X17210957Y11518246D01*
X17204601Y11486291D01*
Y11482699D01*
X17357301D01*
Y11635400D01*
D02*
G37*
G36*
X17535400Y11457299D02*
X17382701D01*
Y11304600D01*
X17386292D01*
X17418246Y11310956D01*
X17448347Y11323425D01*
X17475436Y11341526D01*
X17498476Y11364564D01*
X17516576Y11391654D01*
X17529045Y11421755D01*
X17535400Y11453710D01*
Y11457299D01*
D02*
G37*
G36*
X17357301D02*
X17204601D01*
Y11453710D01*
X17210957Y11421755D01*
X17223425Y11391654D01*
X17241525Y11364564D01*
X17264565Y11341526D01*
X17291655Y11323425D01*
X17321754Y11310956D01*
X17353709Y11304600D01*
X17357301D01*
Y11457299D01*
D02*
G37*
G36*
X15277460Y11335090D02*
X15210150D01*
Y11262700D01*
X15277460D01*
Y11335090D01*
D02*
G37*
G36*
X16065401Y11415400D02*
X15982700D01*
Y11262700D01*
X16065401D01*
Y11415400D01*
D02*
G37*
G36*
X15957300D02*
X15874600D01*
Y11262700D01*
X15957300D01*
Y11415400D01*
D02*
G37*
G36*
X15184750Y11335090D02*
X15117439D01*
Y11262700D01*
X15184750D01*
Y11335090D01*
D02*
G37*
G36*
X11786291Y11395400D02*
X11782700D01*
Y11242700D01*
X11935401D01*
Y11246291D01*
X11929044Y11278246D01*
X11916576Y11308346D01*
X11898475Y11335437D01*
X11875437Y11358475D01*
X11848347Y11376576D01*
X11818246Y11389044D01*
X11786291Y11395400D01*
D02*
G37*
G36*
X11757300D02*
X11753710D01*
X11721755Y11389044D01*
X11691654Y11376576D01*
X11664564Y11358475D01*
X11641526Y11335437D01*
X11623425Y11308346D01*
X11610957Y11278246D01*
X11604601Y11246291D01*
Y11242700D01*
X11757300D01*
Y11395400D01*
D02*
G37*
G36*
X13585091Y11285110D02*
X13512701D01*
Y11217800D01*
X13585091D01*
Y11285110D01*
D02*
G37*
G36*
X13487302D02*
X13414911D01*
Y11217800D01*
X13487302D01*
Y11285110D01*
D02*
G37*
G36*
X13365091D02*
X13292702D01*
Y11217800D01*
X13365091D01*
Y11285110D01*
D02*
G37*
G36*
X13267300D02*
X13194911D01*
Y11217800D01*
X13267300D01*
Y11285110D01*
D02*
G37*
G36*
X15277460Y11237300D02*
X15210150D01*
Y11164910D01*
X15277460D01*
Y11237300D01*
D02*
G37*
G36*
X15184750D02*
X15117439D01*
Y11164910D01*
X15184750D01*
Y11237300D01*
D02*
G37*
G36*
X13585091Y11192400D02*
X13512701D01*
Y11125090D01*
X13585091D01*
Y11192400D01*
D02*
G37*
G36*
X13487302D02*
X13414911D01*
Y11125090D01*
X13487302D01*
Y11192400D01*
D02*
G37*
G36*
X13365091D02*
X13292702D01*
Y11125090D01*
X13365091D01*
Y11192400D01*
D02*
G37*
G36*
X13267300D02*
X13194911D01*
Y11125090D01*
X13267300D01*
Y11192400D01*
D02*
G37*
G36*
X16065401Y11237300D02*
X15982700D01*
Y11084600D01*
X16065401D01*
Y11237300D01*
D02*
G37*
G36*
X15957300D02*
X15874600D01*
Y11084600D01*
X15957300D01*
Y11237300D01*
D02*
G37*
G36*
X13425000Y13635001D02*
X13214999D01*
Y13425000D01*
X13279218D01*
Y13259393D01*
X13221162Y13201338D01*
X13212321Y13188107D01*
X13209216Y13172501D01*
X13209216Y13172498D01*
Y13045000D01*
X13164999D01*
Y12735000D01*
X13335001D01*
Y12742144D01*
X13348859Y12747884D01*
X13659412Y12437330D01*
Y11132670D01*
X13597330Y11070588D01*
X13574690D01*
Y11109610D01*
X13425311D01*
Y11061360D01*
X13354691D01*
Y11109610D01*
X13205312D01*
Y10970390D01*
X13298766D01*
Y10925224D01*
X13295561Y10923083D01*
X13289603Y10914163D01*
X13287509Y10903642D01*
Y10846607D01*
X13283698Y10841964D01*
X13199396D01*
Y10837940D01*
X13182018D01*
X13182018Y10837941D01*
X13173238Y10836194D01*
X13165796Y10831221D01*
X13165794Y10831221D01*
X13147514Y10812941D01*
X13122179D01*
X13114691Y10820428D01*
Y10917060D01*
X12965311D01*
Y10878038D01*
X12638251D01*
X12636197Y10885704D01*
X12624019Y10906796D01*
X12606797Y10924019D01*
X12585704Y10936196D01*
X12562178Y10942500D01*
X12537823D01*
X12514297Y10936196D01*
X12493204Y10924019D01*
X12475982Y10906796D01*
X12463804Y10885704D01*
X12457501Y10862178D01*
Y10837822D01*
X12463804Y10814297D01*
X12475982Y10793204D01*
X12493204Y10775982D01*
X12514297Y10763804D01*
X12537823Y10757500D01*
X12562178D01*
X12585704Y10763804D01*
X12606797Y10775982D01*
X12624019Y10793204D01*
X12636197Y10814297D01*
X12636884Y10816863D01*
X12965311D01*
Y10777840D01*
X13092393D01*
X13096454Y10773779D01*
X13103897Y10768806D01*
X13112675Y10767060D01*
X13147514D01*
X13165796Y10748779D01*
X13165796Y10748779D01*
X13171925Y10744683D01*
X13173599Y10741396D01*
X13175601Y10728042D01*
X13147456Y10699899D01*
X13147456Y10699898D01*
X13129691Y10682133D01*
X13114691Y10688346D01*
Y10702160D01*
X12965311D01*
Y10655491D01*
X12914691D01*
Y10702160D01*
X12765311D01*
Y10562940D01*
X12914691D01*
Y10609610D01*
X12965311D01*
Y10562940D01*
X13114691D01*
Y10629415D01*
X13132356D01*
X13141135Y10631161D01*
X13148578Y10636134D01*
X13163680Y10651235D01*
X13166135Y10648779D01*
X13173576Y10643806D01*
X13182356Y10642059D01*
X13212157D01*
X13215839Y10639600D01*
X13226360Y10637508D01*
X13273033D01*
X13284305Y10634304D01*
X13287509Y10623032D01*
Y10576358D01*
X13289603Y10565837D01*
X13295561Y10556918D01*
X13298766Y10554777D01*
Y10512160D01*
X13205312D01*
Y10372940D01*
X13354691D01*
Y10418640D01*
X13425311D01*
Y10372940D01*
X13574690D01*
Y10512160D01*
X13481236D01*
Y10554776D01*
X13484441Y10556918D01*
X13490401Y10565837D01*
X13492494Y10576358D01*
Y10623032D01*
X13495699Y10634304D01*
X13506969Y10637508D01*
X13553642D01*
X13564165Y10639600D01*
X13573083Y10645560D01*
X13579044Y10654479D01*
X13581136Y10665000D01*
X13579044Y10675521D01*
X13578015Y10677060D01*
X13586034Y10692060D01*
X13608029D01*
X13617841Y10682247D01*
Y10565310D01*
X13757060D01*
Y10714690D01*
X13650284D01*
X13633752Y10731222D01*
X13631573Y10732677D01*
X13629526Y10744048D01*
X13629556Y10748030D01*
X13630174Y10750280D01*
X13645204Y10765310D01*
X13757060D01*
Y10914690D01*
X13617841D01*
Y10802833D01*
X13602950Y10787941D01*
X13586034D01*
X13578015Y10802941D01*
X13579044Y10804479D01*
X13581136Y10815000D01*
X13579044Y10825521D01*
X13573083Y10834440D01*
X13564165Y10840400D01*
X13557420Y10841741D01*
X13553941Y10854037D01*
X13554025Y10857334D01*
X13559036Y10862344D01*
X13565126Y10877045D01*
Y10892958D01*
X13559036Y10907660D01*
X13547784Y10918912D01*
X13533083Y10925002D01*
X13517169D01*
X13503586Y10919375D01*
X13502432Y10918919D01*
X13484834Y10922493D01*
X13484441Y10923083D01*
X13481236Y10925223D01*
Y10970390D01*
X13574690D01*
Y11009413D01*
X13609999D01*
X13610001Y11009412D01*
X13621706Y11011741D01*
X13631628Y11018371D01*
X13711629Y11098371D01*
X13711629Y11098371D01*
X13718259Y11108295D01*
X13720589Y11120000D01*
X13720589Y11120001D01*
Y12449998D01*
X13720589Y12450000D01*
X13718259Y12461705D01*
X13711629Y12471629D01*
X13711629Y12471629D01*
X13335001Y12848257D01*
Y12942044D01*
X13335588Y12945000D01*
X13335001Y12947955D01*
Y13045000D01*
X13290784D01*
Y13155606D01*
X13348837Y13213661D01*
X13348837Y13213661D01*
X13357680Y13226894D01*
X13360783Y13242500D01*
X13360783Y13242500D01*
Y13425000D01*
X13425000D01*
Y13635001D01*
D02*
G37*
G36*
X11935401Y11217300D02*
X11782700D01*
Y11064600D01*
X11786291D01*
X11818246Y11070956D01*
X11848347Y11083425D01*
X11875437Y11101526D01*
X11898475Y11124564D01*
X11916576Y11151654D01*
X11929044Y11181755D01*
X11935401Y11213710D01*
Y11217300D01*
D02*
G37*
G36*
X11757300D02*
X11604601D01*
Y11213710D01*
X11610957Y11181755D01*
X11623425Y11151654D01*
X11641526Y11124564D01*
X11664564Y11101526D01*
X11691654Y11083425D01*
X11721755Y11070956D01*
X11753710Y11064600D01*
X11757300D01*
Y11217300D01*
D02*
G37*
G36*
X13125092Y11092560D02*
X13052701D01*
Y11025250D01*
X13125092D01*
Y11092560D01*
D02*
G37*
G36*
X13027301D02*
X12954910D01*
Y11025250D01*
X13027301D01*
Y11092560D01*
D02*
G37*
G36*
X13125092Y10999850D02*
X13052701D01*
Y10932540D01*
X13125092D01*
Y10999850D01*
D02*
G37*
G36*
X13027301D02*
X12954910D01*
Y10932540D01*
X13027301D01*
Y10999850D01*
D02*
G37*
G36*
X11786291Y10635400D02*
X11782701D01*
Y10482700D01*
X11935401D01*
Y10486291D01*
X11929044Y10518246D01*
X11916576Y10548346D01*
X11898475Y10575437D01*
X11875437Y10598475D01*
X11848347Y10616576D01*
X11818246Y10629044D01*
X11786291Y10635400D01*
D02*
G37*
G36*
X11757301D02*
X11753710D01*
X11721755Y10629044D01*
X11691654Y10616576D01*
X11664564Y10598475D01*
X11641526Y10575437D01*
X11623425Y10548346D01*
X11610957Y10518246D01*
X11604601Y10486291D01*
Y10482700D01*
X11757301D01*
Y10635400D01*
D02*
G37*
G36*
X13125092Y10547460D02*
X13052701D01*
Y10480149D01*
X13125092D01*
Y10547460D01*
D02*
G37*
G36*
X12925092D02*
X12852699D01*
Y10480149D01*
X12925092D01*
Y10547460D01*
D02*
G37*
G36*
X12827299D02*
X12754911D01*
Y10480149D01*
X12827299D01*
Y10547460D01*
D02*
G37*
G36*
X13027301D02*
X12954910D01*
Y10480149D01*
X13027301D01*
Y10547460D01*
D02*
G37*
G36*
X15277460Y10535090D02*
X15210150D01*
Y10462700D01*
X15277460D01*
Y10535090D01*
D02*
G37*
G36*
X15184750D02*
X15117439D01*
Y10462700D01*
X15184750D01*
Y10535090D01*
D02*
G37*
G36*
X16055400Y10615400D02*
X15972701D01*
Y10462700D01*
X16055400D01*
Y10615400D01*
D02*
G37*
G36*
X15947301D02*
X15864600D01*
Y10462700D01*
X15947301D01*
Y10615400D01*
D02*
G37*
G36*
X13125092Y10454749D02*
X13052701D01*
Y10387440D01*
X13125092D01*
Y10454749D01*
D02*
G37*
G36*
X13027301D02*
X12954910D01*
Y10387440D01*
X13027301D01*
Y10454749D01*
D02*
G37*
G36*
X12925092D02*
X12852699D01*
Y10387440D01*
X12925092D01*
Y10454749D01*
D02*
G37*
G36*
X12827299D02*
X12754911D01*
Y10387440D01*
X12827299D01*
Y10454749D01*
D02*
G37*
G36*
X15277460Y10437300D02*
X15210150D01*
Y10364910D01*
X15277460D01*
Y10437300D01*
D02*
G37*
G36*
X15184750D02*
X15117439D01*
Y10364910D01*
X15184750D01*
Y10437300D01*
D02*
G37*
G36*
X11935401Y10457300D02*
X11782701D01*
Y10304600D01*
X11786291D01*
X11818246Y10310956D01*
X11848347Y10323425D01*
X11875437Y10341526D01*
X11898475Y10364564D01*
X11916576Y10391654D01*
X11929044Y10421755D01*
X11935401Y10453710D01*
Y10457300D01*
D02*
G37*
G36*
X11757301D02*
X11604601D01*
Y10453710D01*
X11610957Y10421755D01*
X11623425Y10391654D01*
X11641526Y10364564D01*
X11664564Y10341526D01*
X11691654Y10323425D01*
X11721755Y10310956D01*
X11753710Y10304600D01*
X11757301D01*
Y10457300D01*
D02*
G37*
G36*
X13365091Y10357460D02*
X13292702D01*
Y10290149D01*
X13365091D01*
Y10357460D01*
D02*
G37*
G36*
X13585091D02*
X13512701D01*
Y10290149D01*
X13585091D01*
Y10357460D01*
D02*
G37*
G36*
X13487302D02*
X13414911D01*
Y10290149D01*
X13487302D01*
Y10357460D01*
D02*
G37*
G36*
X13267302D02*
X13194911D01*
Y10290149D01*
X13267302D01*
Y10357460D01*
D02*
G37*
G36*
X16055400Y10437300D02*
X15972701D01*
Y10284600D01*
X16055400D01*
Y10437300D01*
D02*
G37*
G36*
X15947301D02*
X15864600D01*
Y10284600D01*
X15947301D01*
Y10437300D01*
D02*
G37*
G36*
X17386292Y10395400D02*
X17382703D01*
Y10242700D01*
X17535400D01*
Y10246290D01*
X17529045Y10278245D01*
X17516576Y10308346D01*
X17498476Y10335436D01*
X17475436Y10358474D01*
X17448347Y10376575D01*
X17418246Y10389044D01*
X17386292Y10395400D01*
D02*
G37*
G36*
X17357301D02*
X17353709D01*
X17321754Y10389044D01*
X17291655Y10376575D01*
X17264565Y10358474D01*
X17241525Y10335436D01*
X17223425Y10308346D01*
X17210957Y10278245D01*
X17204601Y10246290D01*
Y10242700D01*
X17357301D01*
Y10395400D01*
D02*
G37*
G36*
X13585091Y10264749D02*
X13512701D01*
Y10197440D01*
X13585091D01*
Y10264749D01*
D02*
G37*
G36*
X13487302D02*
X13414911D01*
Y10197440D01*
X13487302D01*
Y10264749D01*
D02*
G37*
G36*
X13365091D02*
X13292702D01*
Y10197440D01*
X13365091D01*
Y10264749D01*
D02*
G37*
G36*
X13267302D02*
X13194911D01*
Y10197440D01*
X13267302D01*
Y10264749D01*
D02*
G37*
G36*
X15785001Y10605000D02*
X15614999D01*
Y10526236D01*
X15360001D01*
X15356268Y10524690D01*
X15292940D01*
Y10375310D01*
X15356268D01*
X15360001Y10373764D01*
X15614999D01*
Y10295000D01*
X15618764D01*
Y10252500D01*
X15255000D01*
Y10155000D01*
X15200758D01*
X15097955Y10257802D01*
X15088033Y10264433D01*
X15076328Y10266761D01*
X15076324Y10266761D01*
X15049808D01*
X15042657Y10273910D01*
X15027957Y10280000D01*
X15012044D01*
X14997342Y10273910D01*
X14986090Y10262658D01*
X14980000Y10247957D01*
Y10232044D01*
X14986090Y10217342D01*
X14997342Y10206090D01*
X15012044Y10200000D01*
X15027957D01*
X15041441Y10205586D01*
X15063657D01*
X15157500Y10111742D01*
Y10055588D01*
X15120981D01*
X15117657Y10058910D01*
X15102957Y10065000D01*
X15087044D01*
X15072342Y10058910D01*
X15061090Y10047658D01*
X15055000Y10032957D01*
Y10017043D01*
X15061090Y10002342D01*
X15072342Y9991090D01*
X15087044Y9985000D01*
X15102957D01*
X15117657Y9991090D01*
X15120981Y9994412D01*
X15157500D01*
Y9905588D01*
X14525002D01*
X14525000Y9905588D01*
X14513295Y9903259D01*
X14503372Y9896629D01*
X14223561Y9616819D01*
X14216931Y9606895D01*
X14214603Y9595190D01*
X14214603Y9595189D01*
Y7235310D01*
X13903983Y6924690D01*
X13802940D01*
Y6775310D01*
X13942160D01*
Y6876352D01*
X14266818Y7201011D01*
X14273450Y7210935D01*
X14275778Y7222640D01*
Y9582520D01*
X14537669Y9844412D01*
X15157500D01*
Y9805588D01*
X15117320D01*
X15105614Y9803259D01*
X15095691Y9796629D01*
X15095691Y9796628D01*
X15062199Y9763138D01*
X15034689D01*
Y9802160D01*
X14885310D01*
Y9763138D01*
X14814690D01*
Y9802160D01*
X14665311D01*
Y9662940D01*
X14814690D01*
Y9701963D01*
X14885310D01*
Y9662940D01*
X15034689D01*
Y9701963D01*
X15074869D01*
X15074870Y9701962D01*
X15086575Y9704291D01*
X15096500Y9710921D01*
X15129990Y9744412D01*
X15157500D01*
Y9655588D01*
X15124870D01*
X15124870Y9655588D01*
X15113165Y9653259D01*
X15103241Y9646629D01*
X15054649Y9598038D01*
X15034689D01*
Y9637060D01*
X14885310D01*
Y9497840D01*
X15034689D01*
Y9536863D01*
X15067319D01*
X15067320Y9536862D01*
X15079025Y9539191D01*
X15088950Y9545821D01*
X15137540Y9594412D01*
X15157500D01*
Y9545000D01*
X15255000D01*
Y9447500D01*
X15628764D01*
Y9405000D01*
X15625000D01*
Y9362957D01*
X15624413Y9360000D01*
X15625000Y9357043D01*
Y9326236D01*
X15360001D01*
X15356268Y9324690D01*
X15292940D01*
Y9175310D01*
X15356268D01*
X15360001Y9173764D01*
X15625000D01*
Y9095000D01*
X15795000D01*
Y9377016D01*
X15796236Y9380001D01*
Y9447500D01*
X15864999D01*
Y9545000D01*
X15962500D01*
Y9645000D01*
Y9765153D01*
X16178099Y9773777D01*
X16181418Y9775310D01*
X16247060D01*
Y9924690D01*
X16181418D01*
X16178099Y9926223D01*
X15962500Y9934847D01*
Y10045000D01*
Y10155000D01*
X15864999D01*
Y10252500D01*
X15786237D01*
Y10320000D01*
X15785001Y10322985D01*
Y10605000D01*
D02*
G37*
G36*
X17535400Y10217300D02*
X17382703D01*
Y10064600D01*
X17386292D01*
X17418246Y10070956D01*
X17448347Y10083424D01*
X17475436Y10101525D01*
X17498476Y10124563D01*
X17516576Y10151654D01*
X17529045Y10181754D01*
X17535400Y10213709D01*
Y10217300D01*
D02*
G37*
G36*
X17357301D02*
X17204601D01*
Y10213709D01*
X17210957Y10181754D01*
X17223425Y10151654D01*
X17241525Y10124563D01*
X17264565Y10101525D01*
X17291655Y10083424D01*
X17321754Y10070956D01*
X17353709Y10064600D01*
X17357301D01*
Y10217300D01*
D02*
G37*
G36*
X16602179Y9942500D02*
X16577823D01*
X16554297Y9936196D01*
X16533205Y9924018D01*
X16515982Y9906796D01*
X16503806Y9885703D01*
X16500385Y9872941D01*
X16412160D01*
Y9924690D01*
X16272940D01*
Y9775310D01*
X16412160D01*
Y9827060D01*
X16500385D01*
X16503806Y9814296D01*
X16515982Y9793204D01*
X16533205Y9775981D01*
X16554297Y9763804D01*
X16577823Y9757500D01*
X16602179D01*
X16625703Y9763804D01*
X16646797Y9775981D01*
X16664018Y9793204D01*
X16676196Y9814296D01*
X16682501Y9837822D01*
Y9862178D01*
X16676196Y9885703D01*
X16664018Y9906796D01*
X16646797Y9924018D01*
X16625703Y9936196D01*
X16602179Y9942500D01*
D02*
G37*
G36*
X14825090Y9647460D02*
X14752699D01*
Y9580151D01*
X14825090D01*
Y9647460D01*
D02*
G37*
G36*
X14727299D02*
X14654910D01*
Y9580151D01*
X14727299D01*
Y9647460D01*
D02*
G37*
G36*
X14825090Y9554751D02*
X14752699D01*
Y9487440D01*
X14825090D01*
Y9554751D01*
D02*
G37*
G36*
X14727299D02*
X14654910D01*
Y9487440D01*
X14727299D01*
Y9554751D01*
D02*
G37*
G36*
X17386292Y9635400D02*
X17382701D01*
Y9482699D01*
X17535400D01*
Y9486290D01*
X17529045Y9518245D01*
X17516576Y9548346D01*
X17498476Y9575436D01*
X17475436Y9598474D01*
X17448347Y9616575D01*
X17418246Y9629044D01*
X17386292Y9635400D01*
D02*
G37*
G36*
X17357301D02*
X17353709D01*
X17321754Y9629044D01*
X17291655Y9616575D01*
X17264565Y9598474D01*
X17241525Y9575436D01*
X17223425Y9548346D01*
X17210957Y9518245D01*
X17204601Y9486290D01*
Y9482699D01*
X17357301D01*
Y9635400D01*
D02*
G37*
G36*
X17535400Y9457299D02*
X17382701D01*
Y9304600D01*
X17386292D01*
X17418246Y9310956D01*
X17448347Y9323424D01*
X17475436Y9341525D01*
X17498476Y9364563D01*
X17516576Y9391654D01*
X17529045Y9421754D01*
X17535400Y9453709D01*
Y9457299D01*
D02*
G37*
G36*
X17357301D02*
X17204601D01*
Y9453709D01*
X17210957Y9421754D01*
X17223425Y9391654D01*
X17241525Y9364563D01*
X17264565Y9341525D01*
X17291655Y9323424D01*
X17321754Y9310956D01*
X17353709Y9304600D01*
X17357301D01*
Y9457299D01*
D02*
G37*
G36*
X16065401Y9415400D02*
X15982700D01*
Y9262700D01*
X16065401D01*
Y9415400D01*
D02*
G37*
G36*
X15957300D02*
X15874600D01*
Y9262700D01*
X15957300D01*
Y9415400D01*
D02*
G37*
G36*
X15277460Y9335090D02*
X15210150D01*
Y9262700D01*
X15277460D01*
Y9335090D01*
D02*
G37*
G36*
X15184750D02*
X15117439D01*
Y9262700D01*
X15184750D01*
Y9335090D01*
D02*
G37*
G36*
X15277460Y9237300D02*
X15210150D01*
Y9164910D01*
X15277460D01*
Y9237300D01*
D02*
G37*
G36*
X15184750D02*
X15117439D01*
Y9164910D01*
X15184750D01*
Y9237300D01*
D02*
G37*
G36*
X16065401Y9237300D02*
X15982700D01*
Y9084600D01*
X16065401D01*
Y9237300D01*
D02*
G37*
G36*
X15957300D02*
X15874600D01*
Y9084600D01*
X15957300D01*
Y9237300D01*
D02*
G37*
G36*
X15277460Y8535090D02*
X15210150D01*
Y8462700D01*
X15277460D01*
Y8535090D01*
D02*
G37*
G36*
X15184750D02*
X15117439D01*
Y8462700D01*
X15184750D01*
Y8535090D01*
D02*
G37*
G36*
X16055400Y8615400D02*
X15972701D01*
Y8462700D01*
X16055400D01*
Y8615400D01*
D02*
G37*
G36*
X15947301D02*
X15864600D01*
Y8462700D01*
X15947301D01*
Y8615400D01*
D02*
G37*
G36*
X15277460Y8437300D02*
X15210150D01*
Y8364910D01*
X15277460D01*
Y8437300D01*
D02*
G37*
G36*
X15184750D02*
X15117439D01*
Y8364910D01*
X15184750D01*
Y8437300D01*
D02*
G37*
G36*
X16055400Y8437300D02*
X15972701D01*
Y8284600D01*
X16055400D01*
Y8437300D01*
D02*
G37*
G36*
X15947301D02*
X15864600D01*
Y8284600D01*
X15947301D01*
Y8437300D01*
D02*
G37*
G36*
X17386292Y8395400D02*
X17382703D01*
Y8242700D01*
X17535400D01*
Y8246291D01*
X17529045Y8278246D01*
X17516576Y8308346D01*
X17498476Y8335436D01*
X17475436Y8358475D01*
X17448347Y8376576D01*
X17418246Y8389044D01*
X17386292Y8395400D01*
D02*
G37*
G36*
X17357301D02*
X17353709D01*
X17321754Y8389044D01*
X17291655Y8376576D01*
X17264565Y8358475D01*
X17241525Y8335436D01*
X17223425Y8308346D01*
X17210957Y8278246D01*
X17204601Y8246291D01*
Y8242700D01*
X17357301D01*
Y8395400D01*
D02*
G37*
G36*
X15785001Y8605000D02*
X15614999D01*
Y8526236D01*
X15360001D01*
X15356268Y8524690D01*
X15292940D01*
Y8375310D01*
X15356268D01*
X15360001Y8373764D01*
X15614999D01*
Y8295000D01*
X15618764D01*
Y8252500D01*
X15255000D01*
Y8155000D01*
X15200758D01*
X15097955Y8257802D01*
X15088033Y8264433D01*
X15076328Y8266761D01*
X15076324Y8266761D01*
X15049808D01*
X15042657Y8273910D01*
X15027957Y8280000D01*
X15012044D01*
X14997342Y8273910D01*
X14986090Y8262658D01*
X14980000Y8247957D01*
Y8232043D01*
X14986090Y8217342D01*
X14997342Y8206090D01*
X15012044Y8200000D01*
X15027957D01*
X15041441Y8205586D01*
X15063657D01*
X15157500Y8111742D01*
Y8055588D01*
X15120981D01*
X15117657Y8058910D01*
X15102957Y8065000D01*
X15087044D01*
X15072342Y8058910D01*
X15061090Y8047658D01*
X15055000Y8032957D01*
Y8017043D01*
X15061090Y8002342D01*
X15072342Y7991090D01*
X15087044Y7985000D01*
X15102957D01*
X15117657Y7991090D01*
X15120981Y7994412D01*
X15157500D01*
Y7905588D01*
X14568610D01*
X14557957Y7910000D01*
X14542044D01*
X14527342Y7903910D01*
X14516090Y7892658D01*
X14510001Y7877957D01*
Y7862043D01*
X14516090Y7847342D01*
X14527342Y7836090D01*
X14542044Y7830000D01*
X14557957D01*
X14572658Y7836090D01*
X14580981Y7844412D01*
X15157500D01*
Y7805588D01*
X15117320D01*
X15105614Y7803259D01*
X15095691Y7796629D01*
X15095691Y7796628D01*
X15062199Y7763138D01*
X15034689D01*
Y7802160D01*
X14885310D01*
Y7763138D01*
X14814690D01*
Y7802160D01*
X14665311D01*
Y7662940D01*
X14814690D01*
Y7701962D01*
X14885310D01*
Y7662940D01*
X15034689D01*
Y7701962D01*
X15074869D01*
X15074870Y7701962D01*
X15086575Y7704291D01*
X15096500Y7710921D01*
X15129990Y7744412D01*
X15157500D01*
Y7655588D01*
X15124870D01*
X15124870Y7655588D01*
X15113165Y7653259D01*
X15103241Y7646629D01*
X15054649Y7598038D01*
X15034689D01*
Y7637060D01*
X14885310D01*
Y7497840D01*
X15034689D01*
Y7536862D01*
X15067319D01*
X15067320Y7536862D01*
X15079025Y7539191D01*
X15088950Y7545821D01*
X15137540Y7594412D01*
X15157500D01*
Y7545000D01*
X15255000D01*
Y7447500D01*
X15628764D01*
Y7405000D01*
X15625000D01*
Y7362957D01*
X15624413Y7360000D01*
X15625000Y7357043D01*
Y7326236D01*
X15360001D01*
X15356268Y7324690D01*
X15292940D01*
Y7175310D01*
X15356268D01*
X15360001Y7173764D01*
X15625000D01*
Y7095000D01*
X15795000D01*
Y7377016D01*
X15796236Y7380000D01*
Y7447500D01*
X15864999D01*
Y7545000D01*
X15962500D01*
Y7645000D01*
Y7765153D01*
X16178099Y7773777D01*
X16181418Y7775310D01*
X16247060D01*
Y7924690D01*
X16181418D01*
X16178099Y7926223D01*
X15962500Y7934847D01*
Y8045000D01*
Y8155000D01*
X15864999D01*
Y8252500D01*
X15786237D01*
Y8320000D01*
X15785001Y8322985D01*
Y8605000D01*
D02*
G37*
G36*
X17535400Y8217300D02*
X17382703D01*
Y8064600D01*
X17386292D01*
X17418246Y8070956D01*
X17448347Y8083425D01*
X17475436Y8101526D01*
X17498476Y8124564D01*
X17516576Y8151654D01*
X17529045Y8181755D01*
X17535400Y8213710D01*
Y8217300D01*
D02*
G37*
G36*
X17357301D02*
X17204601D01*
Y8213710D01*
X17210957Y8181755D01*
X17223425Y8151654D01*
X17241525Y8124564D01*
X17264565Y8101526D01*
X17291655Y8083425D01*
X17321754Y8070956D01*
X17353709Y8064600D01*
X17357301D01*
Y8217300D01*
D02*
G37*
G36*
X13922160Y10714690D02*
X13782941D01*
Y10565310D01*
X13821964D01*
Y8277450D01*
X13821964Y8277449D01*
X13824292Y8265744D01*
X13830922Y8255820D01*
X14030000Y8056742D01*
Y8052043D01*
X14036090Y8037342D01*
X14047342Y8026090D01*
X14062044Y8020000D01*
X14077957D01*
X14092657Y8026090D01*
X14103911Y8037342D01*
X14110001Y8052043D01*
Y8067956D01*
X14103911Y8082658D01*
X14092657Y8093910D01*
X14077957Y8100000D01*
X14073257D01*
X13883139Y8290119D01*
Y10565310D01*
X13922160D01*
Y10714690D01*
D02*
G37*
G36*
X16602179Y7942500D02*
X16577823D01*
X16554297Y7936196D01*
X16533205Y7924018D01*
X16515982Y7906796D01*
X16503806Y7885704D01*
X16500385Y7872941D01*
X16412160D01*
Y7924690D01*
X16272940D01*
Y7775310D01*
X16412160D01*
Y7827060D01*
X16500385D01*
X16503806Y7814297D01*
X16515982Y7793204D01*
X16533205Y7775982D01*
X16554297Y7763804D01*
X16577823Y7757500D01*
X16602179D01*
X16625703Y7763804D01*
X16646797Y7775982D01*
X16664018Y7793204D01*
X16676196Y7814297D01*
X16682501Y7837822D01*
Y7862178D01*
X16676196Y7885704D01*
X16664018Y7906796D01*
X16646797Y7924018D01*
X16625703Y7936196D01*
X16602179Y7942500D01*
D02*
G37*
G36*
X14825090Y7647460D02*
X14752699D01*
Y7580151D01*
X14825090D01*
Y7647460D01*
D02*
G37*
G36*
X14727299D02*
X14654910D01*
Y7580151D01*
X14727299D01*
Y7647460D01*
D02*
G37*
G36*
X14825090Y7554751D02*
X14752699D01*
Y7487440D01*
X14825090D01*
Y7554751D01*
D02*
G37*
G36*
X14727299D02*
X14654910D01*
Y7487440D01*
X14727299D01*
Y7554751D01*
D02*
G37*
G36*
X17386292Y7635400D02*
X17382701D01*
Y7482699D01*
X17535400D01*
Y7486291D01*
X17529045Y7518246D01*
X17516576Y7548346D01*
X17498476Y7575436D01*
X17475436Y7598475D01*
X17448347Y7616576D01*
X17418246Y7629044D01*
X17386292Y7635400D01*
D02*
G37*
G36*
X17357301D02*
X17353709D01*
X17321754Y7629044D01*
X17291655Y7616576D01*
X17264565Y7598475D01*
X17241525Y7575436D01*
X17223425Y7548346D01*
X17210957Y7518246D01*
X17204601Y7486291D01*
Y7482699D01*
X17357301D01*
Y7635400D01*
D02*
G37*
G36*
X17535400Y7457299D02*
X17382701D01*
Y7304600D01*
X17386292D01*
X17418246Y7310956D01*
X17448347Y7323425D01*
X17475436Y7341526D01*
X17498476Y7364564D01*
X17516576Y7391654D01*
X17529045Y7421755D01*
X17535400Y7453710D01*
Y7457299D01*
D02*
G37*
G36*
X17357301D02*
X17204601D01*
Y7453710D01*
X17210957Y7421755D01*
X17223425Y7391654D01*
X17241525Y7364564D01*
X17264565Y7341526D01*
X17291655Y7323425D01*
X17321754Y7310956D01*
X17353709Y7304600D01*
X17357301D01*
Y7457299D01*
D02*
G37*
G36*
X16065401Y7415400D02*
X15982700D01*
Y7262700D01*
X16065401D01*
Y7415400D01*
D02*
G37*
G36*
X15957300D02*
X15874600D01*
Y7262700D01*
X15957300D01*
Y7415400D01*
D02*
G37*
G36*
X15277460Y7335090D02*
X15210150D01*
Y7262700D01*
X15277460D01*
Y7335090D01*
D02*
G37*
G36*
X15184750D02*
X15117439D01*
Y7262700D01*
X15184750D01*
Y7335090D01*
D02*
G37*
G36*
X11766291Y7395400D02*
X11762700D01*
Y7242700D01*
X11915401D01*
Y7246291D01*
X11909045Y7278246D01*
X11896576Y7308346D01*
X11878475Y7335436D01*
X11855437Y7358474D01*
X11828347Y7376576D01*
X11798246Y7389044D01*
X11766291Y7395400D01*
D02*
G37*
G36*
X11737300D02*
X11733710D01*
X11701755Y7389044D01*
X11671654Y7376576D01*
X11644564Y7358474D01*
X11621526Y7335436D01*
X11603425Y7308346D01*
X11590957Y7278246D01*
X11584601Y7246291D01*
Y7242700D01*
X11737300D01*
Y7395400D01*
D02*
G37*
G36*
X13605090Y7295110D02*
X13532700D01*
Y7227800D01*
X13605090D01*
Y7295110D01*
D02*
G37*
G36*
X13507300D02*
X13434911D01*
Y7227800D01*
X13507300D01*
Y7295110D01*
D02*
G37*
G36*
X13385091D02*
X13312701D01*
Y7227800D01*
X13385091D01*
Y7295110D01*
D02*
G37*
G36*
X13287302D02*
X13214911D01*
Y7227800D01*
X13287302D01*
Y7295110D01*
D02*
G37*
G36*
X15277460Y7237300D02*
X15210150D01*
Y7164910D01*
X15277460D01*
Y7237300D01*
D02*
G37*
G36*
X15184750D02*
X15117439D01*
Y7164910D01*
X15184750D01*
Y7237300D01*
D02*
G37*
G36*
X13605090Y7202400D02*
X13532700D01*
Y7135090D01*
X13605090D01*
Y7202400D01*
D02*
G37*
G36*
X13507300D02*
X13434911D01*
Y7135090D01*
X13507300D01*
Y7202400D01*
D02*
G37*
G36*
X13385091D02*
X13312701D01*
Y7135090D01*
X13385091D01*
Y7202400D01*
D02*
G37*
G36*
X13287302D02*
X13214911D01*
Y7135090D01*
X13287302D01*
Y7202400D01*
D02*
G37*
G36*
X16065401Y7237300D02*
X15982700D01*
Y7084600D01*
X16065401D01*
Y7237300D01*
D02*
G37*
G36*
X15957300D02*
X15874600D01*
Y7084600D01*
X15957300D01*
Y7237300D01*
D02*
G37*
G36*
X13594690Y7119610D02*
X13445309D01*
Y7066484D01*
X13374690D01*
Y7119610D01*
X13225311D01*
Y6980390D01*
X13323766D01*
Y6938565D01*
X13315559Y6933082D01*
X13309601Y6924163D01*
X13307507Y6913642D01*
Y6856607D01*
X13303697Y6851964D01*
X13219394D01*
Y6847940D01*
X13202019D01*
X13202016Y6847941D01*
X13193237Y6846194D01*
X13185796Y6841221D01*
X13185794Y6841221D01*
X13167514Y6822941D01*
X13142177D01*
X13134691Y6830428D01*
Y6927060D01*
X12985310D01*
Y6884313D01*
X12616569D01*
X12616197Y6885704D01*
X12604019Y6906796D01*
X12586797Y6924018D01*
X12565704Y6936196D01*
X12542178Y6942500D01*
X12517823D01*
X12494297Y6936196D01*
X12473204Y6924018D01*
X12455982Y6906796D01*
X12443804Y6885704D01*
X12437501Y6862178D01*
Y6837822D01*
X12443804Y6814297D01*
X12455982Y6793204D01*
X12473204Y6775982D01*
X12494297Y6763804D01*
X12517823Y6757500D01*
X12542178D01*
X12565704Y6763804D01*
X12586797Y6775982D01*
X12604019Y6793204D01*
X12616197Y6814297D01*
X12618566Y6823137D01*
X12985310D01*
Y6787840D01*
X13112392D01*
X13116454Y6783779D01*
X13123895Y6778806D01*
X13132675Y6777060D01*
X13167514D01*
X13185796Y6758779D01*
X13185796Y6758778D01*
X13191925Y6754682D01*
X13193599Y6751396D01*
X13195599Y6738042D01*
X13167458Y6709899D01*
X13167456Y6709898D01*
X13149690Y6692133D01*
X13134691Y6698346D01*
Y6712160D01*
X12985310D01*
Y6665491D01*
X12934689D01*
Y6712160D01*
X12785310D01*
Y6572940D01*
X12934689D01*
Y6619610D01*
X12985310D01*
Y6572940D01*
X13134691D01*
Y6639414D01*
X13152354D01*
X13161134Y6641161D01*
X13168578Y6646134D01*
X13183678Y6661235D01*
X13186134Y6658778D01*
X13193578Y6653806D01*
X13202356Y6652059D01*
X13232156D01*
X13235837Y6649600D01*
X13246358Y6647507D01*
X13293033D01*
X13304305Y6644303D01*
X13307507Y6633032D01*
Y6586358D01*
X13309601Y6575837D01*
X13315559Y6566918D01*
X13323766Y6561435D01*
Y6522160D01*
X13225311D01*
Y6382940D01*
X13374690D01*
Y6423764D01*
X13445309D01*
Y6382940D01*
X13594690D01*
Y6522160D01*
X13506236D01*
Y6569605D01*
X13510400Y6575837D01*
X13512492Y6586358D01*
Y6633032D01*
X13515697Y6644303D01*
X13526968Y6647507D01*
X13573643D01*
X13584164Y6649600D01*
X13593083Y6655560D01*
X13599042Y6664479D01*
X13601135Y6675000D01*
X13599042Y6685521D01*
X13598013Y6687060D01*
X13606032Y6702059D01*
X13628027D01*
X13637840Y6692247D01*
Y6575310D01*
X13777060D01*
Y6724690D01*
X13670284D01*
X13653752Y6741221D01*
X13651573Y6742677D01*
X13649524Y6754048D01*
X13649556Y6758030D01*
X13650172Y6760280D01*
X13665202Y6775310D01*
X13777060D01*
Y6924690D01*
X13637840D01*
Y6812833D01*
X13622948Y6797940D01*
X13606032D01*
X13598013Y6812940D01*
X13599042Y6814479D01*
X13601135Y6825000D01*
X13599042Y6835521D01*
X13593083Y6844440D01*
X13586572Y6848790D01*
X13583209Y6859795D01*
X13582578Y6866009D01*
X13584036Y6867467D01*
X13590126Y6882169D01*
Y6898082D01*
X13584036Y6912783D01*
X13572784Y6924036D01*
X13558083Y6930125D01*
X13542169D01*
X13527467Y6924036D01*
X13526010Y6922577D01*
X13519795Y6923209D01*
X13508791Y6926572D01*
X13506236Y6930394D01*
Y6980390D01*
X13594690D01*
Y7119610D01*
D02*
G37*
G36*
X11915401Y7217300D02*
X11762700D01*
Y7064600D01*
X11766291D01*
X11798246Y7070956D01*
X11828347Y7083424D01*
X11855437Y7101526D01*
X11878475Y7124564D01*
X11896576Y7151654D01*
X11909045Y7181754D01*
X11915401Y7213709D01*
Y7217300D01*
D02*
G37*
G36*
X11737300D02*
X11584601D01*
Y7213709D01*
X11590957Y7181754D01*
X11603425Y7151654D01*
X11621526Y7124564D01*
X11644564Y7101526D01*
X11671654Y7083424D01*
X11701755Y7070956D01*
X11733710Y7064600D01*
X11737300D01*
Y7217300D01*
D02*
G37*
G36*
X13145091Y7102560D02*
X13072701D01*
Y7035250D01*
X13145091D01*
Y7102560D01*
D02*
G37*
G36*
X13047301D02*
X12974911D01*
Y7035250D01*
X13047301D01*
Y7102560D01*
D02*
G37*
G36*
X13145091Y7009850D02*
X13072701D01*
Y6942540D01*
X13145091D01*
Y7009850D01*
D02*
G37*
G36*
X13047301D02*
X12974911D01*
Y6942540D01*
X13047301D01*
Y7009850D01*
D02*
G37*
G36*
X12945090Y6557460D02*
X12872701D01*
Y6490150D01*
X12945090D01*
Y6557460D01*
D02*
G37*
G36*
X13145091D02*
X13072701D01*
Y6490150D01*
X13145091D01*
Y6557460D01*
D02*
G37*
G36*
X13047301D02*
X12974911D01*
Y6490150D01*
X13047301D01*
Y6557460D01*
D02*
G37*
G36*
X12847301D02*
X12774910D01*
Y6490150D01*
X12847301D01*
Y6557460D01*
D02*
G37*
G36*
X11766291Y6635400D02*
X11762701D01*
Y6482700D01*
X11915401D01*
Y6486291D01*
X11909045Y6518246D01*
X11896576Y6548346D01*
X11878475Y6575436D01*
X11855437Y6598474D01*
X11828347Y6616576D01*
X11798246Y6629044D01*
X11766291Y6635400D01*
D02*
G37*
G36*
X11737301D02*
X11733710D01*
X11701755Y6629044D01*
X11671654Y6616576D01*
X11644564Y6598474D01*
X11621526Y6575436D01*
X11603425Y6548346D01*
X11590957Y6518246D01*
X11584601Y6486291D01*
Y6482700D01*
X11737301D01*
Y6635400D01*
D02*
G37*
G36*
X15277460Y6535090D02*
X15210150D01*
Y6462700D01*
X15277460D01*
Y6535090D01*
D02*
G37*
G36*
X15184750D02*
X15117439D01*
Y6462700D01*
X15184750D01*
Y6535090D01*
D02*
G37*
G36*
X16055400Y6615400D02*
X15972701D01*
Y6462700D01*
X16055400D01*
Y6615400D01*
D02*
G37*
G36*
X15947301D02*
X15864600D01*
Y6462700D01*
X15947301D01*
Y6615400D01*
D02*
G37*
G36*
X13145091Y6464750D02*
X13072701D01*
Y6397440D01*
X13145091D01*
Y6464750D01*
D02*
G37*
G36*
X13047301D02*
X12974911D01*
Y6397440D01*
X13047301D01*
Y6464750D01*
D02*
G37*
G36*
X12945090D02*
X12872701D01*
Y6397440D01*
X12945090D01*
Y6464750D01*
D02*
G37*
G36*
X12847301D02*
X12774910D01*
Y6397440D01*
X12847301D01*
Y6464750D01*
D02*
G37*
G36*
X15277460Y6437300D02*
X15210150D01*
Y6364910D01*
X15277460D01*
Y6437300D01*
D02*
G37*
G36*
X15184750D02*
X15117439D01*
Y6364910D01*
X15184750D01*
Y6437300D01*
D02*
G37*
G36*
X11915401Y6457300D02*
X11762701D01*
Y6304600D01*
X11766291D01*
X11798246Y6310956D01*
X11828347Y6323424D01*
X11855437Y6341526D01*
X11878475Y6364564D01*
X11896576Y6391654D01*
X11909045Y6421754D01*
X11915401Y6453709D01*
Y6457300D01*
D02*
G37*
G36*
X11737301D02*
X11584601D01*
Y6453709D01*
X11590957Y6421754D01*
X11603425Y6391654D01*
X11621526Y6364564D01*
X11644564Y6341526D01*
X11671654Y6323424D01*
X11701755Y6310956D01*
X11733710Y6304600D01*
X11737301D01*
Y6457300D01*
D02*
G37*
G36*
X13385091Y6367460D02*
X13312701D01*
Y6300150D01*
X13385091D01*
Y6367460D01*
D02*
G37*
G36*
X13605090D02*
X13532700D01*
Y6300150D01*
X13605090D01*
Y6367460D01*
D02*
G37*
G36*
X13507300D02*
X13434911D01*
Y6300150D01*
X13507300D01*
Y6367460D01*
D02*
G37*
G36*
X13287302D02*
X13214911D01*
Y6300150D01*
X13287302D01*
Y6367460D01*
D02*
G37*
G36*
X16055400Y6437300D02*
X15972701D01*
Y6284600D01*
X16055400D01*
Y6437300D01*
D02*
G37*
G36*
X15947301D02*
X15864600D01*
Y6284600D01*
X15947301D01*
Y6437300D01*
D02*
G37*
G36*
X17386292Y6395400D02*
X17382701D01*
Y6242699D01*
X17535400D01*
Y6246290D01*
X17529045Y6278245D01*
X17516576Y6308346D01*
X17498476Y6335436D01*
X17475436Y6358474D01*
X17448347Y6376575D01*
X17418246Y6389044D01*
X17386292Y6395400D01*
D02*
G37*
G36*
X17357301D02*
X17353709D01*
X17321754Y6389044D01*
X17291655Y6376575D01*
X17264565Y6358474D01*
X17241525Y6335436D01*
X17223425Y6308346D01*
X17210957Y6278245D01*
X17204601Y6246290D01*
Y6242699D01*
X17357301D01*
Y6395400D01*
D02*
G37*
G36*
X13605090Y6274750D02*
X13532700D01*
Y6207440D01*
X13605090D01*
Y6274750D01*
D02*
G37*
G36*
X13507300D02*
X13434911D01*
Y6207440D01*
X13507300D01*
Y6274750D01*
D02*
G37*
G36*
X13385091D02*
X13312701D01*
Y6207440D01*
X13385091D01*
Y6274750D01*
D02*
G37*
G36*
X13287302D02*
X13214911D01*
Y6207440D01*
X13287302D01*
Y6274750D01*
D02*
G37*
G36*
X17535400Y6217299D02*
X17382701D01*
Y6064600D01*
X17386292D01*
X17418246Y6070956D01*
X17448347Y6083424D01*
X17475436Y6101525D01*
X17498476Y6124563D01*
X17516576Y6151653D01*
X17529045Y6181754D01*
X17535400Y6213709D01*
Y6217299D01*
D02*
G37*
G36*
X17357301D02*
X17204601D01*
Y6213709D01*
X17210957Y6181754D01*
X17223425Y6151653D01*
X17241525Y6124563D01*
X17264565Y6101525D01*
X17291655Y6083424D01*
X17321754Y6070956D01*
X17353709Y6064600D01*
X17357301D01*
Y6217299D01*
D02*
G37*
G36*
X16602179Y5942500D02*
X16577823D01*
X16554297Y5936196D01*
X16533205Y5924018D01*
X16515982Y5906796D01*
X16503806Y5885703D01*
X16500385Y5872940D01*
X16412160D01*
Y5924690D01*
X16272940D01*
Y5775310D01*
X16412160D01*
Y5827059D01*
X16500385D01*
X16503806Y5814296D01*
X16515982Y5793204D01*
X16533205Y5775981D01*
X16554297Y5763804D01*
X16577823Y5757500D01*
X16602179D01*
X16625703Y5763804D01*
X16646797Y5775981D01*
X16664018Y5793204D01*
X16676196Y5814296D01*
X16682501Y5837822D01*
Y5862178D01*
X16676196Y5885703D01*
X16664018Y5906796D01*
X16646797Y5924018D01*
X16625703Y5936196D01*
X16602179Y5942500D01*
D02*
G37*
G36*
X13942160Y6724690D02*
X13802940D01*
Y6575310D01*
X13898903D01*
X14620840Y5853372D01*
X14620840Y5853371D01*
X14630765Y5846741D01*
X14642470Y5844412D01*
X14642471Y5844412D01*
X15157500D01*
Y5805588D01*
X15117320D01*
X15105614Y5803259D01*
X15095691Y5796629D01*
X15095691Y5796628D01*
X15062199Y5763138D01*
X15034689D01*
Y5802160D01*
X14885310D01*
Y5763138D01*
X14814690D01*
Y5802160D01*
X14665311D01*
Y5662940D01*
X14814690D01*
Y5701962D01*
X14885310D01*
Y5662940D01*
X15034689D01*
Y5701962D01*
X15074869D01*
X15074870Y5701962D01*
X15086575Y5704291D01*
X15096500Y5710921D01*
X15129990Y5744412D01*
X15157500D01*
Y5655588D01*
X15124870D01*
X15124870Y5655588D01*
X15113165Y5653259D01*
X15103241Y5646629D01*
X15054649Y5598038D01*
X15034689D01*
Y5637060D01*
X14885310D01*
Y5497840D01*
X15034689D01*
Y5536862D01*
X15067319D01*
X15067320Y5536862D01*
X15079025Y5539191D01*
X15088950Y5545821D01*
X15137540Y5594412D01*
X15157500D01*
Y5545000D01*
X15255000D01*
Y5447500D01*
X15628764D01*
Y5405000D01*
X15625000D01*
Y5362957D01*
X15624413Y5360000D01*
X15625000Y5357043D01*
Y5326236D01*
X15360001D01*
X15356268Y5324690D01*
X15292940D01*
Y5175310D01*
X15356268D01*
X15360001Y5173764D01*
X15625000D01*
Y5095000D01*
X15795000D01*
Y5377016D01*
X15796236Y5380000D01*
Y5447500D01*
X15864999D01*
Y5545000D01*
X15962500D01*
Y5645000D01*
Y5765153D01*
X16178099Y5773777D01*
X16181418Y5775310D01*
X16247060D01*
Y5924690D01*
X16181418D01*
X16178099Y5926223D01*
X15962500Y5934847D01*
Y6045000D01*
Y6155000D01*
X15864999D01*
Y6252500D01*
X15786237D01*
Y6320000D01*
X15785001Y6322985D01*
Y6605000D01*
X15614999D01*
Y6526236D01*
X15360001D01*
X15356268Y6524690D01*
X15292940D01*
Y6375310D01*
X15356268D01*
X15360001Y6373764D01*
X15614999D01*
Y6295000D01*
X15618764D01*
Y6252500D01*
X15255000D01*
Y6155000D01*
X15200758D01*
X15097955Y6257802D01*
X15088033Y6264432D01*
X15076328Y6266761D01*
X15076324Y6266761D01*
X15049808D01*
X15042657Y6273910D01*
X15027957Y6280000D01*
X15012044D01*
X14997342Y6273910D01*
X14986090Y6262658D01*
X14980000Y6247957D01*
Y6232043D01*
X14986090Y6217342D01*
X14997342Y6206090D01*
X15012044Y6200000D01*
X15027957D01*
X15041441Y6205586D01*
X15063657D01*
X15157500Y6111742D01*
Y6055588D01*
X15120981D01*
X15117657Y6058910D01*
X15102957Y6065000D01*
X15087044D01*
X15072342Y6058910D01*
X15061090Y6047658D01*
X15055000Y6032956D01*
Y6017043D01*
X15061090Y6002342D01*
X15072342Y5991090D01*
X15087044Y5985000D01*
X15102957D01*
X15117657Y5991090D01*
X15120981Y5994412D01*
X15157500D01*
Y5905588D01*
X14655141D01*
X13942160Y6618568D01*
Y6724690D01*
D02*
G37*
G36*
X14825090Y5647460D02*
X14752699D01*
Y5580151D01*
X14825090D01*
Y5647460D01*
D02*
G37*
G36*
X14727299D02*
X14654910D01*
Y5580151D01*
X14727299D01*
Y5647460D01*
D02*
G37*
G36*
X14825090Y5554751D02*
X14752699D01*
Y5487440D01*
X14825090D01*
Y5554751D01*
D02*
G37*
G36*
X14727299D02*
X14654910D01*
Y5487440D01*
X14727299D01*
Y5554751D01*
D02*
G37*
G36*
X17386292Y5635400D02*
X17382701D01*
Y5482699D01*
X17535400D01*
Y5486290D01*
X17529045Y5518245D01*
X17516576Y5548346D01*
X17498476Y5575436D01*
X17475436Y5598474D01*
X17448347Y5616575D01*
X17418246Y5629044D01*
X17386292Y5635400D01*
D02*
G37*
G36*
X17357301D02*
X17353709D01*
X17321754Y5629044D01*
X17291655Y5616575D01*
X17264565Y5598474D01*
X17241525Y5575436D01*
X17223425Y5548346D01*
X17210957Y5518245D01*
X17204601Y5486290D01*
Y5482699D01*
X17357301D01*
Y5635400D01*
D02*
G37*
G36*
X17535400Y5457299D02*
X17382701D01*
Y5304600D01*
X17386292D01*
X17418246Y5310956D01*
X17448347Y5323424D01*
X17475436Y5341525D01*
X17498476Y5364563D01*
X17516576Y5391653D01*
X17529045Y5421754D01*
X17535400Y5453709D01*
Y5457299D01*
D02*
G37*
G36*
X17357301D02*
X17204601D01*
Y5453709D01*
X17210957Y5421754D01*
X17223425Y5391653D01*
X17241525Y5364563D01*
X17264565Y5341525D01*
X17291655Y5323424D01*
X17321754Y5310956D01*
X17353709Y5304600D01*
X17357301D01*
Y5457299D01*
D02*
G37*
G36*
X16065401Y5415400D02*
X15982700D01*
Y5262700D01*
X16065401D01*
Y5415400D01*
D02*
G37*
G36*
X15957300D02*
X15874600D01*
Y5262700D01*
X15957300D01*
Y5415400D01*
D02*
G37*
G36*
X15277460Y5335090D02*
X15210150D01*
Y5262700D01*
X15277460D01*
Y5335090D01*
D02*
G37*
G36*
X15184750D02*
X15117439D01*
Y5262700D01*
X15184750D01*
Y5335090D01*
D02*
G37*
G36*
X15277460Y5237300D02*
X15210150D01*
Y5164910D01*
X15277460D01*
Y5237300D01*
D02*
G37*
G36*
X15184750D02*
X15117439D01*
Y5164910D01*
X15184750D01*
Y5237300D01*
D02*
G37*
G36*
X16065401Y5237300D02*
X15982700D01*
Y5084600D01*
X16065401D01*
Y5237300D01*
D02*
G37*
G36*
X15957300D02*
X15874600D01*
Y5084600D01*
X15957300D01*
Y5237300D01*
D02*
G37*
%LPD*%
G36*
X16180000Y11910000D02*
Y11790000D01*
X15900000Y11778800D01*
Y11921200D01*
X16180000Y11910000D01*
D02*
G37*
G36*
X15847501Y12095000D02*
Y12045000D01*
Y11995000D01*
Y11945000D01*
Y11895000D01*
Y11845000D01*
Y11795000D01*
Y11745000D01*
Y11695000D01*
Y11645000D01*
Y11595000D01*
Y11562500D01*
X15272501D01*
Y11595000D01*
Y11645000D01*
Y11695000D01*
Y11745000D01*
Y11795000D01*
Y11845000D01*
Y11895000D01*
Y11945000D01*
Y11995000D01*
Y12045000D01*
Y12095000D01*
Y12137500D01*
X15847501D01*
Y12095000D01*
D02*
G37*
%LPC*%
G36*
X15800400Y12090400D02*
X15572701D01*
Y11862700D01*
X15800400D01*
Y12090400D01*
D02*
G37*
G36*
X15547301D02*
X15319600D01*
Y11862700D01*
X15547301D01*
Y12090400D01*
D02*
G37*
G36*
X15800400Y11837300D02*
X15572701D01*
Y11609600D01*
X15800400D01*
Y11837300D01*
D02*
G37*
G36*
X15547301D02*
X15319600D01*
Y11609600D01*
X15547301D01*
Y11837300D01*
D02*
G37*
%LPD*%
G36*
X16177451Y9910000D02*
Y9790000D01*
X15897450Y9778800D01*
Y9921200D01*
X16177451Y9910000D01*
D02*
G37*
G36*
X15847501Y10095000D02*
Y10045000D01*
Y9995000D01*
Y9945000D01*
Y9895000D01*
Y9845000D01*
Y9795000D01*
Y9745000D01*
Y9695000D01*
Y9645000D01*
Y9595000D01*
Y9562500D01*
X15272501D01*
Y9595000D01*
Y9645000D01*
Y9695000D01*
Y9745000D01*
Y9795000D01*
Y9845000D01*
Y9895000D01*
Y9945000D01*
Y9995000D01*
Y10045000D01*
Y10095000D01*
Y10137500D01*
X15847501D01*
Y10095000D01*
D02*
G37*
%LPC*%
G36*
X15800400Y10090400D02*
X15572701D01*
Y9862700D01*
X15800400D01*
Y10090400D01*
D02*
G37*
G36*
X15547301D02*
X15319600D01*
Y9862700D01*
X15547301D01*
Y10090400D01*
D02*
G37*
G36*
X15800400Y9837300D02*
X15572701D01*
Y9609600D01*
X15800400D01*
Y9837300D01*
D02*
G37*
G36*
X15547301D02*
X15319600D01*
Y9609600D01*
X15547301D01*
Y9837300D01*
D02*
G37*
%LPD*%
G36*
X16177451Y7910000D02*
Y7790000D01*
X15897450Y7778800D01*
Y7921200D01*
X16177451Y7910000D01*
D02*
G37*
G36*
X15847501Y8095000D02*
Y8045000D01*
Y7995000D01*
Y7945000D01*
Y7895000D01*
Y7845000D01*
Y7795000D01*
Y7745000D01*
Y7695000D01*
Y7645000D01*
Y7595000D01*
Y7562500D01*
X15272501D01*
Y7595000D01*
Y7645000D01*
Y7695000D01*
Y7745000D01*
Y7795000D01*
Y7845000D01*
Y7895000D01*
Y7945000D01*
Y7995000D01*
Y8045000D01*
Y8095000D01*
Y8137500D01*
X15847501D01*
Y8095000D01*
D02*
G37*
%LPC*%
G36*
X15800400Y8090400D02*
X15572701D01*
Y7862700D01*
X15800400D01*
Y8090400D01*
D02*
G37*
G36*
X15547301D02*
X15319600D01*
Y7862700D01*
X15547301D01*
Y8090400D01*
D02*
G37*
G36*
X15800400Y7837300D02*
X15572701D01*
Y7609600D01*
X15800400D01*
Y7837300D01*
D02*
G37*
G36*
X15547301D02*
X15319600D01*
Y7609600D01*
X15547301D01*
Y7837300D01*
D02*
G37*
%LPD*%
G36*
X16177451Y5910000D02*
Y5790000D01*
X15897450Y5778799D01*
Y5921200D01*
X16177451Y5910000D01*
D02*
G37*
G36*
X15847501Y6095000D02*
Y6045000D01*
Y5995000D01*
Y5945000D01*
Y5895000D01*
Y5845000D01*
Y5795000D01*
Y5745000D01*
Y5695000D01*
Y5645000D01*
Y5595000D01*
Y5562500D01*
X15272501D01*
Y5595000D01*
Y5645000D01*
Y5695000D01*
Y5745000D01*
Y5795000D01*
Y5845000D01*
Y5895000D01*
Y5945000D01*
Y5995000D01*
Y6045000D01*
Y6095000D01*
Y6137500D01*
X15847501D01*
Y6095000D01*
D02*
G37*
%LPC*%
G36*
X15800400Y6090400D02*
X15572701D01*
Y5862700D01*
X15800400D01*
Y6090400D01*
D02*
G37*
G36*
X15547301D02*
X15319600D01*
Y5862700D01*
X15547301D01*
Y6090400D01*
D02*
G37*
G36*
X15800400Y5837300D02*
X15572701D01*
Y5609600D01*
X15800400D01*
Y5837300D01*
D02*
G37*
G36*
X15547301D02*
X15319600D01*
Y5609600D01*
X15547301D01*
Y5837300D01*
D02*
G37*
%LPD*%
D10*
X14739999Y9732550D02*
D03*
Y9567450D02*
D03*
X14960001D02*
D03*
Y9732550D02*
D03*
X14739999Y11567450D02*
D03*
Y7567450D02*
D03*
Y5567450D02*
D03*
X14960001Y11567450D02*
D03*
Y7567450D02*
D03*
Y5567450D02*
D03*
X14739999Y11732550D02*
D03*
X14960001D02*
D03*
Y7732550D02*
D03*
X14739999D02*
D03*
X14960001Y5732550D02*
D03*
X14739999D02*
D03*
X13060001Y6477450D02*
D03*
Y6642550D02*
D03*
Y6857450D02*
D03*
Y7022550D02*
D03*
X13300002Y6287450D02*
D03*
Y6452550D02*
D03*
X13520000Y6287450D02*
D03*
Y6452550D02*
D03*
X13300002Y7215100D02*
D03*
Y7050000D02*
D03*
X13520000Y7215100D02*
D03*
Y7050000D02*
D03*
X12860001Y6642550D02*
D03*
Y6477450D02*
D03*
X13280000Y10442550D02*
D03*
Y10277450D02*
D03*
X13500002Y10442550D02*
D03*
Y10277450D02*
D03*
X13280000Y11040000D02*
D03*
Y11205100D02*
D03*
X13500002Y11040000D02*
D03*
Y11205100D02*
D03*
X12840001Y10467450D02*
D03*
Y10632550D02*
D03*
X13040001Y11012550D02*
D03*
Y10847450D02*
D03*
Y10632550D02*
D03*
Y10467450D02*
D03*
D11*
X15560001Y9850000D02*
D03*
Y5850000D02*
D03*
Y7850000D02*
D03*
Y11850000D02*
D03*
D12*
X15285001Y10195000D02*
D03*
X15335001D02*
D03*
X15385001D02*
D03*
X15435001D02*
D03*
X15485001D02*
D03*
X15535001D02*
D03*
X15585001D02*
D03*
X15635001D02*
D03*
X15685001D02*
D03*
X15735001D02*
D03*
X15785001D02*
D03*
X15835001D02*
D03*
Y9505000D02*
D03*
X15785001D02*
D03*
X15735001D02*
D03*
X15685001D02*
D03*
X15635001D02*
D03*
X15585001D02*
D03*
X15535001D02*
D03*
X15485001D02*
D03*
X15435001D02*
D03*
X15385001D02*
D03*
X15335001D02*
D03*
X15285001D02*
D03*
Y6195000D02*
D03*
X15335001D02*
D03*
X15385001D02*
D03*
X15435001D02*
D03*
X15485001D02*
D03*
X15535001D02*
D03*
X15585001D02*
D03*
X15635001D02*
D03*
X15685001D02*
D03*
X15735001D02*
D03*
X15785001D02*
D03*
X15835001D02*
D03*
Y5505000D02*
D03*
X15785001D02*
D03*
X15735001D02*
D03*
X15685001D02*
D03*
X15635001D02*
D03*
X15585001D02*
D03*
X15535001D02*
D03*
X15485001D02*
D03*
X15435001D02*
D03*
X15385001D02*
D03*
X15335001D02*
D03*
X15285001D02*
D03*
Y8195000D02*
D03*
X15335001D02*
D03*
X15385001D02*
D03*
X15435001D02*
D03*
X15485001D02*
D03*
X15535001D02*
D03*
X15585001D02*
D03*
X15635001D02*
D03*
X15685001D02*
D03*
X15735001D02*
D03*
X15785001D02*
D03*
X15835001D02*
D03*
Y7505000D02*
D03*
X15785001D02*
D03*
X15735001D02*
D03*
X15685001D02*
D03*
X15635001D02*
D03*
X15585001D02*
D03*
X15535001D02*
D03*
X15485001D02*
D03*
X15435001D02*
D03*
X15385001D02*
D03*
X15335001D02*
D03*
X15285001D02*
D03*
Y12195000D02*
D03*
X15335001D02*
D03*
X15385001D02*
D03*
X15435001D02*
D03*
X15485001D02*
D03*
X15535001D02*
D03*
X15585001D02*
D03*
X15635001D02*
D03*
X15685001D02*
D03*
X15735001D02*
D03*
X15785001D02*
D03*
X15835001D02*
D03*
Y11505000D02*
D03*
X15785001D02*
D03*
X15735001D02*
D03*
X15685001D02*
D03*
X15635001D02*
D03*
X15585001D02*
D03*
X15535001D02*
D03*
X15485001D02*
D03*
X15435001D02*
D03*
X15385001D02*
D03*
X15335001D02*
D03*
X15285001D02*
D03*
D13*
X15905000Y10125000D02*
D03*
Y10075000D02*
D03*
Y10025000D02*
D03*
Y9975000D02*
D03*
Y9925000D02*
D03*
Y9875000D02*
D03*
Y9825000D02*
D03*
Y9775000D02*
D03*
Y9725000D02*
D03*
Y9675000D02*
D03*
Y9625000D02*
D03*
Y9575000D02*
D03*
X15214999D02*
D03*
Y9625000D02*
D03*
Y9675000D02*
D03*
Y9725000D02*
D03*
Y9775000D02*
D03*
Y9825000D02*
D03*
Y9875000D02*
D03*
Y9925000D02*
D03*
Y9975000D02*
D03*
Y10025000D02*
D03*
Y10075000D02*
D03*
Y10125000D02*
D03*
X15905000Y6125000D02*
D03*
Y6075000D02*
D03*
Y6025000D02*
D03*
Y5975000D02*
D03*
Y5925000D02*
D03*
Y5875000D02*
D03*
Y5825000D02*
D03*
Y5775000D02*
D03*
Y5725000D02*
D03*
Y5675000D02*
D03*
Y5625000D02*
D03*
Y5575000D02*
D03*
X15214999D02*
D03*
Y5625000D02*
D03*
Y5675000D02*
D03*
Y5725000D02*
D03*
Y5775000D02*
D03*
Y5825000D02*
D03*
Y5875000D02*
D03*
Y5925000D02*
D03*
Y5975000D02*
D03*
Y6025000D02*
D03*
Y6075000D02*
D03*
Y6125000D02*
D03*
X15905000Y8125000D02*
D03*
Y8075000D02*
D03*
Y8025000D02*
D03*
Y7975000D02*
D03*
Y7925000D02*
D03*
Y7875000D02*
D03*
Y7825000D02*
D03*
Y7775000D02*
D03*
Y7725000D02*
D03*
Y7675000D02*
D03*
Y7625000D02*
D03*
Y7575000D02*
D03*
X15214999D02*
D03*
Y7625000D02*
D03*
Y7675000D02*
D03*
Y7725000D02*
D03*
Y7775000D02*
D03*
Y7825000D02*
D03*
Y7875000D02*
D03*
Y7925000D02*
D03*
Y7975000D02*
D03*
Y8025000D02*
D03*
Y8075000D02*
D03*
Y8125000D02*
D03*
X15905000Y12125000D02*
D03*
Y12075000D02*
D03*
Y12025000D02*
D03*
Y11975000D02*
D03*
Y11925000D02*
D03*
Y11875000D02*
D03*
Y11825000D02*
D03*
Y11775000D02*
D03*
Y11725000D02*
D03*
Y11675000D02*
D03*
Y11625000D02*
D03*
Y11575000D02*
D03*
X15214999D02*
D03*
Y11625000D02*
D03*
Y11675000D02*
D03*
Y11725000D02*
D03*
Y11775000D02*
D03*
Y11825000D02*
D03*
Y11875000D02*
D03*
Y11925000D02*
D03*
Y11975000D02*
D03*
Y12025000D02*
D03*
Y12075000D02*
D03*
Y12125000D02*
D03*
D14*
X16177451Y9850000D02*
D03*
X16342551D02*
D03*
X15362550Y9250000D02*
D03*
X15197450D02*
D03*
Y10450000D02*
D03*
X15362550D02*
D03*
X13707449Y6850000D02*
D03*
X13872549D02*
D03*
X13707449Y6650000D02*
D03*
X13872549D02*
D03*
X14957449Y12970000D02*
D03*
X15122549D02*
D03*
X15457449D02*
D03*
X15622549D02*
D03*
X16342551Y11850000D02*
D03*
X16177451D02*
D03*
X15197450Y11250000D02*
D03*
X15362550D02*
D03*
Y12450000D02*
D03*
X15197450D02*
D03*
X13852551Y10840000D02*
D03*
X13687451D02*
D03*
X15362550Y6450000D02*
D03*
X15197450D02*
D03*
Y5250000D02*
D03*
X15362550D02*
D03*
X16342551Y5850000D02*
D03*
X16177451D02*
D03*
X15362550Y8450000D02*
D03*
X15197450D02*
D03*
Y7250000D02*
D03*
X15362550D02*
D03*
X16342551Y7850000D02*
D03*
X16177451D02*
D03*
X13852551Y10640000D02*
D03*
X13687451D02*
D03*
D15*
X15710001Y9250000D02*
D03*
X15970000D02*
D03*
X15960001Y10450000D02*
D03*
X15700000D02*
D03*
X15970000Y11250000D02*
D03*
X15710001D02*
D03*
X15700000Y12450000D02*
D03*
X15960001D02*
D03*
X15700000Y6450000D02*
D03*
X15960001D02*
D03*
X15970000Y5250000D02*
D03*
X15710001D02*
D03*
X15700000Y8450000D02*
D03*
X15960001D02*
D03*
X15970000Y7250000D02*
D03*
X15710001D02*
D03*
X12450000Y12889999D02*
D03*
X12710000D02*
D03*
X12989999D02*
D03*
X13250000D02*
D03*
D16*
X13274876Y6825000D02*
D03*
X13254877Y10815000D02*
D03*
D17*
X13274876Y6775000D02*
D03*
Y6725000D02*
D03*
Y6675000D02*
D03*
X13545125D02*
D03*
Y6725000D02*
D03*
Y6775000D02*
D03*
Y6825000D02*
D03*
X13525127Y10815000D02*
D03*
Y10765000D02*
D03*
Y10715000D02*
D03*
Y10665000D02*
D03*
X13254877D02*
D03*
Y10715000D02*
D03*
Y10765000D02*
D03*
D18*
X13335001Y6614875D02*
D03*
X13385001D02*
D03*
X13435001D02*
D03*
X13485001D02*
D03*
Y6885125D02*
D03*
X13435001D02*
D03*
X13385001D02*
D03*
X13335001D02*
D03*
X13315001Y10875125D02*
D03*
X13365001D02*
D03*
X13415001D02*
D03*
X13465001D02*
D03*
Y10604875D02*
D03*
X13415001D02*
D03*
X13365001D02*
D03*
X13315001D02*
D03*
D19*
X13410001Y6750000D02*
D03*
X13390001Y10740000D02*
D03*
D20*
X13689999Y11120000D02*
Y12450000D01*
X13500002Y11040000D02*
X13610001D01*
X13689999Y11120000D01*
X13250000Y12889999D02*
X13689999Y12450000D01*
X13250000Y12889999D02*
X13305000Y12945000D01*
X14670000Y5875000D02*
X15214999D01*
X14550000Y7875000D02*
X15214999D01*
X14525000Y9875000D02*
X15214999D01*
X14245190Y9595190D02*
X14525000Y9875000D01*
X14670000Y5875000D02*
X14705000D01*
X14642470D02*
X14670000D01*
X13912160Y6605310D02*
X14642470Y5875000D01*
X13877551Y6639919D02*
X13912160Y6605310D01*
X13872549Y6644920D02*
X13877551Y6639919D01*
X13872549Y6644920D02*
Y6650000D01*
X15095000Y6025000D02*
X15214999D01*
X15095000Y8025000D02*
X15214999D01*
X15095000Y10025000D02*
X15214999D01*
X15095000Y12025000D02*
X15214999D01*
X14957449Y12970000D02*
Y12975079D01*
X15076328Y6236173D02*
X15187500Y6125000D01*
X15023827Y6236173D02*
X15076328D01*
Y8236173D02*
X15187500Y8125000D01*
X15023827Y8236173D02*
X15076328D01*
Y10236173D02*
X15187500Y10125000D01*
X15023827Y10236173D02*
X15076328D01*
X15023827Y12236173D02*
X15076328D01*
X15187500Y12125000D01*
X15020000Y12240000D02*
X15023827Y12236173D01*
X15187500Y12125000D02*
X15214999D01*
X15622549Y12970000D02*
Y12975079D01*
X15710001Y5250000D02*
Y5305000D01*
X15655000Y5360000D02*
X15710001Y5305000D01*
X16175871Y5850000D02*
X16177451D01*
X15124870Y5625000D02*
X15214999D01*
X15067320Y5567450D02*
X15124870Y5625000D01*
X14960001Y5567450D02*
X15067320D01*
X15117320Y5775000D02*
X15214999D01*
X15074870Y5732550D02*
X15117320Y5775000D01*
X14960001Y5732550D02*
X15074870D01*
X14960001D02*
X14986951Y5759500D01*
X14739999Y5732550D02*
X14960001D01*
X15655000Y7360000D02*
X15710001Y7305000D01*
Y7250000D02*
Y7305000D01*
X16175871Y7850000D02*
X16177451D01*
X15124870Y7625000D02*
X15214999D01*
X15067320Y7567450D02*
X15124870Y7625000D01*
X14960001Y7567450D02*
X15067320D01*
X15117320Y7775000D02*
X15214999D01*
X15074870Y7732550D02*
X15117320Y7775000D01*
X14960001Y7732550D02*
X14986951Y7759500D01*
X14960001Y7732550D02*
X15074870D01*
X14739999D02*
X14960001D01*
X15710001Y9250000D02*
Y9305000D01*
X15655000Y9360000D02*
X15710001Y9305000D01*
X16175871Y9850000D02*
X16177451D01*
X15124870Y9625000D02*
X15214999D01*
X15067320Y9567450D02*
X15124870Y9625000D01*
X14960001Y9567450D02*
X15067320D01*
X15117320Y9775000D02*
X15214999D01*
X15074870Y9732550D02*
X15117320Y9775000D01*
X14960001Y9732550D02*
X15074870D01*
X14960001D02*
X14986951Y9759500D01*
X14739999Y9732550D02*
X14960001D01*
X13852551Y11182551D02*
X14545000Y11875000D01*
X15214999D01*
X14739999Y11732550D02*
X14960001D01*
X15074870D02*
X15117320Y11775000D01*
X15214999D01*
X14960001Y11732550D02*
X15074870D01*
X15067320Y11567450D02*
X15124870Y11625000D01*
X14960001Y11567450D02*
X15067320D01*
X15124870Y11625000D02*
X15214999D01*
X15655000Y11360000D02*
X15710001Y11305000D01*
Y11250000D02*
Y11305000D01*
X14960001Y11732550D02*
X14986951Y11759500D01*
X13852551Y10840000D02*
Y11182551D01*
X12450000Y12889999D02*
Y12960001D01*
X16175871Y11850000D02*
X16177451D01*
X12530001Y6850000D02*
X12533726Y6853725D01*
X13056276D01*
X13060001Y6857450D01*
X12550001Y10850000D02*
X12552550Y10847450D01*
X13040001D01*
X13872549Y6850000D02*
Y6855080D01*
X13912160Y6894690D02*
X13917239D01*
X14245190Y7222640D02*
Y9595190D01*
X13917239Y6894690D02*
X14245190Y7222640D01*
X13872549Y6855080D02*
X13912160Y6894690D01*
X13877551Y6639919D02*
Y6640044D01*
X13912160Y6605310D02*
X13912285D01*
X13852551Y8277449D02*
X14070000Y8060000D01*
X13852551Y8277449D02*
Y10640000D01*
D21*
X13250000Y12953181D02*
Y13172501D01*
Y12889999D02*
Y12953181D01*
X15622549Y12842551D02*
Y12975079D01*
X15589999Y12810001D02*
X15622549Y12842551D01*
X15280000Y12970000D02*
X15457449D01*
X15122549D02*
X15280000D01*
X14957449Y12842551D02*
X15080000Y12720000D01*
X15289999D01*
X15362550Y12647450D01*
Y12450000D02*
Y12647450D01*
X14957449Y12842551D02*
Y12970000D01*
X15622549Y12975079D02*
X15770000Y13122530D01*
Y13530000D01*
X14770000Y13162531D02*
Y13530000D01*
Y13162531D02*
X14957449Y12975079D01*
X13250000Y13172501D02*
X13320000Y13242500D01*
Y13530000D01*
X12320000Y13089999D02*
X12450000Y12960001D01*
X12320000Y13089999D02*
Y13530000D01*
D22*
X13550127Y6820124D02*
Y6890125D01*
X13525127Y10815000D02*
Y10885002D01*
D23*
X16342551Y5850000D02*
X16590001D01*
X16342551D02*
X16342551D01*
X16342551Y7850000D02*
X16590001D01*
X16342551Y9850000D02*
X16590001D01*
X16342551Y5850000D02*
X16342551Y5850000D01*
X16342551Y7850000D02*
X16342551Y7850000D01*
X16342551Y9850000D02*
X16342551Y9850000D01*
X16342551Y11850000D02*
X16342551Y11850000D01*
X13707449Y6650000D02*
Y6655080D01*
X13545125Y6725000D02*
X13637531D01*
X13707449Y6655080D01*
X13060001Y6857450D02*
X13075224D01*
X13132675Y6800000D01*
X13177017D01*
X13202016Y6825000D02*
X13274876D01*
X13177017Y6800000D02*
X13202016Y6825000D01*
X13202017Y6775000D02*
X13274876D01*
X13177017Y6800000D02*
X13202017Y6775000D01*
X13060001Y6642550D02*
X13079805Y6662355D01*
X13152354D01*
X13214999Y6725000D02*
X13274876D01*
X13183678Y6693677D02*
X13202356Y6675000D01*
X13274876D01*
X13152354Y6662355D02*
X13183678Y6693677D01*
X13214999Y6725000D01*
X12860001Y6642550D02*
X13060001D01*
X13632449Y6775000D02*
X13707449Y6850000D01*
X13545125Y6775000D02*
X13632449D01*
X15122549Y12964920D02*
Y12970000D01*
X13525127Y10765000D02*
X13612451D01*
X13687451Y10840000D01*
X12840001Y10632550D02*
X13040001D01*
X13163680Y10683678D02*
X13195001Y10715000D01*
X13132356Y10652355D02*
X13163680Y10683678D01*
X13182356Y10665000D02*
X13254877D01*
X13163680Y10683678D02*
X13182356Y10665000D01*
X13195001Y10715000D02*
X13254877D01*
X13059805Y10652355D02*
X13132356D01*
X13040001Y10632550D02*
X13059805Y10652355D01*
X13157018Y10790000D02*
X13182018Y10765000D01*
X13254877D01*
X13157018Y10790000D02*
X13182018Y10815000D01*
X13254877D01*
X13112675Y10790000D02*
X13157018D01*
X13055226Y10847450D02*
X13112675Y10790000D01*
X13040001Y10847450D02*
X13055226D01*
X13617531Y10715000D02*
X13687451Y10645080D01*
X13525127Y10715000D02*
X13617531D01*
X13687451Y10640000D02*
Y10645080D01*
X16342551Y11850000D02*
X16590001D01*
D24*
X15712500Y5442500D02*
D03*
Y7442500D02*
D03*
Y9442501D02*
D03*
Y11442500D02*
D03*
X15702499Y6257500D02*
D03*
Y8257500D02*
D03*
Y10257500D02*
D03*
Y12257500D02*
D03*
D25*
X15520000Y6450000D02*
D03*
Y5250000D02*
D03*
Y8450000D02*
D03*
Y7250000D02*
D03*
Y10450000D02*
D03*
Y9250000D02*
D03*
Y11250000D02*
D03*
Y12450000D02*
D03*
D26*
X13390002Y10960124D02*
D03*
X13390001Y10519876D02*
D03*
X13415001Y6965248D02*
D03*
X13415001Y6524999D02*
D03*
D27*
X12550001Y10850000D02*
D03*
X12530001Y6850000D02*
D03*
X16590001Y11850000D02*
D03*
Y5850000D02*
D03*
Y7850000D02*
D03*
Y9850000D02*
D03*
D28*
X11770001Y10470000D02*
D03*
Y11230000D02*
D03*
X11750001Y7230000D02*
D03*
Y6470000D02*
D03*
X17370001Y11470000D02*
D03*
Y12230000D02*
D03*
Y5470000D02*
D03*
Y6230000D02*
D03*
Y7470000D02*
D03*
Y8230000D02*
D03*
Y9470000D02*
D03*
Y10230000D02*
D03*
D29*
X15770000Y13530000D02*
D03*
X13320000D02*
D03*
D30*
X15270000D02*
D03*
X14770000D02*
D03*
X12820000D02*
D03*
X12320000D02*
D03*
D31*
X15280000Y12970000D02*
D03*
X14550000Y7870000D02*
D03*
X15589999Y12810001D02*
D03*
X15095000Y6025000D02*
D03*
Y8025000D02*
D03*
Y10025000D02*
D03*
Y12025000D02*
D03*
X15486172Y5283827D02*
D03*
X15556174Y5213827D02*
D03*
X15486172Y6483827D02*
D03*
X15556174Y6413827D02*
D03*
X15486172Y7283827D02*
D03*
X15556174Y7213827D02*
D03*
X15486172Y8483827D02*
D03*
X15556174Y8413827D02*
D03*
X15486172Y9283827D02*
D03*
X15556174Y9213827D02*
D03*
X15486172Y10483827D02*
D03*
X15556174Y10413827D02*
D03*
X15486172Y11283827D02*
D03*
X15556174Y11213827D02*
D03*
Y12413827D02*
D03*
X15486172Y12483827D02*
D03*
X15020000Y6240000D02*
D03*
Y8240000D02*
D03*
Y10240000D02*
D03*
Y12240000D02*
D03*
X13390001Y10950000D02*
D03*
X13390001Y10530000D02*
D03*
X13415001Y6535124D02*
D03*
X13410001Y6960000D02*
D03*
X13525127Y10885002D02*
D03*
X13550127Y6890125D02*
D03*
X14070000Y8060000D02*
D03*
%TF.MD5,1bd52a9438c5865011dcb0b5a3b77854*%
M02*
