%TF.GenerationSoftware,Altium Limited,Altium Designer,24.7.2 (38)*%
G04 Layer_Color=8388736*
%FSLAX45Y45*%
%MOMM*%
%TF.SameCoordinates,B30809B7-3911-4904-9B3F-344CE752C631*%
%TF.FilePolarity,Negative*%
%TF.FileFunction,Soldermask,Top*%
%TF.Part,Single*%
G01*
G75*
%TA.AperFunction,SMDPad,CuDef*%
%ADD15R,1.40000X2.80000*%
%ADD16R,0.80964X0.23928*%
G04:AMPARAMS|DCode=17|XSize=0.80964mm|YSize=0.23928mm|CornerRadius=0.11964mm|HoleSize=0mm|Usage=FLASHONLY|Rotation=0.000|XOffset=0mm|YOffset=0mm|HoleType=Round|Shape=RoundedRectangle|*
%AMROUNDEDRECTD17*
21,1,0.80964,0.00000,0,0,0.0*
21,1,0.57035,0.23928,0,0,0.0*
1,1,0.23928,0.28518,0.00000*
1,1,0.23928,-0.28518,0.00000*
1,1,0.23928,-0.28518,0.00000*
1,1,0.23928,0.28518,0.00000*
%
%ADD17ROUNDEDRECTD17*%
G04:AMPARAMS|DCode=18|XSize=0.23928mm|YSize=0.80964mm|CornerRadius=0.11964mm|HoleSize=0mm|Usage=FLASHONLY|Rotation=0.000|XOffset=0mm|YOffset=0mm|HoleType=Round|Shape=RoundedRectangle|*
%AMROUNDEDRECTD18*
21,1,0.23928,0.57035,0,0,0.0*
21,1,0.00000,0.80964,0,0,0.0*
1,1,0.23928,0.00000,-0.28518*
1,1,0.23928,0.00000,-0.28518*
1,1,0.23928,0.00000,0.28518*
1,1,0.23928,0.00000,0.28518*
%
%ADD18ROUNDEDRECTD18*%
%ADD19R,1.45000X1.45000*%
%ADD42R,1.39700X1.29540*%
%ADD43R,4.50320X4.50320*%
%ADD44R,0.50320X1.05320*%
%ADD45R,1.05320X0.50320*%
%ADD46R,1.29540X1.39700*%
%TA.AperFunction,ComponentPad*%
%ADD47C,1.75320*%
%ADD48C,3.00320*%
%ADD49R,2.00320X2.00320*%
%ADD50C,2.00320*%
%TA.AperFunction,ViaPad*%
%ADD51C,0.70320*%
D15*
X15710001Y9250000D02*
D03*
X15970000D02*
D03*
X15960001Y10450000D02*
D03*
X15700000D02*
D03*
X15970000Y11250000D02*
D03*
X15710001D02*
D03*
X15700000Y12450000D02*
D03*
X15960001D02*
D03*
X15700000Y6450000D02*
D03*
X15960001D02*
D03*
X15970000Y5250000D02*
D03*
X15710001D02*
D03*
X15700000Y8450000D02*
D03*
X15960001D02*
D03*
X15970000Y7250000D02*
D03*
X15710001D02*
D03*
X12450000Y12889999D02*
D03*
X12710000D02*
D03*
X12989999D02*
D03*
X13250000D02*
D03*
D16*
X13274876Y6825000D02*
D03*
X13254877Y10815000D02*
D03*
D17*
X13274876Y6775000D02*
D03*
Y6725000D02*
D03*
Y6675000D02*
D03*
X13545125D02*
D03*
Y6725000D02*
D03*
Y6775000D02*
D03*
Y6825000D02*
D03*
X13525127Y10815000D02*
D03*
Y10765000D02*
D03*
Y10715000D02*
D03*
Y10665000D02*
D03*
X13254877D02*
D03*
Y10715000D02*
D03*
Y10765000D02*
D03*
D18*
X13335001Y6614875D02*
D03*
X13385001D02*
D03*
X13435001D02*
D03*
X13485001D02*
D03*
Y6885125D02*
D03*
X13435001D02*
D03*
X13385001D02*
D03*
X13335001D02*
D03*
X13315001Y10875125D02*
D03*
X13365001D02*
D03*
X13415001D02*
D03*
X13465001D02*
D03*
Y10604875D02*
D03*
X13415001D02*
D03*
X13365001D02*
D03*
X13315001D02*
D03*
D19*
X13410001Y6750000D02*
D03*
X13390001Y10740000D02*
D03*
D42*
X14739999Y9732550D02*
D03*
Y9567450D02*
D03*
X14960001D02*
D03*
Y9732550D02*
D03*
X14739999Y11567450D02*
D03*
Y7567450D02*
D03*
Y5567450D02*
D03*
X14960001Y11567450D02*
D03*
Y7567450D02*
D03*
Y5567450D02*
D03*
X14739999Y11732550D02*
D03*
X14960001D02*
D03*
Y7732550D02*
D03*
X14739999D02*
D03*
X14960001Y5732550D02*
D03*
X14739999D02*
D03*
X13060001Y6477450D02*
D03*
Y6642550D02*
D03*
Y6857450D02*
D03*
Y7022550D02*
D03*
X13300002Y6287450D02*
D03*
Y6452550D02*
D03*
X13520000Y6287450D02*
D03*
Y6452550D02*
D03*
X13300002Y7215100D02*
D03*
Y7050000D02*
D03*
X13520000Y7215100D02*
D03*
Y7050000D02*
D03*
X12860001Y6642550D02*
D03*
Y6477450D02*
D03*
X13280000Y10442550D02*
D03*
Y10277450D02*
D03*
X13500002Y10442550D02*
D03*
Y10277450D02*
D03*
X13280000Y11040000D02*
D03*
Y11205100D02*
D03*
X13500002Y11040000D02*
D03*
Y11205100D02*
D03*
X12840001Y10467450D02*
D03*
Y10632550D02*
D03*
X13040001Y11012550D02*
D03*
Y10847450D02*
D03*
Y10632550D02*
D03*
Y10467450D02*
D03*
D43*
X15560001Y9850000D02*
D03*
Y5850000D02*
D03*
Y7850000D02*
D03*
Y11850000D02*
D03*
D44*
X15285001Y10195000D02*
D03*
X15335001D02*
D03*
X15385001D02*
D03*
X15435001D02*
D03*
X15485001D02*
D03*
X15535001D02*
D03*
X15585001D02*
D03*
X15635001D02*
D03*
X15685001D02*
D03*
X15735001D02*
D03*
X15785001D02*
D03*
X15835001D02*
D03*
Y9505000D02*
D03*
X15785001D02*
D03*
X15735001D02*
D03*
X15685001D02*
D03*
X15635001D02*
D03*
X15585001D02*
D03*
X15535001D02*
D03*
X15485001D02*
D03*
X15435001D02*
D03*
X15385001D02*
D03*
X15335001D02*
D03*
X15285001D02*
D03*
Y6195000D02*
D03*
X15335001D02*
D03*
X15385001D02*
D03*
X15435001D02*
D03*
X15485001D02*
D03*
X15535001D02*
D03*
X15585001D02*
D03*
X15635001D02*
D03*
X15685001D02*
D03*
X15735001D02*
D03*
X15785001D02*
D03*
X15835001D02*
D03*
Y5505000D02*
D03*
X15785001D02*
D03*
X15735001D02*
D03*
X15685001D02*
D03*
X15635001D02*
D03*
X15585001D02*
D03*
X15535001D02*
D03*
X15485001D02*
D03*
X15435001D02*
D03*
X15385001D02*
D03*
X15335001D02*
D03*
X15285001D02*
D03*
Y8195000D02*
D03*
X15335001D02*
D03*
X15385001D02*
D03*
X15435001D02*
D03*
X15485001D02*
D03*
X15535001D02*
D03*
X15585001D02*
D03*
X15635001D02*
D03*
X15685001D02*
D03*
X15735001D02*
D03*
X15785001D02*
D03*
X15835001D02*
D03*
Y7505000D02*
D03*
X15785001D02*
D03*
X15735001D02*
D03*
X15685001D02*
D03*
X15635001D02*
D03*
X15585001D02*
D03*
X15535001D02*
D03*
X15485001D02*
D03*
X15435001D02*
D03*
X15385001D02*
D03*
X15335001D02*
D03*
X15285001D02*
D03*
Y12195000D02*
D03*
X15335001D02*
D03*
X15385001D02*
D03*
X15435001D02*
D03*
X15485001D02*
D03*
X15535001D02*
D03*
X15585001D02*
D03*
X15635001D02*
D03*
X15685001D02*
D03*
X15735001D02*
D03*
X15785001D02*
D03*
X15835001D02*
D03*
Y11505000D02*
D03*
X15785001D02*
D03*
X15735001D02*
D03*
X15685001D02*
D03*
X15635001D02*
D03*
X15585001D02*
D03*
X15535001D02*
D03*
X15485001D02*
D03*
X15435001D02*
D03*
X15385001D02*
D03*
X15335001D02*
D03*
X15285001D02*
D03*
D45*
X15905000Y10125000D02*
D03*
Y10075000D02*
D03*
Y10025000D02*
D03*
Y9975000D02*
D03*
Y9925000D02*
D03*
Y9875000D02*
D03*
Y9825000D02*
D03*
Y9775000D02*
D03*
Y9725000D02*
D03*
Y9675000D02*
D03*
Y9625000D02*
D03*
Y9575000D02*
D03*
X15214999D02*
D03*
Y9625000D02*
D03*
Y9675000D02*
D03*
Y9725000D02*
D03*
Y9775000D02*
D03*
Y9825000D02*
D03*
Y9875000D02*
D03*
Y9925000D02*
D03*
Y9975000D02*
D03*
Y10025000D02*
D03*
Y10075000D02*
D03*
Y10125000D02*
D03*
X15905000Y6125000D02*
D03*
Y6075000D02*
D03*
Y6025000D02*
D03*
Y5975000D02*
D03*
Y5925000D02*
D03*
Y5875000D02*
D03*
Y5825000D02*
D03*
Y5775000D02*
D03*
Y5725000D02*
D03*
Y5675000D02*
D03*
Y5625000D02*
D03*
Y5575000D02*
D03*
X15214999D02*
D03*
Y5625000D02*
D03*
Y5675000D02*
D03*
Y5725000D02*
D03*
Y5775000D02*
D03*
Y5825000D02*
D03*
Y5875000D02*
D03*
Y5925000D02*
D03*
Y5975000D02*
D03*
Y6025000D02*
D03*
Y6075000D02*
D03*
Y6125000D02*
D03*
X15905000Y8125000D02*
D03*
Y8075000D02*
D03*
Y8025000D02*
D03*
Y7975000D02*
D03*
Y7925000D02*
D03*
Y7875000D02*
D03*
Y7825000D02*
D03*
Y7775000D02*
D03*
Y7725000D02*
D03*
Y7675000D02*
D03*
Y7625000D02*
D03*
Y7575000D02*
D03*
X15214999D02*
D03*
Y7625000D02*
D03*
Y7675000D02*
D03*
Y7725000D02*
D03*
Y7775000D02*
D03*
Y7825000D02*
D03*
Y7875000D02*
D03*
Y7925000D02*
D03*
Y7975000D02*
D03*
Y8025000D02*
D03*
Y8075000D02*
D03*
Y8125000D02*
D03*
X15905000Y12125000D02*
D03*
Y12075000D02*
D03*
Y12025000D02*
D03*
Y11975000D02*
D03*
Y11925000D02*
D03*
Y11875000D02*
D03*
Y11825000D02*
D03*
Y11775000D02*
D03*
Y11725000D02*
D03*
Y11675000D02*
D03*
Y11625000D02*
D03*
Y11575000D02*
D03*
X15214999D02*
D03*
Y11625000D02*
D03*
Y11675000D02*
D03*
Y11725000D02*
D03*
Y11775000D02*
D03*
Y11825000D02*
D03*
Y11875000D02*
D03*
Y11925000D02*
D03*
Y11975000D02*
D03*
Y12025000D02*
D03*
Y12075000D02*
D03*
Y12125000D02*
D03*
D46*
X16177451Y9850000D02*
D03*
X16342551D02*
D03*
X15362550Y9250000D02*
D03*
X15197450D02*
D03*
Y10450000D02*
D03*
X15362550D02*
D03*
X13707449Y6850000D02*
D03*
X13872549D02*
D03*
X13707449Y6650000D02*
D03*
X13872549D02*
D03*
X14957449Y12970000D02*
D03*
X15122549D02*
D03*
X15457449D02*
D03*
X15622549D02*
D03*
X16342551Y11850000D02*
D03*
X16177451D02*
D03*
X15197450Y11250000D02*
D03*
X15362550D02*
D03*
Y12450000D02*
D03*
X15197450D02*
D03*
X13852551Y10840000D02*
D03*
X13687451D02*
D03*
X15362550Y6450000D02*
D03*
X15197450D02*
D03*
Y5250000D02*
D03*
X15362550D02*
D03*
X16342551Y5850000D02*
D03*
X16177451D02*
D03*
X15362550Y8450000D02*
D03*
X15197450D02*
D03*
Y7250000D02*
D03*
X15362550D02*
D03*
X16342551Y7850000D02*
D03*
X16177451D02*
D03*
X13852551Y10640000D02*
D03*
X13687451D02*
D03*
D47*
X12550001Y10850000D02*
D03*
X12530001Y6850000D02*
D03*
X16590001Y11850000D02*
D03*
Y5850000D02*
D03*
Y7850000D02*
D03*
Y9850000D02*
D03*
D48*
X11770001Y10470000D02*
D03*
Y11230000D02*
D03*
X11750001Y7230000D02*
D03*
Y6470000D02*
D03*
X17370001Y11470000D02*
D03*
Y12230000D02*
D03*
Y5470000D02*
D03*
Y6230000D02*
D03*
Y7470000D02*
D03*
Y8230000D02*
D03*
Y9470000D02*
D03*
Y10230000D02*
D03*
D49*
X15770000Y13530000D02*
D03*
X13320000D02*
D03*
D50*
X15270000D02*
D03*
X14770000D02*
D03*
X12820000D02*
D03*
X12320000D02*
D03*
D51*
X15280000Y12970000D02*
D03*
X14550000Y7870000D02*
D03*
X15589999Y12810001D02*
D03*
X15095000Y6025000D02*
D03*
Y8025000D02*
D03*
Y10025000D02*
D03*
Y12025000D02*
D03*
X15486172Y5283827D02*
D03*
X15556174Y5213827D02*
D03*
X15486172Y6483827D02*
D03*
X15556174Y6413827D02*
D03*
X15486172Y7283827D02*
D03*
X15556174Y7213827D02*
D03*
X15486172Y8483827D02*
D03*
X15556174Y8413827D02*
D03*
X15486172Y9283827D02*
D03*
X15556174Y9213827D02*
D03*
X15486172Y10483827D02*
D03*
X15556174Y10413827D02*
D03*
X15486172Y11283827D02*
D03*
X15556174Y11213827D02*
D03*
Y12413827D02*
D03*
X15486172Y12483827D02*
D03*
X15020000Y6240000D02*
D03*
Y8240000D02*
D03*
Y10240000D02*
D03*
Y12240000D02*
D03*
X13390001Y10950000D02*
D03*
X13390001Y10530000D02*
D03*
X13415001Y6535124D02*
D03*
X13410001Y6960000D02*
D03*
X13525127Y10885002D02*
D03*
X13550127Y6890125D02*
D03*
X14070000Y8060000D02*
D03*
%TF.MD5,01b7d302b21ccf0200867066cc8cbbec*%
M02*
