%TF.GenerationSoftware,Altium Limited,Altium Designer,24.7.2 (38)*%
G04 Layer_Physical_Order=4*
G04 Layer_Color=16711680*
%FSLAX45Y45*%
%MOMM*%
%TF.SameCoordinates,B30809B7-3911-4904-9B3F-344CE752C631*%
%TF.FilePolarity,Positive*%
%TF.FileFunction,Copper,L4,Bot,Signal*%
%TF.Part,Single*%
G01*
G75*
%TA.AperFunction,Conductor*%
%ADD20C,0.30000*%
%ADD21C,0.50000*%
%TA.AperFunction,ComponentPad*%
%ADD27C,1.55000*%
%ADD28C,2.80000*%
%ADD29R,1.80000X1.80000*%
%ADD30C,1.80000*%
%TA.AperFunction,ViaPad*%
%ADD31C,0.50000*%
G36*
X17754105Y4865896D02*
X11385896D01*
Y13884103D01*
X17754105D01*
Y4865896D01*
D02*
G37*
%LPC*%
G36*
X15285193Y13645399D02*
X15282701D01*
Y13542700D01*
X15385400D01*
Y13545193D01*
X15377536Y13574544D01*
X15362343Y13600858D01*
X15340857Y13622343D01*
X15314543Y13637535D01*
X15285193Y13645399D01*
D02*
G37*
G36*
X12835193D02*
X12832700D01*
Y13542700D01*
X12935400D01*
Y13545193D01*
X12927534Y13574544D01*
X12912343Y13600858D01*
X12890857Y13622343D01*
X12864543Y13637535D01*
X12835193Y13645399D01*
D02*
G37*
G36*
X12807300D02*
X12804807D01*
X12775457Y13637535D01*
X12749143Y13622343D01*
X12727657Y13600858D01*
X12712465Y13574544D01*
X12704600Y13545193D01*
Y13542700D01*
X12807300D01*
Y13645399D01*
D02*
G37*
G36*
X15257301D02*
X15254807D01*
X15225456Y13637535D01*
X15199142Y13622343D01*
X15177657Y13600858D01*
X15162465Y13574544D01*
X15154601Y13545193D01*
Y13542700D01*
X15257301D01*
Y13645399D01*
D02*
G37*
G36*
X15875000Y13635001D02*
X15664999D01*
Y13425000D01*
X15875000D01*
Y13635001D01*
D02*
G37*
G36*
X14783824D02*
X14756177D01*
X14729472Y13627844D01*
X14705528Y13614021D01*
X14685980Y13594472D01*
X14672156Y13570528D01*
X14664999Y13543823D01*
Y13516176D01*
X14672156Y13489471D01*
X14685980Y13465529D01*
X14705528Y13445979D01*
X14729472Y13432156D01*
X14756177Y13425000D01*
X14783824D01*
X14810529Y13432156D01*
X14834471Y13445979D01*
X14854021Y13465529D01*
X14867844Y13489471D01*
X14875000Y13516176D01*
Y13543823D01*
X14867844Y13570528D01*
X14854021Y13594472D01*
X14834471Y13614021D01*
X14810529Y13627844D01*
X14783824Y13635001D01*
D02*
G37*
G36*
X13425000D02*
X13214999D01*
Y13425000D01*
X13425000D01*
Y13635001D01*
D02*
G37*
G36*
X15385400Y13517300D02*
X15282701D01*
Y13414600D01*
X15285193D01*
X15314543Y13422464D01*
X15340857Y13437657D01*
X15362343Y13459143D01*
X15377536Y13485457D01*
X15385400Y13514807D01*
Y13517300D01*
D02*
G37*
G36*
X15257301D02*
X15154601D01*
Y13514807D01*
X15162465Y13485457D01*
X15177657Y13459143D01*
X15199142Y13437657D01*
X15225456Y13422464D01*
X15254807Y13414600D01*
X15257301D01*
Y13517300D01*
D02*
G37*
G36*
X12935400D02*
X12832700D01*
Y13414600D01*
X12835193D01*
X12864543Y13422464D01*
X12890857Y13437657D01*
X12912343Y13459143D01*
X12927534Y13485457D01*
X12935400Y13514807D01*
Y13517300D01*
D02*
G37*
G36*
X12807300D02*
X12704600D01*
Y13514807D01*
X12712465Y13485457D01*
X12727657Y13459143D01*
X12749143Y13437657D01*
X12775457Y13422464D01*
X12804807Y13414600D01*
X12807300D01*
Y13517300D01*
D02*
G37*
G36*
X17386292Y12395400D02*
X17382703D01*
Y12242700D01*
X17535400D01*
Y12246291D01*
X17529045Y12278246D01*
X17516576Y12308346D01*
X17498476Y12335437D01*
X17475436Y12358475D01*
X17448347Y12376576D01*
X17418246Y12389044D01*
X17386292Y12395400D01*
D02*
G37*
G36*
X17357301D02*
X17353709D01*
X17321754Y12389044D01*
X17291655Y12376576D01*
X17264565Y12358475D01*
X17241525Y12335437D01*
X17223425Y12308346D01*
X17210957Y12278246D01*
X17204601Y12246291D01*
Y12242700D01*
X17357301D01*
Y12395400D01*
D02*
G37*
G36*
X17535400Y12217300D02*
X17382703D01*
Y12064600D01*
X17386292D01*
X17418246Y12070956D01*
X17448347Y12083425D01*
X17475436Y12101526D01*
X17498476Y12124564D01*
X17516576Y12151654D01*
X17529045Y12181755D01*
X17535400Y12213710D01*
Y12217300D01*
D02*
G37*
G36*
X17357301D02*
X17204601D01*
Y12213710D01*
X17210957Y12181755D01*
X17223425Y12151654D01*
X17241525Y12124564D01*
X17264565Y12101526D01*
X17291655Y12083425D01*
X17321754Y12070956D01*
X17353709Y12064600D01*
X17357301D01*
Y12217300D01*
D02*
G37*
G36*
X16602179Y11942500D02*
X16577823D01*
X16554297Y11936196D01*
X16533205Y11924019D01*
X16515982Y11906796D01*
X16503806Y11885704D01*
X16497501Y11862178D01*
Y11837822D01*
X16503806Y11814297D01*
X16515982Y11793204D01*
X16533205Y11775982D01*
X16554297Y11763804D01*
X16577823Y11757500D01*
X16602179D01*
X16625703Y11763804D01*
X16646797Y11775982D01*
X16664018Y11793204D01*
X16676196Y11814297D01*
X16682501Y11837822D01*
Y11862178D01*
X16676196Y11885704D01*
X16664018Y11906796D01*
X16646797Y11924019D01*
X16625703Y11936196D01*
X16602179Y11942500D01*
D02*
G37*
G36*
X17386292Y11635400D02*
X17382701D01*
Y11482699D01*
X17535400D01*
Y11486291D01*
X17529045Y11518246D01*
X17516576Y11548346D01*
X17498476Y11575437D01*
X17475436Y11598475D01*
X17448347Y11616576D01*
X17418246Y11629044D01*
X17386292Y11635400D01*
D02*
G37*
G36*
X17357301D02*
X17353709D01*
X17321754Y11629044D01*
X17291655Y11616576D01*
X17264565Y11598475D01*
X17241525Y11575437D01*
X17223425Y11548346D01*
X17210957Y11518246D01*
X17204601Y11486291D01*
Y11482699D01*
X17357301D01*
Y11635400D01*
D02*
G37*
G36*
X17535400Y11457299D02*
X17382701D01*
Y11304600D01*
X17386292D01*
X17418246Y11310956D01*
X17448347Y11323425D01*
X17475436Y11341526D01*
X17498476Y11364564D01*
X17516576Y11391654D01*
X17529045Y11421755D01*
X17535400Y11453710D01*
Y11457299D01*
D02*
G37*
G36*
X17357301D02*
X17204601D01*
Y11453710D01*
X17210957Y11421755D01*
X17223425Y11391654D01*
X17241525Y11364564D01*
X17264565Y11341526D01*
X17291655Y11323425D01*
X17321754Y11310956D01*
X17353709Y11304600D01*
X17357301D01*
Y11457299D01*
D02*
G37*
G36*
X11786291Y11395400D02*
X11782700D01*
Y11242700D01*
X11935401D01*
Y11246291D01*
X11929044Y11278246D01*
X11916576Y11308346D01*
X11898475Y11335437D01*
X11875437Y11358475D01*
X11848347Y11376576D01*
X11818246Y11389044D01*
X11786291Y11395400D01*
D02*
G37*
G36*
X11757300D02*
X11753710D01*
X11721755Y11389044D01*
X11691654Y11376576D01*
X11664564Y11358475D01*
X11641526Y11335437D01*
X11623425Y11308346D01*
X11610957Y11278246D01*
X11604601Y11246291D01*
Y11242700D01*
X11757300D01*
Y11395400D01*
D02*
G37*
G36*
X11935401Y11217300D02*
X11782700D01*
Y11064600D01*
X11786291D01*
X11818246Y11070956D01*
X11848347Y11083425D01*
X11875437Y11101526D01*
X11898475Y11124564D01*
X11916576Y11151654D01*
X11929044Y11181755D01*
X11935401Y11213710D01*
Y11217300D01*
D02*
G37*
G36*
X11757300D02*
X11604601D01*
Y11213710D01*
X11610957Y11181755D01*
X11623425Y11151654D01*
X11641526Y11124564D01*
X11664564Y11101526D01*
X11691654Y11083425D01*
X11721755Y11070956D01*
X11753710Y11064600D01*
X11757300D01*
Y11217300D01*
D02*
G37*
G36*
X12562178Y10942500D02*
X12537823D01*
X12514297Y10936196D01*
X12493204Y10924019D01*
X12475982Y10906796D01*
X12463804Y10885704D01*
X12457501Y10862178D01*
Y10837822D01*
X12463804Y10814297D01*
X12475982Y10793204D01*
X12493204Y10775982D01*
X12514297Y10763804D01*
X12537823Y10757500D01*
X12562178D01*
X12585704Y10763804D01*
X12606797Y10775982D01*
X12624019Y10793204D01*
X12636197Y10814297D01*
X12642500Y10837822D01*
Y10862178D01*
X12636197Y10885704D01*
X12624019Y10906796D01*
X12606797Y10924019D01*
X12585704Y10936196D01*
X12562178Y10942500D01*
D02*
G37*
G36*
X11786291Y10635400D02*
X11782701D01*
Y10482700D01*
X11935401D01*
Y10486291D01*
X11929044Y10518246D01*
X11916576Y10548346D01*
X11898475Y10575437D01*
X11875437Y10598475D01*
X11848347Y10616576D01*
X11818246Y10629044D01*
X11786291Y10635400D01*
D02*
G37*
G36*
X11757301D02*
X11753710D01*
X11721755Y10629044D01*
X11691654Y10616576D01*
X11664564Y10598475D01*
X11641526Y10575437D01*
X11623425Y10548346D01*
X11610957Y10518246D01*
X11604601Y10486291D01*
Y10482700D01*
X11757301D01*
Y10635400D01*
D02*
G37*
G36*
X11935401Y10457300D02*
X11782701D01*
Y10304600D01*
X11786291D01*
X11818246Y10310956D01*
X11848347Y10323425D01*
X11875437Y10341526D01*
X11898475Y10364564D01*
X11916576Y10391654D01*
X11929044Y10421755D01*
X11935401Y10453710D01*
Y10457300D01*
D02*
G37*
G36*
X11757301D02*
X11604601D01*
Y10453710D01*
X11610957Y10421755D01*
X11623425Y10391654D01*
X11641526Y10364564D01*
X11664564Y10341526D01*
X11691654Y10323425D01*
X11721755Y10310956D01*
X11753710Y10304600D01*
X11757301D01*
Y10457300D01*
D02*
G37*
G36*
X17386292Y10395400D02*
X17382703D01*
Y10242700D01*
X17535400D01*
Y10246290D01*
X17529045Y10278245D01*
X17516576Y10308346D01*
X17498476Y10335436D01*
X17475436Y10358474D01*
X17448347Y10376575D01*
X17418246Y10389044D01*
X17386292Y10395400D01*
D02*
G37*
G36*
X17357301D02*
X17353709D01*
X17321754Y10389044D01*
X17291655Y10376575D01*
X17264565Y10358474D01*
X17241525Y10335436D01*
X17223425Y10308346D01*
X17210957Y10278245D01*
X17204601Y10246290D01*
Y10242700D01*
X17357301D01*
Y10395400D01*
D02*
G37*
G36*
X17535400Y10217300D02*
X17382703D01*
Y10064600D01*
X17386292D01*
X17418246Y10070956D01*
X17448347Y10083424D01*
X17475436Y10101525D01*
X17498476Y10124563D01*
X17516576Y10151654D01*
X17529045Y10181754D01*
X17535400Y10213709D01*
Y10217300D01*
D02*
G37*
G36*
X17357301D02*
X17204601D01*
Y10213709D01*
X17210957Y10181754D01*
X17223425Y10151654D01*
X17241525Y10124563D01*
X17264565Y10101525D01*
X17291655Y10083424D01*
X17321754Y10070956D01*
X17353709Y10064600D01*
X17357301D01*
Y10217300D01*
D02*
G37*
G36*
X16602179Y9942500D02*
X16577823D01*
X16554297Y9936196D01*
X16533205Y9924018D01*
X16515982Y9906796D01*
X16503806Y9885703D01*
X16497501Y9862178D01*
Y9837822D01*
X16503806Y9814296D01*
X16515982Y9793204D01*
X16533205Y9775981D01*
X16554297Y9763804D01*
X16577823Y9757500D01*
X16602179D01*
X16625703Y9763804D01*
X16646797Y9775981D01*
X16664018Y9793204D01*
X16676196Y9814296D01*
X16682501Y9837822D01*
Y9862178D01*
X16676196Y9885703D01*
X16664018Y9906796D01*
X16646797Y9924018D01*
X16625703Y9936196D01*
X16602179Y9942500D01*
D02*
G37*
G36*
X17386292Y9635400D02*
X17382701D01*
Y9482699D01*
X17535400D01*
Y9486290D01*
X17529045Y9518245D01*
X17516576Y9548346D01*
X17498476Y9575436D01*
X17475436Y9598474D01*
X17448347Y9616575D01*
X17418246Y9629044D01*
X17386292Y9635400D01*
D02*
G37*
G36*
X17357301D02*
X17353709D01*
X17321754Y9629044D01*
X17291655Y9616575D01*
X17264565Y9598474D01*
X17241525Y9575436D01*
X17223425Y9548346D01*
X17210957Y9518245D01*
X17204601Y9486290D01*
Y9482699D01*
X17357301D01*
Y9635400D01*
D02*
G37*
G36*
X17535400Y9457299D02*
X17382701D01*
Y9304600D01*
X17386292D01*
X17418246Y9310956D01*
X17448347Y9323424D01*
X17475436Y9341525D01*
X17498476Y9364563D01*
X17516576Y9391654D01*
X17529045Y9421754D01*
X17535400Y9453709D01*
Y9457299D01*
D02*
G37*
G36*
X17357301D02*
X17204601D01*
Y9453709D01*
X17210957Y9421754D01*
X17223425Y9391654D01*
X17241525Y9364563D01*
X17264565Y9341525D01*
X17291655Y9323424D01*
X17321754Y9310956D01*
X17353709Y9304600D01*
X17357301D01*
Y9457299D01*
D02*
G37*
G36*
X17386292Y8395400D02*
X17382703D01*
Y8242700D01*
X17535400D01*
Y8246291D01*
X17529045Y8278246D01*
X17516576Y8308346D01*
X17498476Y8335436D01*
X17475436Y8358475D01*
X17448347Y8376576D01*
X17418246Y8389044D01*
X17386292Y8395400D01*
D02*
G37*
G36*
X17357301D02*
X17353709D01*
X17321754Y8389044D01*
X17291655Y8376576D01*
X17264565Y8358475D01*
X17241525Y8335436D01*
X17223425Y8308346D01*
X17210957Y8278246D01*
X17204601Y8246291D01*
Y8242700D01*
X17357301D01*
Y8395400D01*
D02*
G37*
G36*
X17535400Y8217300D02*
X17382703D01*
Y8064600D01*
X17386292D01*
X17418246Y8070956D01*
X17448347Y8083425D01*
X17475436Y8101526D01*
X17498476Y8124564D01*
X17516576Y8151654D01*
X17529045Y8181755D01*
X17535400Y8213710D01*
Y8217300D01*
D02*
G37*
G36*
X17357301D02*
X17204601D01*
Y8213710D01*
X17210957Y8181755D01*
X17223425Y8151654D01*
X17241525Y8124564D01*
X17264565Y8101526D01*
X17291655Y8083425D01*
X17321754Y8070956D01*
X17353709Y8064600D01*
X17357301D01*
Y8217300D01*
D02*
G37*
G36*
X14077957Y8100000D02*
X14062044D01*
X14047342Y8093910D01*
X14036090Y8082658D01*
X14030000Y8067956D01*
Y8052043D01*
X14036090Y8037342D01*
X14047342Y8026090D01*
X14062044Y8020000D01*
X14066743D01*
X14238371Y7848372D01*
X14238371Y7848371D01*
X14248296Y7841741D01*
X14260001Y7839412D01*
X14260001Y7839412D01*
X14524020D01*
X14527342Y7836090D01*
X14542044Y7830000D01*
X14557957D01*
X14572658Y7836090D01*
X14583911Y7847342D01*
X14589999Y7862043D01*
Y7877957D01*
X14583911Y7892658D01*
X14572658Y7903910D01*
X14557957Y7910000D01*
X14542044D01*
X14527342Y7903910D01*
X14524020Y7900588D01*
X14272670D01*
X14110001Y8063258D01*
Y8067956D01*
X14103911Y8082658D01*
X14092657Y8093910D01*
X14077957Y8100000D01*
D02*
G37*
G36*
X16602179Y7942500D02*
X16577823D01*
X16554297Y7936196D01*
X16533205Y7924018D01*
X16515982Y7906796D01*
X16503806Y7885704D01*
X16497501Y7862178D01*
Y7837822D01*
X16503806Y7814297D01*
X16515982Y7793204D01*
X16533205Y7775982D01*
X16554297Y7763804D01*
X16577823Y7757500D01*
X16602179D01*
X16625703Y7763804D01*
X16646797Y7775982D01*
X16664018Y7793204D01*
X16676196Y7814297D01*
X16682501Y7837822D01*
Y7862178D01*
X16676196Y7885704D01*
X16664018Y7906796D01*
X16646797Y7924018D01*
X16625703Y7936196D01*
X16602179Y7942500D01*
D02*
G37*
G36*
X17386292Y7635400D02*
X17382701D01*
Y7482699D01*
X17535400D01*
Y7486291D01*
X17529045Y7518246D01*
X17516576Y7548346D01*
X17498476Y7575436D01*
X17475436Y7598475D01*
X17448347Y7616576D01*
X17418246Y7629044D01*
X17386292Y7635400D01*
D02*
G37*
G36*
X17357301D02*
X17353709D01*
X17321754Y7629044D01*
X17291655Y7616576D01*
X17264565Y7598475D01*
X17241525Y7575436D01*
X17223425Y7548346D01*
X17210957Y7518246D01*
X17204601Y7486291D01*
Y7482699D01*
X17357301D01*
Y7635400D01*
D02*
G37*
G36*
X17535400Y7457299D02*
X17382701D01*
Y7304600D01*
X17386292D01*
X17418246Y7310956D01*
X17448347Y7323425D01*
X17475436Y7341526D01*
X17498476Y7364564D01*
X17516576Y7391654D01*
X17529045Y7421755D01*
X17535400Y7453710D01*
Y7457299D01*
D02*
G37*
G36*
X17357301D02*
X17204601D01*
Y7453710D01*
X17210957Y7421755D01*
X17223425Y7391654D01*
X17241525Y7364564D01*
X17264565Y7341526D01*
X17291655Y7323425D01*
X17321754Y7310956D01*
X17353709Y7304600D01*
X17357301D01*
Y7457299D01*
D02*
G37*
G36*
X11766291Y7395400D02*
X11762700D01*
Y7242700D01*
X11915401D01*
Y7246291D01*
X11909045Y7278246D01*
X11896576Y7308346D01*
X11878475Y7335436D01*
X11855437Y7358474D01*
X11828347Y7376576D01*
X11798246Y7389044D01*
X11766291Y7395400D01*
D02*
G37*
G36*
X11737300D02*
X11733710D01*
X11701755Y7389044D01*
X11671654Y7376576D01*
X11644564Y7358474D01*
X11621526Y7335436D01*
X11603425Y7308346D01*
X11590957Y7278246D01*
X11584601Y7246291D01*
Y7242700D01*
X11737300D01*
Y7395400D01*
D02*
G37*
G36*
X11915401Y7217300D02*
X11762700D01*
Y7064600D01*
X11766291D01*
X11798246Y7070956D01*
X11828347Y7083424D01*
X11855437Y7101526D01*
X11878475Y7124564D01*
X11896576Y7151654D01*
X11909045Y7181754D01*
X11915401Y7213709D01*
Y7217300D01*
D02*
G37*
G36*
X11737300D02*
X11584601D01*
Y7213709D01*
X11590957Y7181754D01*
X11603425Y7151654D01*
X11621526Y7124564D01*
X11644564Y7101526D01*
X11671654Y7083424D01*
X11701755Y7070956D01*
X11733710Y7064600D01*
X11737300D01*
Y7217300D01*
D02*
G37*
G36*
X13397958Y10990000D02*
X13382045D01*
X13367343Y10983910D01*
X13356091Y10972658D01*
X13350002Y10957957D01*
Y10953258D01*
X13178371Y10781628D01*
X13171741Y10771705D01*
X13169412Y10759999D01*
X13169414Y10759998D01*
Y7170001D01*
X13169412Y7170000D01*
X13171741Y7158295D01*
X13178371Y7148371D01*
X13370000Y6956742D01*
Y6952043D01*
X13376089Y6937342D01*
X13387341Y6926090D01*
X13402045Y6920000D01*
X13417957D01*
X13432658Y6926090D01*
X13443912Y6937342D01*
X13450000Y6952043D01*
Y6967957D01*
X13443912Y6982658D01*
X13432658Y6993910D01*
X13417957Y7000000D01*
X13413258D01*
X13230588Y7182670D01*
Y10747329D01*
X13393259Y10910000D01*
X13397958D01*
X13412659Y10916090D01*
X13423911Y10927342D01*
X13430000Y10942044D01*
Y10957957D01*
X13423911Y10972658D01*
X13412659Y10983910D01*
X13397958Y10990000D01*
D02*
G37*
G36*
X12542178Y6942500D02*
X12517823D01*
X12494297Y6936196D01*
X12473204Y6924018D01*
X12455982Y6906796D01*
X12443804Y6885704D01*
X12437501Y6862178D01*
Y6837822D01*
X12443804Y6814297D01*
X12455982Y6793204D01*
X12473204Y6775982D01*
X12494297Y6763804D01*
X12517823Y6757500D01*
X12542178D01*
X12565704Y6763804D01*
X12586797Y6775982D01*
X12604019Y6793204D01*
X12616197Y6814297D01*
X12622501Y6837822D01*
Y6862178D01*
X12616197Y6885704D01*
X12604019Y6906796D01*
X12586797Y6924018D01*
X12565704Y6936196D01*
X12542178Y6942500D01*
D02*
G37*
G36*
X12333823Y13635001D02*
X12306177D01*
X12279472Y13627844D01*
X12255529Y13614021D01*
X12235979Y13594472D01*
X12222156Y13570528D01*
X12215000Y13543823D01*
Y13516176D01*
X12222156Y13489471D01*
X12235979Y13465529D01*
X12255529Y13445979D01*
X12279472Y13432156D01*
X12289412Y13429492D01*
Y12470001D01*
X12289412Y12470000D01*
X12291741Y12458295D01*
X12298371Y12448371D01*
X13494537Y11252205D01*
Y10910982D01*
X13491216Y10907660D01*
X13485126Y10892958D01*
Y10877045D01*
X13491216Y10862344D01*
X13494537Y10859021D01*
Y10677794D01*
X13386745Y10570000D01*
X13382045D01*
X13367343Y10563910D01*
X13356091Y10552658D01*
X13350002Y10537957D01*
Y10522043D01*
X13356091Y10507342D01*
X13367343Y10496090D01*
X13382045Y10490000D01*
X13386745D01*
X13519537Y10357206D01*
Y6916106D01*
X13516216Y6912783D01*
X13510126Y6898082D01*
Y6882169D01*
X13516216Y6867467D01*
X13519537Y6864145D01*
Y6682918D01*
X13411745Y6575124D01*
X13407045D01*
X13392343Y6569034D01*
X13381091Y6557782D01*
X13375002Y6543080D01*
Y6527167D01*
X13381091Y6512466D01*
X13392343Y6501214D01*
X13407045Y6495124D01*
X13422958D01*
X13437659Y6501214D01*
X13448912Y6512466D01*
X13455000Y6527167D01*
Y6531866D01*
X13571754Y6648619D01*
X13571754Y6648619D01*
X13578384Y6658543D01*
X13580714Y6670248D01*
X13580714Y6670250D01*
Y6864145D01*
X13584036Y6867467D01*
X13590126Y6882169D01*
Y6898082D01*
X13584036Y6912783D01*
X13580714Y6916106D01*
Y10369874D01*
X13580714Y10369876D01*
X13578384Y10381581D01*
X13571754Y10391504D01*
X13571754Y10391505D01*
X13433260Y10530000D01*
X13546754Y10643495D01*
X13546754Y10643496D01*
X13553384Y10653419D01*
X13555714Y10665124D01*
X13555714Y10665126D01*
Y10859021D01*
X13559036Y10862344D01*
X13565126Y10877045D01*
Y10892958D01*
X13559036Y10907660D01*
X13555714Y10910982D01*
Y11264873D01*
X13555714Y11264874D01*
X13553384Y11276580D01*
X13546754Y11286503D01*
X13546754Y11286504D01*
X12350588Y12482670D01*
Y13429492D01*
X12360528Y13432156D01*
X12384471Y13445979D01*
X12404021Y13465529D01*
X12417844Y13489471D01*
X12425000Y13516176D01*
Y13543823D01*
X12417844Y13570528D01*
X12404021Y13594472D01*
X12384471Y13614021D01*
X12360528Y13627844D01*
X12333823Y13635001D01*
D02*
G37*
G36*
X11766291Y6635400D02*
X11762701D01*
Y6482700D01*
X11915401D01*
Y6486291D01*
X11909045Y6518246D01*
X11896576Y6548346D01*
X11878475Y6575436D01*
X11855437Y6598474D01*
X11828347Y6616576D01*
X11798246Y6629044D01*
X11766291Y6635400D01*
D02*
G37*
G36*
X11737301D02*
X11733710D01*
X11701755Y6629044D01*
X11671654Y6616576D01*
X11644564Y6598474D01*
X11621526Y6575436D01*
X11603425Y6548346D01*
X11590957Y6518246D01*
X11584601Y6486291D01*
Y6482700D01*
X11737301D01*
Y6635400D01*
D02*
G37*
G36*
X15287956Y13010001D02*
X15272044D01*
X15257343Y13003909D01*
X15246091Y12992657D01*
X15239999Y12977957D01*
Y12973257D01*
X14998370Y12731629D01*
X14991740Y12721705D01*
X14989412Y12710000D01*
X14989412Y12709999D01*
Y12265981D01*
X14986090Y12262658D01*
X14980000Y12247956D01*
Y12232043D01*
X14986090Y12217342D01*
X14989412Y12214019D01*
Y10265981D01*
X14986090Y10262658D01*
X14980000Y10247957D01*
Y10232044D01*
X14986090Y10217342D01*
X14989412Y10214019D01*
Y8265981D01*
X14986090Y8262658D01*
X14980000Y8247957D01*
Y8232043D01*
X14986090Y8217342D01*
X14989412Y8214019D01*
Y6265981D01*
X14986090Y6262658D01*
X14980000Y6247957D01*
Y6232043D01*
X14986090Y6217342D01*
X14997342Y6206090D01*
X15012044Y6200000D01*
X15027957D01*
X15042657Y6206090D01*
X15053909Y6217342D01*
X15060001Y6232043D01*
Y6247957D01*
X15053909Y6262658D01*
X15050587Y6265981D01*
Y7991631D01*
X15065588Y7997844D01*
X15072342Y7991090D01*
X15087044Y7985000D01*
X15102957D01*
X15117657Y7991090D01*
X15120981Y7994412D01*
X15369217D01*
Y7360002D01*
X15369215Y7360000D01*
X15372321Y7344393D01*
X15381161Y7331162D01*
X15428497Y7283827D01*
X15381161Y7236492D01*
X15372321Y7223261D01*
X15369215Y7207654D01*
X15369217Y7207652D01*
Y6305002D01*
X15369215Y6305001D01*
X15372321Y6289393D01*
X15381161Y6276162D01*
X15445390Y6211934D01*
Y6055588D01*
X15120981D01*
X15117657Y6058910D01*
X15102957Y6065000D01*
X15087044D01*
X15072342Y6058910D01*
X15061090Y6047658D01*
X15055000Y6032956D01*
Y6017043D01*
X15061090Y6002342D01*
X15072342Y5991090D01*
X15087044Y5985000D01*
X15102957D01*
X15117657Y5991090D01*
X15120981Y5994412D01*
X15445390D01*
Y5283828D01*
X15445390Y5283827D01*
X15446175Y5279887D01*
Y5275870D01*
X15447711Y5272159D01*
X15448494Y5268220D01*
X15450726Y5264879D01*
X15452263Y5261169D01*
X15455103Y5258329D01*
X15457335Y5254988D01*
X15527335Y5184989D01*
X15530676Y5182756D01*
X15533514Y5179917D01*
X15537225Y5178380D01*
X15540565Y5176148D01*
X15544505Y5175364D01*
X15548216Y5173827D01*
X15552234D01*
X15556174Y5173044D01*
X15560114Y5173827D01*
X15564130D01*
X15567841Y5175364D01*
X15571780Y5176148D01*
X15575121Y5178380D01*
X15578831Y5179917D01*
X15581671Y5182757D01*
X15585011Y5184989D01*
X15587244Y5188329D01*
X15590083Y5191169D01*
X15591621Y5194880D01*
X15593852Y5198220D01*
X15594637Y5202159D01*
X15596173Y5205870D01*
Y5209887D01*
X15596957Y5213827D01*
X15596173Y5217767D01*
Y5221784D01*
X15594637Y5225495D01*
X15593852Y5229434D01*
X15591621Y5232775D01*
X15590083Y5236485D01*
X15587244Y5239325D01*
X15585011Y5242665D01*
X15526958Y5300720D01*
Y6030000D01*
Y6228826D01*
X15526958Y6228827D01*
X15523853Y6244434D01*
X15515012Y6257666D01*
X15515012Y6257666D01*
X15450784Y6321894D01*
Y6440326D01*
X15465784Y6446540D01*
X15527335Y6384989D01*
X15530676Y6382756D01*
X15533514Y6379917D01*
X15537225Y6378380D01*
X15540565Y6376148D01*
X15544505Y6375364D01*
X15548216Y6373827D01*
X15552234D01*
X15556174Y6373043D01*
X15560114Y6373827D01*
X15564130D01*
X15567841Y6375364D01*
X15571780Y6376148D01*
X15575121Y6378379D01*
X15578831Y6379917D01*
X15581671Y6382757D01*
X15585011Y6384989D01*
X15587244Y6388329D01*
X15590083Y6391169D01*
X15591621Y6394880D01*
X15593852Y6398220D01*
X15594637Y6402159D01*
X15596173Y6405870D01*
Y6409887D01*
X15596957Y6413827D01*
X15596173Y6417766D01*
Y6421783D01*
X15594637Y6425494D01*
X15593852Y6429434D01*
X15591621Y6432775D01*
X15590083Y6436485D01*
X15587244Y6439325D01*
X15585011Y6442665D01*
X15543851Y6483827D01*
X15658838Y6598815D01*
X15658839Y6598815D01*
X15667679Y6612046D01*
X15670784Y6627653D01*
Y7753402D01*
X15670784Y7753403D01*
X15667679Y7769011D01*
X15658839Y7782242D01*
X15596957Y7844124D01*
Y8413827D01*
X15596173Y8417767D01*
Y8421784D01*
X15594637Y8425494D01*
X15593852Y8429434D01*
X15591621Y8432775D01*
X15590083Y8436485D01*
X15587244Y8439325D01*
X15585011Y8442665D01*
X15543851Y8483827D01*
X15658838Y8598815D01*
X15658839Y8598815D01*
X15667679Y8612046D01*
X15670784Y8627654D01*
Y9753402D01*
X15670784Y9753403D01*
X15667679Y9769010D01*
X15658839Y9782242D01*
X15596957Y9844123D01*
Y10413827D01*
X15596173Y10417767D01*
Y10421784D01*
X15594637Y10425495D01*
X15593852Y10429434D01*
X15591621Y10432775D01*
X15590083Y10436485D01*
X15587244Y10439325D01*
X15585011Y10442665D01*
X15543867Y10483810D01*
X15553839Y10493815D01*
X15562680Y10507047D01*
X15565784Y10522654D01*
X15565784Y10522655D01*
Y10782304D01*
X15678838Y10895358D01*
X15678839Y10895359D01*
X15687679Y10908590D01*
X15690784Y10924197D01*
X15690784Y10924198D01*
Y12320000D01*
X15687679Y12335607D01*
X15678839Y12348838D01*
X15678838Y12348839D01*
X15515012Y12512665D01*
X15511671Y12514897D01*
X15508832Y12517737D01*
X15505121Y12519274D01*
X15501781Y12521506D01*
X15497841Y12522289D01*
X15494130Y12523827D01*
X15490114D01*
X15486172Y12524610D01*
X15482233Y12523827D01*
X15478217D01*
X15474506Y12522289D01*
X15470566Y12521506D01*
X15467226Y12519274D01*
X15463515Y12517737D01*
X15460675Y12514897D01*
X15457335Y12512665D01*
X15455785Y12510343D01*
X15453751Y12510076D01*
X15440784Y12516705D01*
Y12630418D01*
X15579582Y12769217D01*
X15589999D01*
X15593941Y12770000D01*
X15597957D01*
X15601668Y12771537D01*
X15605608Y12772321D01*
X15608948Y12774553D01*
X15612659Y12776090D01*
X15615498Y12778929D01*
X15618839Y12781162D01*
X15621071Y12784502D01*
X15623911Y12787342D01*
X15625449Y12791052D01*
X15627679Y12794393D01*
X15628464Y12798333D01*
X15630000Y12802043D01*
Y12806059D01*
X15630785Y12810001D01*
X15630000Y12813940D01*
Y12817957D01*
X15628464Y12821667D01*
X15627679Y12825607D01*
X15625449Y12828947D01*
X15623911Y12832658D01*
X15621071Y12835498D01*
X15618839Y12838838D01*
X15615498Y12841071D01*
X15612659Y12843910D01*
X15608948Y12845447D01*
X15605608Y12847679D01*
X15601668Y12848463D01*
X15597957Y12850000D01*
X15593941D01*
X15589999Y12850784D01*
X15562689D01*
X15547081Y12847679D01*
X15533850Y12838838D01*
X15533850Y12838838D01*
X15371162Y12676150D01*
X15362321Y12662919D01*
X15359216Y12647312D01*
X15359216Y12647310D01*
Y12055588D01*
X15120981D01*
X15117657Y12058910D01*
X15102957Y12065000D01*
X15087044D01*
X15072342Y12058910D01*
X15065588Y12052156D01*
X15050587Y12058369D01*
Y12214019D01*
X15053909Y12217342D01*
X15060001Y12232043D01*
Y12247956D01*
X15053909Y12262658D01*
X15050587Y12265981D01*
Y12697330D01*
X15283258Y12930000D01*
X15287956D01*
X15302658Y12936090D01*
X15313910Y12947342D01*
X15320000Y12962044D01*
Y12977957D01*
X15313910Y12992657D01*
X15302658Y13003909D01*
X15287956Y13010001D01*
D02*
G37*
G36*
X11915401Y6457300D02*
X11762701D01*
Y6304600D01*
X11766291D01*
X11798246Y6310956D01*
X11828347Y6323424D01*
X11855437Y6341526D01*
X11878475Y6364564D01*
X11896576Y6391654D01*
X11909045Y6421754D01*
X11915401Y6453709D01*
Y6457300D01*
D02*
G37*
G36*
X11737301D02*
X11584601D01*
Y6453709D01*
X11590957Y6421754D01*
X11603425Y6391654D01*
X11621526Y6364564D01*
X11644564Y6341526D01*
X11671654Y6323424D01*
X11701755Y6310956D01*
X11733710Y6304600D01*
X11737301D01*
Y6457300D01*
D02*
G37*
G36*
X17386292Y6395400D02*
X17382701D01*
Y6242699D01*
X17535400D01*
Y6246290D01*
X17529045Y6278245D01*
X17516576Y6308346D01*
X17498476Y6335436D01*
X17475436Y6358474D01*
X17448347Y6376575D01*
X17418246Y6389044D01*
X17386292Y6395400D01*
D02*
G37*
G36*
X17357301D02*
X17353709D01*
X17321754Y6389044D01*
X17291655Y6376575D01*
X17264565Y6358474D01*
X17241525Y6335436D01*
X17223425Y6308346D01*
X17210957Y6278245D01*
X17204601Y6246290D01*
Y6242699D01*
X17357301D01*
Y6395400D01*
D02*
G37*
G36*
X17535400Y6217299D02*
X17382701D01*
Y6064600D01*
X17386292D01*
X17418246Y6070956D01*
X17448347Y6083424D01*
X17475436Y6101525D01*
X17498476Y6124563D01*
X17516576Y6151653D01*
X17529045Y6181754D01*
X17535400Y6213709D01*
Y6217299D01*
D02*
G37*
G36*
X17357301D02*
X17204601D01*
Y6213709D01*
X17210957Y6181754D01*
X17223425Y6151653D01*
X17241525Y6124563D01*
X17264565Y6101525D01*
X17291655Y6083424D01*
X17321754Y6070956D01*
X17353709Y6064600D01*
X17357301D01*
Y6217299D01*
D02*
G37*
G36*
X16602179Y5942500D02*
X16577823D01*
X16554297Y5936196D01*
X16533205Y5924018D01*
X16515982Y5906796D01*
X16503806Y5885703D01*
X16497501Y5862178D01*
Y5837822D01*
X16503806Y5814296D01*
X16515982Y5793204D01*
X16533205Y5775981D01*
X16554297Y5763804D01*
X16577823Y5757500D01*
X16602179D01*
X16625703Y5763804D01*
X16646797Y5775981D01*
X16664018Y5793204D01*
X16676196Y5814296D01*
X16682501Y5837822D01*
Y5862178D01*
X16676196Y5885703D01*
X16664018Y5906796D01*
X16646797Y5924018D01*
X16625703Y5936196D01*
X16602179Y5942500D01*
D02*
G37*
G36*
X17386292Y5635400D02*
X17382701D01*
Y5482699D01*
X17535400D01*
Y5486290D01*
X17529045Y5518245D01*
X17516576Y5548346D01*
X17498476Y5575436D01*
X17475436Y5598474D01*
X17448347Y5616575D01*
X17418246Y5629044D01*
X17386292Y5635400D01*
D02*
G37*
G36*
X17357301D02*
X17353709D01*
X17321754Y5629044D01*
X17291655Y5616575D01*
X17264565Y5598474D01*
X17241525Y5575436D01*
X17223425Y5548346D01*
X17210957Y5518245D01*
X17204601Y5486290D01*
Y5482699D01*
X17357301D01*
Y5635400D01*
D02*
G37*
G36*
X17535400Y5457299D02*
X17382701D01*
Y5304600D01*
X17386292D01*
X17418246Y5310956D01*
X17448347Y5323424D01*
X17475436Y5341525D01*
X17498476Y5364563D01*
X17516576Y5391653D01*
X17529045Y5421754D01*
X17535400Y5453709D01*
Y5457299D01*
D02*
G37*
G36*
X17357301D02*
X17204601D01*
Y5453709D01*
X17210957Y5421754D01*
X17223425Y5391653D01*
X17241525Y5364563D01*
X17264565Y5341525D01*
X17291655Y5323424D01*
X17321754Y5310956D01*
X17353709Y5304600D01*
X17357301D01*
Y5457299D01*
D02*
G37*
%LPD*%
G36*
X15455785Y12457310D02*
X15457335Y12454988D01*
X15609216Y12303107D01*
Y11244164D01*
X15594241Y11229432D01*
X15593852Y11229434D01*
X15591621Y11232775D01*
X15590083Y11236485D01*
X15587244Y11239325D01*
X15585011Y11242665D01*
X15515012Y11312665D01*
X15515012Y11312666D01*
X15495784Y11331894D01*
Y11938843D01*
X15495784Y11938844D01*
X15492679Y11954452D01*
X15483838Y11967683D01*
X15483838Y11967683D01*
X15440784Y12010737D01*
Y12450949D01*
X15453751Y12457578D01*
X15455785Y12457310D01*
D02*
G37*
G36*
X15527335Y11184989D02*
X15530676Y11182756D01*
X15533514Y11179917D01*
X15537225Y11178380D01*
X15540565Y11176148D01*
X15544505Y11175364D01*
X15548216Y11173827D01*
X15552234D01*
X15556174Y11173043D01*
X15560114Y11173827D01*
X15564130D01*
X15567841Y11175364D01*
X15571780Y11176148D01*
X15575121Y11178379D01*
X15578831Y11179917D01*
X15581671Y11182757D01*
X15585011Y11184989D01*
X15587244Y11188329D01*
X15590083Y11191169D01*
X15591621Y11194880D01*
X15593852Y11198220D01*
X15594241Y11198222D01*
X15609216Y11183490D01*
Y10941090D01*
X15496162Y10828036D01*
X15487321Y10814805D01*
X15484216Y10799197D01*
X15484216Y10799196D01*
Y10539547D01*
X15465784Y10521114D01*
X15450784Y10527327D01*
Y11190760D01*
X15486172Y11226150D01*
X15527335Y11184989D01*
D02*
G37*
G36*
X15072342Y11991090D02*
X15087044Y11985000D01*
X15102957D01*
X15117657Y11991090D01*
X15120981Y11994412D01*
X15344974D01*
X15359216Y11993844D01*
X15362321Y11978237D01*
X15371162Y11965006D01*
X15414217Y11921951D01*
Y11315001D01*
X15414217Y11315000D01*
X15417320Y11299393D01*
X15426163Y11286162D01*
Y11281492D01*
X15381161Y11236492D01*
X15372321Y11223261D01*
X15369215Y11207653D01*
X15369217Y11207652D01*
Y10055588D01*
X15120981D01*
X15117657Y10058910D01*
X15102957Y10065000D01*
X15087044D01*
X15072342Y10058910D01*
X15065588Y10052156D01*
X15050587Y10058369D01*
Y10214019D01*
X15053909Y10217342D01*
X15060001Y10232044D01*
Y10247957D01*
X15053909Y10262658D01*
X15050587Y10265981D01*
Y11991631D01*
X15065588Y11997844D01*
X15072342Y11991090D01*
D02*
G37*
G36*
X15515390Y10396934D02*
Y9827231D01*
X15515390Y9827230D01*
X15518494Y9811623D01*
X15527335Y9798392D01*
X15589217Y9736510D01*
Y9259674D01*
X15574217Y9253461D01*
X15515012Y9312665D01*
X15515012Y9312666D01*
X15450784Y9376894D01*
Y10030000D01*
Y10440327D01*
X15465784Y10446540D01*
X15515390Y10396934D01*
D02*
G37*
G36*
X15527335Y9184989D02*
X15530676Y9182757D01*
X15533514Y9179917D01*
X15537225Y9178380D01*
X15540565Y9176148D01*
X15544505Y9175364D01*
X15548216Y9173827D01*
X15552234D01*
X15556174Y9173044D01*
X15560114Y9173827D01*
X15564130D01*
X15567841Y9175364D01*
X15571780Y9176148D01*
X15574217Y9177776D01*
X15577554Y9177054D01*
X15586159Y9172369D01*
X15589217Y9169218D01*
Y8644547D01*
X15465784Y8521114D01*
X15450784Y8527327D01*
Y9190760D01*
X15486172Y9226150D01*
X15527335Y9184989D01*
D02*
G37*
G36*
X15072342Y9991090D02*
X15087044Y9985000D01*
X15102957D01*
X15117657Y9991090D01*
X15120981Y9994412D01*
X15369217D01*
Y9360002D01*
X15369215Y9360000D01*
X15372321Y9344393D01*
X15381161Y9331162D01*
X15428497Y9283827D01*
X15381161Y9236492D01*
X15372321Y9223261D01*
X15369215Y9207654D01*
X15369217Y9207652D01*
Y8055588D01*
X15120981D01*
X15117657Y8058910D01*
X15102957Y8065000D01*
X15087044D01*
X15072342Y8058910D01*
X15065588Y8052156D01*
X15050587Y8058369D01*
Y8214019D01*
X15053909Y8217342D01*
X15060001Y8232043D01*
Y8247957D01*
X15053909Y8262658D01*
X15050587Y8265981D01*
Y9991631D01*
X15065588Y9997844D01*
X15072342Y9991090D01*
D02*
G37*
G36*
X15515390Y8396934D02*
Y7827231D01*
X15515390Y7827230D01*
X15518494Y7811623D01*
X15527335Y7798392D01*
X15589217Y7736510D01*
Y7259674D01*
X15574217Y7253460D01*
X15515012Y7312665D01*
X15515012Y7312666D01*
X15450784Y7376894D01*
Y8030000D01*
Y8440327D01*
X15465784Y8446540D01*
X15515390Y8396934D01*
D02*
G37*
G36*
X15527335Y7184989D02*
X15530676Y7182757D01*
X15533514Y7179917D01*
X15537225Y7178380D01*
X15540565Y7176148D01*
X15544505Y7175364D01*
X15548216Y7173827D01*
X15552234D01*
X15556174Y7173044D01*
X15560114Y7173827D01*
X15564130D01*
X15567841Y7175364D01*
X15571780Y7176148D01*
X15574217Y7177776D01*
X15577554Y7177054D01*
X15586159Y7172369D01*
X15589217Y7169218D01*
Y6644547D01*
X15465784Y6521114D01*
X15450784Y6527327D01*
Y7190760D01*
X15486172Y7226150D01*
X15527335Y7184989D01*
D02*
G37*
D20*
X13525127Y10885002D02*
Y11264874D01*
X12320000Y12470000D02*
Y13530000D01*
Y12470000D02*
X13525127Y11264874D01*
X15020000Y12710000D02*
X15280000Y12970000D01*
X15020000Y12240000D02*
Y12710000D01*
X14070000Y8060000D02*
X14260001Y7870000D01*
X14550000D01*
X15095000Y12025000D02*
X15395000D01*
X15400000Y12020000D01*
X15095000Y10025000D02*
X15405000D01*
X15410001Y10030000D01*
X15405000Y8025000D02*
X15410001Y8030000D01*
X15095000Y8025000D02*
X15405000D01*
X15095000Y6025000D02*
X15481174D01*
X15486172Y6030000D01*
X15020000Y10240000D02*
Y12240000D01*
Y8240000D02*
Y10240000D01*
Y6240000D02*
Y8240000D01*
X13200000Y7170000D02*
X13410001Y6960000D01*
X13200000Y7170000D02*
Y10759999D01*
X13390001Y10950000D01*
X13390001Y10530000D02*
X13525127Y10665124D01*
Y10885002D01*
X13390001Y10530000D02*
X13550127Y10369876D01*
Y6890125D02*
Y10369876D01*
Y6670248D02*
Y6890125D01*
X13415001Y6535124D02*
X13550127Y6670248D01*
D21*
X15400000Y12020000D02*
Y12647312D01*
Y11993844D02*
Y12020000D01*
X15455000Y11315000D02*
Y11938844D01*
Y11315000D02*
X15486172Y11283827D01*
X15400000Y11993844D02*
X15455000Y11938844D01*
X15562689Y12810001D02*
X15589999D01*
X15400000Y12647312D02*
X15562689Y12810001D01*
X15410001Y10030000D02*
Y11207653D01*
Y9360000D02*
Y10030000D01*
Y8030000D02*
Y9207654D01*
Y7360000D02*
Y8030000D01*
X15486172Y6030000D02*
Y6228827D01*
Y5283827D02*
Y6030000D01*
X15650000Y10924197D02*
Y12320000D01*
X15486172Y12483827D02*
X15650000Y12320000D01*
X15486172Y10483827D02*
X15525000Y10522654D01*
Y10799197D02*
X15650000Y10924197D01*
X15525000Y10522654D02*
Y10799197D01*
X15486172Y6483827D02*
X15630000Y6627653D01*
X15556174Y7827230D02*
X15630000Y7753403D01*
Y6627653D02*
Y7753403D01*
X15486172Y8483827D02*
X15630000Y8627654D01*
Y9753403D01*
X15556174Y9827230D02*
X15630000Y9753403D01*
X15486172Y6483827D02*
X15556174Y6413827D01*
Y7827230D02*
Y8413827D01*
X15486172Y8483827D02*
X15556174Y8413827D01*
Y9827230D02*
Y10413827D01*
X15486172Y10483827D02*
X15556174Y10413827D01*
X15410001Y9360000D02*
X15486172Y9283827D01*
X15410001Y11207653D02*
X15486172Y11283827D01*
X15410001Y7360000D02*
X15486172Y7283827D01*
X15410001Y9207654D02*
X15486172Y9283827D01*
X15410001Y6305001D02*
Y7207654D01*
Y6305001D02*
X15486172Y6228827D01*
X15410001Y7207654D02*
X15486172Y7283827D01*
Y11283827D02*
X15556174Y11213827D01*
X15486172Y9283827D02*
X15556174Y9213827D01*
X15486172Y7283827D02*
X15556174Y7213827D01*
X15486172Y5283827D02*
X15556174Y5213827D01*
D27*
X12550001Y10850000D02*
D03*
X12530001Y6850000D02*
D03*
X16590001Y11850000D02*
D03*
Y5850000D02*
D03*
Y7850000D02*
D03*
Y9850000D02*
D03*
D28*
X11770001Y10470000D02*
D03*
Y11230000D02*
D03*
X11750001Y7230000D02*
D03*
Y6470000D02*
D03*
X17370001Y11470000D02*
D03*
Y12230000D02*
D03*
Y5470000D02*
D03*
Y6230000D02*
D03*
Y7470000D02*
D03*
Y8230000D02*
D03*
Y9470000D02*
D03*
Y10230000D02*
D03*
D29*
X15770000Y13530000D02*
D03*
X13320000D02*
D03*
D30*
X15270000D02*
D03*
X14770000D02*
D03*
X12820000D02*
D03*
X12320000D02*
D03*
D31*
X15280000Y12970000D02*
D03*
X14550000Y7870000D02*
D03*
X15589999Y12810001D02*
D03*
X15095000Y6025000D02*
D03*
Y8025000D02*
D03*
Y10025000D02*
D03*
Y12025000D02*
D03*
X15486172Y5283827D02*
D03*
X15556174Y5213827D02*
D03*
X15486172Y6483827D02*
D03*
X15556174Y6413827D02*
D03*
X15486172Y7283827D02*
D03*
X15556174Y7213827D02*
D03*
X15486172Y8483827D02*
D03*
X15556174Y8413827D02*
D03*
X15486172Y9283827D02*
D03*
X15556174Y9213827D02*
D03*
X15486172Y10483827D02*
D03*
X15556174Y10413827D02*
D03*
X15486172Y11283827D02*
D03*
X15556174Y11213827D02*
D03*
Y12413827D02*
D03*
X15486172Y12483827D02*
D03*
X15020000Y6240000D02*
D03*
Y8240000D02*
D03*
Y10240000D02*
D03*
Y12240000D02*
D03*
X13390001Y10950000D02*
D03*
X13390001Y10530000D02*
D03*
X13415001Y6535124D02*
D03*
X13410001Y6960000D02*
D03*
X13525127Y10885002D02*
D03*
X13550127Y6890125D02*
D03*
X14070000Y8060000D02*
D03*
%TF.MD5,3285ea4924812c90dc826a685b5046f6*%
M02*
